{
.appVersion = "3108";
DisplayStrings = (
"/tinco_sarincefina-teng.short/sarincefina-teng.short/dottedCircle.ss01.upright",
"/tinco_sarincefina-teng.short/sarincefina-teng.short/dottedCircle.ss01.upright/rightcurlbelowright-teng",
"/lambe-teng/alda-teng/lambe-teng.big/alda-teng.big",
"/wave-teng",
"/sarincefina-teng.ss03/sarincefina-teng.top.ss03/sarincefina-teng.ss04/sarincefina-teng.top.ss04/sarincefina-teng.ss05/sarincefina-teng.top",
"/tinco-teng/parma-teng/calma-teng/quesse-teng/ando-teng/umbar-teng/anga-teng/ungwe-teng/thuule-teng/formen-teng/harma-teng/hwesta-teng \012/anto-teng/ampa-teng/anca-teng/unque-teng/nuumen-teng/malta-teng/noldo-teng/nwalme-teng/oore-teng/vala-teng/vala_dotinside-teng \012/anna-teng/vilya-teng/vilya_dotinside-teng/tincoascent-teng/parmaascent-teng/calmaascent-teng/quesseascent-teng/andoascent-teng/umbarascent-teng/angaascent-teng/ungweascent-teng/roomen-teng/arda-teng \012/lambe-teng/alda-teng/silme-teng/silmeturned-teng/aare-teng/aareturned-teng/hyarmen-teng/hwestasindar-teng/yanta-teng/uure-teng/carrierlong-teng/halla-teng/carriershort-teng/ossereversed-teng/wbombadil-teng/osse-teng/carrierschwa-teng/annaopen-teng/quchris-teng \012/hwbombadil-teng/mh-teng/mhbelerian-teng/hwlowdham-teng/vaiya-teng/sarincefina-teng/uureslash-teng/uureslashAlt-teng/carrierlongAlt-teng/ossetick-teng/yantafeonrian-teng/lambesmall-teng/lambe-teng.big/alda-teng.big/roomen-teng.bottom/arda-teng.bottom",

glyphs = (
{
color = 9;
glyphname = "vala_dotinside-teng";
lastChange = "2022-01-04 13:32:56 +0000";
layers = (
{
anchors = (
{
name = bottom;
position = "{305, 0}";
},
{
name = bottomleft;
position = "{52, 0}";
},
{
name = top;
position = "{305, 400}";
}
);
components = (
{
name = "vala-teng";
}
);
layerId = "4397B867-53E7-4964-BB9B-A578920F109C";
paths = (
{
closed = 1;
nodes = (
"349 132 LINE SMOOTH",
"349 183 OFFCURVE",
"361 211 OFFCURVE",
"388 240 CURVE",
"388 247 OFFCURVE",
"379 259 OFFCURVE",
"371 259 CURVE",
"307 225 OFFCURVE",
"271 181 OFFCURVE",
"271 110 CURVE SMOOTH",
"271 40 LINE",
"349 40 LINE"
);
}
);
width = 640;
},
{
anchors = (
{
name = bottom;
position = "{335, 0}";
},
{
name = bottomleft;
position = "{62, 0}";
},
{
name = top;
position = "{335, 420}";
}
);
background = {
paths = (
{
closed = 1;
nodes = (
"359 132 LINE SMOOTH",
"359 183 OFFCURVE",
"371 211 OFFCURVE",
"398 240 CURVE",
"398 247 OFFCURVE",
"389 259 OFFCURVE",
"381 259 CURVE",
"317 225 OFFCURVE",
"281 181 OFFCURVE",
"281 110 CURVE SMOOTH",
"281 40 LINE",
"359 40 LINE"
);
}
);
};
components = (
{
name = "vala-teng";
}
);
layerId = "0ED38B93-C2B0-4B4A-9C6D-D7838A33C317";
paths = (
{
closed = 1;
nodes = (
"389 142 LINE SMOOTH",
"389 193 OFFCURVE",
"401 221 OFFCURVE",
"428 250 CURVE",
"428 257 OFFCURVE",
"419 269 OFFCURVE",
"411 269 CURVE",
"328 230 OFFCURVE",
"281 181 OFFCURVE",
"281 100 CURVE SMOOTH",
"281 40 LINE",
"389 40 LINE"
);
}
);
width = 695;
}
);
leftMetricsKey = "nuumen-teng";
rightKerningGroup = RoundBottom;
rightMetricsKey = "parma-teng";
},
{
color = 9;
glyphname = "vilya_dotinside-teng";
lastChange = "2022-01-04 13:33:01 +0000";
layers = (
{
anchors = (
{
name = bottom;
position = "{310, 0}";
},
{
name = bottomleft;
position = "{70, 0}";
},
{
name = top;
position = "{330, 400}";
}
);
components = (
{
name = "vilya-teng";
}
);
layerId = "4397B867-53E7-4964-BB9B-A578920F109C";
paths = (
{
closed = 1;
nodes = (
"275 268 LINE SMOOTH",
"275 217 OFFCURVE",
"263 189 OFFCURVE",
"236 160 CURVE",
"236 153 OFFCURVE",
"245 141 OFFCURVE",
"253 141 CURVE",
"317 175 OFFCURVE",
"353 219 OFFCURVE",
"353 290 CURVE SMOOTH",
"353 360 LINE",
"275 360 LINE"
);
}
);
width = 638;
},
{
anchors = (
{
name = bottom;
position = "{320, 0}";
},
{
name = bottomleft;
position = "{70, 0}";
},
{
name = top;
position = "{340, 420}";
}
);
components = (
{
name = "vilya-teng";
}
);
layerId = "0ED38B93-C2B0-4B4A-9C6D-D7838A33C317";
paths = (
{
closed = 1;
nodes = (
"270 258 LINE SMOOTH",
"270 207 OFFCURVE",
"258 179 OFFCURVE",
"231 150 CURVE",
"231 143 OFFCURVE",
"240 131 OFFCURVE",
"248 131 CURVE",
"331 170 OFFCURVE",
"378 219 OFFCURVE",
"378 300 CURVE SMOOTH",
"378 360 LINE",
"270 360 LINE"
);
}
);
width = 668;
}
);
leftKerningGroup = quesse;
leftMetricsKey = "vilya-teng";
rightMetricsKey = "=|nuumen-teng";
},
{
color = 5;
glyphname = "roomen-teng";
lastChange = "2022-01-04 13:34:09 +0000";
layers = (
{
anchors = (
{
name = bottom;
position = "{354, 0}";
},
{
name = bottomleft;
position = "{-60, -200}";
},
{
name = top;
position = "{254, 400}";
}
);
background = {
paths = (
{
closed = 1;
nodes = (
"233 -307 OFFCURVE",
"278 -281 OFFCURVE",
"318 -240 CURVE",
"318 -236 OFFCURVE",
"309 -223 OFFCURVE",
"305 -223 CURVE",
"280 -240 OFFCURVE",
"253 -249 OFFCURVE",
"225 -249 CURVE SMOOTH",
"172 -249 OFFCURVE",
"148 -223 OFFCURVE",
"148 -170 CURVE SMOOTH",
"148 2 OFFCURVE",
"478 138 OFFCURVE",
"478 316 CURVE SMOOTH",
"478 373 OFFCURVE",
"450 414 OFFCURVE",
"385 414 CURVE SMOOTH",
"338 414 OFFCURVE",
"294 391 OFFCURVE",
"263 362 CURVE",
"263 358 OFFCURVE",
"272 343 OFFCURVE",
"276 342 CURVE",
"296 358 OFFCURVE",
"319 366 OFFCURVE",
"338 366 CURVE SMOOTH",
"374 366 OFFCURVE",
"398 344 OFFCURVE",
"398 293 CURVE SMOOTH",
"398 100 OFFCURVE",
"68 -48 OFFCURVE",
"68 -198 CURVE SMOOTH",
"68 -268 OFFCURVE",
"104 -307 OFFCURVE",
"178 -307 CURVE SMOOTH"
);
},
{
closed = 1;
nodes = (
"273 59 LINE",
"243 160 OFFCURVE",
"210 258 OFFCURVE",
"181 323 CURVE SMOOTH",
"149 395 OFFCURVE",
"126 414 OFFCURVE",
"95 414 CURVE SMOOTH",
"65 414 OFFCURVE",
"23 390 OFFCURVE",
"-15 348 CURVE",
"-15 344 OFFCURVE",
"-4 331 OFFCURVE",
"0 331 CURVE",
"18 348 OFFCURVE",
"31 355 OFFCURVE",
"43 355 CURVE SMOOTH",
"60 355 OFFCURVE",
"77 340 OFFCURVE",
"103 289 CURVE SMOOTH",
"136 224 OFFCURVE",
"180 110 OFFCURVE",
"213 0 CURVE"
);
}
);
};
layerId = "4397B867-53E7-4964-BB9B-A578920F109C";
paths = (
{
closed = 1;
nodes = (
"233 -307 OFFCURVE",
"278 -281 OFFCURVE",
"318 -240 CURVE",
"318 -236 OFFCURVE",
"309 -223 OFFCURVE",
"305 -223 CURVE",
"280 -240 OFFCURVE",
"253 -249 OFFCURVE",
"225 -249 CURVE SMOOTH",
"172 -249 OFFCURVE",
"148 -223 OFFCURVE",
"148 -170 CURVE SMOOTH",
"148 2 OFFCURVE",
"478 138 OFFCURVE",
"478 316 CURVE SMOOTH",
"478 373 OFFCURVE",
"450 414 OFFCURVE",
"385 414 CURVE SMOOTH",
"338 414 OFFCURVE",
"294 391 OFFCURVE",
"263 362 CURVE",
"263 358 OFFCURVE",
"272 343 OFFCURVE",
"276 342 CURVE",
"296 358 OFFCURVE",
"319 366 OFFCURVE",
"338 366 CURVE SMOOTH",
"374 366 OFFCURVE",
"398 344 OFFCURVE",
"398 293 CURVE SMOOTH",
"398 100 OFFCURVE",
"68 -48 OFFCURVE",
"68 -198 CURVE SMOOTH",
"68 -268 OFFCURVE",
"104 -307 OFFCURVE",
"178 -307 CURVE SMOOTH"
);
},
{
closed = 1;
nodes = (
"273 59 LINE",
"243 160 OFFCURVE",
"210 258 OFFCURVE",
"181 323 CURVE SMOOTH",
"149 395 OFFCURVE",
"126 414 OFFCURVE",
"95 414 CURVE SMOOTH",
"65 414 OFFCURVE",
"23 390 OFFCURVE",
"-15 348 CURVE",
"-15 344 OFFCURVE",
"-4 331 OFFCURVE",
"0 331 CURVE",
"18 348 OFFCURVE",
"31 355 OFFCURVE",
"43 355 CURVE SMOOTH",
"60 355 OFFCURVE",
"77 340 OFFCURVE",
"103 289 CURVE SMOOTH",
"136 224 OFFCURVE",
"180 110 OFFCURVE",
"213 0 CURVE"
);
}
);
width = 508;
},
{
anchors = (
{
name = bottom;
position = "{355, 0}";
},
{
name = bottomleft;
position = "{-49, -200}";
},
{
name = top;
position = "{255, 420}";
}
);
background = {
paths = (
{
closed = 1;
nodes = (
"234 -307 OFFCURVE",
"279 -281 OFFCURVE",
"319 -240 CURVE",
"319 -236 OFFCURVE",
"310 -223 OFFCURVE",
"306 -223 CURVE",
"281 -240 OFFCURVE",
"254 -249 OFFCURVE",
"226 -249 CURVE SMOOTH",
"173 -249 OFFCURVE",
"149 -223 OFFCURVE",
"149 -170 CURVE SMOOTH",
"149 2 OFFCURVE",
"479 138 OFFCURVE",
"479 316 CURVE SMOOTH",
"479 373 OFFCURVE",
"451 414 OFFCURVE",
"386 414 CURVE SMOOTH",
"339 414 OFFCURVE",
"295 391 OFFCURVE",
"264 362 CURVE",
"264 358 OFFCURVE",
"273 343 OFFCURVE",
"277 342 CURVE",
"297 358 OFFCURVE",
"320 366 OFFCURVE",
"339 366 CURVE SMOOTH",
"375 366 OFFCURVE",
"399 344 OFFCURVE",
"399 293 CURVE SMOOTH",
"399 100 OFFCURVE",
"69 -48 OFFCURVE",
"69 -198 CURVE SMOOTH",
"69 -268 OFFCURVE",
"105 -307 OFFCURVE",
"179 -307 CURVE SMOOTH"
);
},
{
closed = 1;
nodes = (
"274 59 LINE",
"244 160 OFFCURVE",
"211 258 OFFCURVE",
"182 323 CURVE SMOOTH",
"150 395 OFFCURVE",
"127 414 OFFCURVE",
"96 414 CURVE SMOOTH",
"66 414 OFFCURVE",
"24 390 OFFCURVE",
"-14 348 CURVE",
"-14 344 OFFCURVE",
"-3 331 OFFCURVE",
"1 331 CURVE",
"19 348 OFFCURVE",
"32 355 OFFCURVE",
"44 355 CURVE SMOOTH",
"61 355 OFFCURVE",
"78 340 OFFCURVE",
"104 289 CURVE SMOOTH",
"137 224 OFFCURVE",
"181 110 OFFCURVE",
"214 0 CURVE"
);
}
);
};
layerId = "0ED38B93-C2B0-4B4A-9C6D-D7838A33C317";
paths = (
{
closed = 1;
nodes = (
"237 -312 OFFCURVE",
"289 -278 OFFCURVE",
"334 -225 CURVE",
"334 -221 OFFCURVE",
"325 -208 OFFCURVE",
"321 -208 CURVE",
"297 -225 OFFCURVE",
"271 -234 OFFCURVE",
"244 -234 CURVE SMOOTH",
"193 -234 OFFCURVE",
"170 -208 OFFCURVE",
"170 -155 CURVE SMOOTH",
"170 26 OFFCURVE",
"499 155 OFFCURVE",
"499 336 CURVE SMOOTH",
"499 393 OFFCURVE",
"471 434 OFFCURVE",
"406 434 CURVE SMOOTH",
"351 434 OFFCURVE",
"300 406 OFFCURVE",
"264 372 CURVE",
"264 368 OFFCURVE",
"273 353 OFFCURVE",
"277 352 CURVE",
"293 366 OFFCURVE",
"311 373 OFFCURVE",
"326 373 CURVE SMOOTH",
"366 373 OFFCURVE",
"393 349 OFFCURVE",
"393 293 CURVE SMOOTH",
"393 90 OFFCURVE",
"64 -51 OFFCURVE",
"64 -203 CURVE SMOOTH",
"64 -273 OFFCURVE",
"100 -312 OFFCURVE",
"174 -312 CURVE SMOOTH"
);
},
{
closed = 1;
nodes = (
"294 79 LINE",
"264 180 OFFCURVE",
"231 278 OFFCURVE",
"202 343 CURVE SMOOTH",
"170 415 OFFCURVE",
"147 434 OFFCURVE",
"116 434 CURVE SMOOTH",
"78 434 OFFCURVE",
"26 403 OFFCURVE",
"-20 348 CURVE",
"-20 344 OFFCURVE",
"-9 331 OFFCURVE",
"-5 331 CURVE",
"13 348 OFFCURVE",
"25 355 OFFCURVE",
"35 355 CURVE SMOOTH",
"52 355 OFFCURVE",
"69 338 OFFCURVE",
"98 281 CURVE SMOOTH",
"131 216 OFFCURVE",
"175 102 OFFCURVE",
"208 -8 CURVE"
);
}
);
width = 524;
}
);
leftKerningGroup = roomen;
rightKerningGroup = roomen;
unicode = E020;
},
{
color = 5;
glyphname = "arda-teng";
lastChange = "2022-01-04 13:49:00 +0000";
layers = (
{
anchors = (
{
name = bottom;
position = "{385, 0}";
},
{
name = bottomleft;
position = "{-10, -200}";
},
{
name = top;
position = "{285, 400}";
}
);
background = {
paths = (
{
closed = 1;
nodes = (
"154 209 OFFCURVE",
"103 165 OFFCURVE",
"66 128 CURVE SMOOTH",
"40 102 OFFCURVE",
"28 82 OFFCURVE",
"28 56 CURVE SMOOTH",
"28 33 OFFCURVE",
"44 10 OFFCURVE",
"77 10 CURVE SMOOTH",
"106 10 OFFCURVE",
"133 26 OFFCURVE",
"151 49 CURVE",
"132 67 OFFCURVE",
"122 83 OFFCURVE",
"122 100 CURVE SMOOTH",
"122 117 OFFCURVE",
"129 130 OFFCURVE",
"143 146 CURVE SMOOTH",
"163 168 OFFCURVE",
"192 193 OFFCURVE",
"215 209 CURVE",
"196 242 LINE"
);
}
);
};
components = (
{
name = "roomen-teng";
transform = "{1, 0, 0, 1, 51, 0}";
}
);
layerId = "4397B867-53E7-4964-BB9B-A578920F109C";
paths = (
{
closed = 1;
nodes = (
"103 4 OFFCURVE",
"128 15 OFFCURVE",
"141 33 CURVE",
"121 54 OFFCURVE",
"109 73 OFFCURVE",
"109 92 CURVE SMOOTH",
"109 129 OFFCURVE",
"137 159 OFFCURVE",
"216 216 CURVE",
"206 242 LINE",
"167 214 OFFCURVE",
"127 182 OFFCURVE",
"94 153 CURVE SMOOTH",
"47 111 OFFCURVE",
"30 82 OFFCURVE",
"30 52 CURVE SMOOTH",
"30 28 OFFCURVE",
"46 4 OFFCURVE",
"79 4 CURVE SMOOTH"
);
}
);
width = 559;
},
{
anchors = (
{
name = bottom;
position = "{390, 0}";
},
{
name = bottomleft;
position = "{-15, -200}";
},
{
name = top;
position = "{306, 420}";
}
);
background = {
paths = (
{
closed = 1;
nodes = (
"98 4 OFFCURVE",
"123 15 OFFCURVE",
"136 33 CURVE",
"116 54 OFFCURVE",
"104 73 OFFCURVE",
"104 92 CURVE SMOOTH",
"104 129 OFFCURVE",
"132 159 OFFCURVE",
"211 216 CURVE",
"201 242 LINE",
"162 214 OFFCURVE",
"122 182 OFFCURVE",
"89 153 CURVE SMOOTH",
"42 111 OFFCURVE",
"25 82 OFFCURVE",
"25 52 CURVE SMOOTH",
"25 28 OFFCURVE",
"41 4 OFFCURVE",
"74 4 CURVE SMOOTH"
);
}
);
};
components = (
{
name = "roomen-teng";
transform = "{1, 0, 0, 1, 46, 0}";
}
);
layerId = "0ED38B93-C2B0-4B4A-9C6D-D7838A33C317";
paths = (
{
closed = 1;
nodes = (
"106 4 OFFCURVE",
"139 23 OFFCURVE",
"156 53 CURVE",
"136 74 OFFCURVE",
"124 93 OFFCURVE",
"124 112 CURVE SMOOTH",
"124 143 OFFCURVE",
"147 168 OFFCURVE",
"211 216 CURVE",
"201 242 LINE",
"162 214 OFFCURVE",
"122 182 OFFCURVE",
"89 153 CURVE SMOOTH",
"42 111 OFFCURVE",
"25 82 OFFCURVE",
"25 52 CURVE SMOOTH",
"25 28 OFFCURVE",
"41 4 OFFCURVE",
"74 4 CURVE SMOOTH"
);
}
);
width = 570;
}
);
rightKerningGroup = roomen;
rightMetricsKey = "roomen-teng";
unicode = E021;
},
{
color = 5;
glyphname = "lambe-teng";
lastChange = "2022-01-04 13:35:09 +0000";
layers = (
{
anchors = (
{
name = bottom;
position = "{333, 253}";
},
{
name = bottomleft;
position = "{-20, -100}";
},
{
name = top;
position = "{353, 400}";
}
);
background = {
paths = (
{
closed = 1;
nodes = (
"471 -185 OFFCURVE",
"615 -44 OFFCURVE",
"615 70 CURVE SMOOTH",
"615 125 OFFCURVE",
"592 150 OFFCURVE",
"554 150 CURVE SMOOTH",
"527 150 OFFCURVE",
"502 133 OFFCURVE",
"492 113 CURVE",
"522 84 OFFCURVE",
"534 59 OFFCURVE",
"534 24 CURVE SMOOTH",
"534 -66 OFFCURVE",
"462 -136 OFFCURVE",
"338 -136 CURVE SMOOTH",
"213 -136 OFFCURVE",
"129 -54 OFFCURVE",
"129 70 CURVE SMOOTH",
"129 172 OFFCURVE",
"186 253 OFFCURVE",
"328 330 CURVE",
"283 336 LINE",
"125 261 OFFCURVE",
"51 168 OFFCURVE",
"51 42 CURVE SMOOTH",
"51 -87 OFFCURVE",
"137 -185 OFFCURVE",
"288 -185 CURVE SMOOTH"
);
},
{
closed = 1;
nodes = (
"290 319 LINE",
"290 342 LINE",
"263 342 LINE",
"263 319 LINE"
);
},
{
closed = 1;
nodes = (
"78 324 OFFCURVE",
"97 330 OFFCURVE",
"175 330 CURVE SMOOTH",
"466 330 LINE SMOOTH",
"523 330 OFFCURVE",
"570 352 OFFCURVE",
"626 401 CURVE",
"627 404 LINE",
"627 408 OFFCURVE",
"621 420 OFFCURVE",
"616 421 CURVE",
"589 406 OFFCURVE",
"570 400 OFFCURVE",
"492 400 CURVE SMOOTH",
"201 400 LINE SMOOTH",
"144 400 OFFCURVE",
"97 378 OFFCURVE",
"41 329 CURVE",
"40 326 LINE",
"40 322 OFFCURVE",
"46 310 OFFCURVE",
"51 309 CURVE"
);
}
);
};
layerId = "4397B867-53E7-4964-BB9B-A578920F109C";
paths = (
{
closed = 1;
nodes = (
"471 -185 OFFCURVE",
"615 -44 OFFCURVE",
"615 70 CURVE SMOOTH",
"615 125 OFFCURVE",
"592 150 OFFCURVE",
"554 150 CURVE SMOOTH",
"527 150 OFFCURVE",
"502 133 OFFCURVE",
"492 113 CURVE",
"522 84 OFFCURVE",
"534 59 OFFCURVE",
"534 24 CURVE SMOOTH",
"534 -66 OFFCURVE",
"462 -136 OFFCURVE",
"338 -136 CURVE SMOOTH",
"213 -136 OFFCURVE",
"129 -54 OFFCURVE",
"129 70 CURVE SMOOTH",
"129 172 OFFCURVE",
"186 253 OFFCURVE",
"328 330 CURVE",
"283 336 LINE",
"125 261 OFFCURVE",
"51 168 OFFCURVE",
"51 42 CURVE SMOOTH",
"51 -87 OFFCURVE",
"137 -185 OFFCURVE",
"288 -185 CURVE SMOOTH"
);
},
{
closed = 1;
nodes = (
"290 319 LINE",
"290 342 LINE",
"263 342 LINE",
"263 319 LINE"
);
},
{
closed = 1;
nodes = (
"78 324 OFFCURVE",
"97 330 OFFCURVE",
"175 330 CURVE SMOOTH",
"466 330 LINE SMOOTH",
"523 330 OFFCURVE",
"570 352 OFFCURVE",
"626 401 CURVE",
"627 404 LINE",
"627 408 OFFCURVE",
"621 420 OFFCURVE",
"616 421 CURVE",
"589 406 OFFCURVE",
"570 400 OFFCURVE",
"492 400 CURVE SMOOTH",
"201 400 LINE SMOOTH",
"144 400 OFFCURVE",
"97 378 OFFCURVE",
"41 329 CURVE",
"40 326 LINE",
"40 322 OFFCURVE",
"46 310 OFFCURVE",
"51 309 CURVE"
);
}
);
width = 640;
},
{
anchors = (
{
name = bottom;
position = "{346, 249}";
},
{
name = bottomleft;
position = "{-27, -100}";
},
{
name = top;
position = "{381, 420}";
}
);
background = {
paths = (
{
closed = 1;
nodes = (
"484 -185 OFFCURVE",
"628 -44 OFFCURVE",
"628 70 CURVE SMOOTH",
"628 125 OFFCURVE",
"605 150 OFFCURVE",
"567 150 CURVE SMOOTH",
"540 150 OFFCURVE",
"515 133 OFFCURVE",
"505 113 CURVE",
"535 84 OFFCURVE",
"547 59 OFFCURVE",
"547 24 CURVE SMOOTH",
"547 -66 OFFCURVE",
"475 -136 OFFCURVE",
"351 -136 CURVE SMOOTH",
"226 -136 OFFCURVE",
"142 -54 OFFCURVE",
"142 70 CURVE SMOOTH",
"142 172 OFFCURVE",
"199 253 OFFCURVE",
"341 330 CURVE",
"296 336 LINE",
"138 261 OFFCURVE",
"64 168 OFFCURVE",
"64 42 CURVE SMOOTH",
"64 -87 OFFCURVE",
"150 -185 OFFCURVE",
"301 -185 CURVE SMOOTH"
);
},
{
closed = 1;
nodes = (
"303 319 LINE",
"303 342 LINE",
"276 342 LINE",
"276 319 LINE"
);
},
{
closed = 1;
nodes = (
"91 324 OFFCURVE",
"110 330 OFFCURVE",
"188 330 CURVE SMOOTH",
"479 330 LINE SMOOTH",
"536 330 OFFCURVE",
"583 352 OFFCURVE",
"639 401 CURVE",
"640 404 LINE",
"640 408 OFFCURVE",
"634 420 OFFCURVE",
"629 421 CURVE",
"602 406 OFFCURVE",
"583 400 OFFCURVE",
"505 400 CURVE SMOOTH",
"214 400 LINE SMOOTH",
"157 400 OFFCURVE",
"110 378 OFFCURVE",
"54 329 CURVE",
"53 326 LINE",
"53 322 OFFCURVE",
"59 310 OFFCURVE",
"64 309 CURVE"
);
}
);
};
layerId = "0ED38B93-C2B0-4B4A-9C6D-D7838A33C317";
paths = (
{
closed = 1;
nodes = (
"470 -205 OFFCURVE",
"638 -41 OFFCURVE",
"638 86 CURVE SMOOTH",
"638 141 OFFCURVE",
"615 166 OFFCURVE",
"577 166 CURVE SMOOTH",
"541 166 OFFCURVE",
"508 144 OFFCURVE",
"495 119 CURVE",
"525 87 OFFCURVE",
"537 59 OFFCURVE",
"537 20 CURVE SMOOTH",
"537 -77 OFFCURVE",
"475 -130 OFFCURVE",
"361 -130 CURVE SMOOTH",
"236 -130 OFFCURVE",
"152 -48 OFFCURVE",
"152 76 CURVE SMOOTH",
"152 174 OFFCURVE",
"206 252 OFFCURVE",
"341 326 CURVE",
"296 332 LINE",
"126 252 OFFCURVE",
"46 155 OFFCURVE",
"46 22 CURVE SMOOTH",
"46 -107 OFFCURVE",
"132 -205 OFFCURVE",
"283 -205 CURVE SMOOTH"
);
},
{
closed = 1;
nodes = (
"303 315 LINE",
"303 338 LINE",
"276 338 LINE",
"276 315 LINE"
);
},
{
closed = 1;
nodes = (
"73 320 OFFCURVE",
"92 326 OFFCURVE",
"170 326 CURVE SMOOTH",
"471 326 LINE SMOOTH",
"539 326 OFFCURVE",
"595 355 OFFCURVE",
"661 421 CURVE",
"662 424 LINE",
"662 428 OFFCURVE",
"656 440 OFFCURVE",
"651 441 CURVE",
"624 426 OFFCURVE",
"605 420 OFFCURVE",
"527 420 CURVE SMOOTH",
"226 420 LINE SMOOTH",
"158 420 OFFCURVE",
"103 391 OFFCURVE",
"36 325 CURVE",
"35 322 LINE",
"35 318 OFFCURVE",
"41 306 OFFCURVE",
"46 305 CURVE"
);
}
);
width = 670;
}
);
unicode = E022;
},
{
color = 5;
glyphname = "alda-teng";
lastChange = "2022-01-04 13:35:13 +0000";
layers = (
{
anchors = (
{
name = bottom;
position = "{358, 350}";
},
{
name = bottomleft;
position = "{20, -150}";
},
{
name = top;
position = "{320, 400}";
}
);
background = {
paths = (
{
closed = 1;
nodes = (
"580 40 OFFCURVE",
"549 68 OFFCURVE",
"462 68 CURVE SMOOTH",
"270 68 LINE SMOOTH",
"174 68 OFFCURVE",
"144 100 OFFCURVE",
"144 160 CURVE SMOOTH",
"144 222 OFFCURVE",
"185 275 OFFCURVE",
"288 330 CURVE",
"233 336 LINE",
"121 283 OFFCURVE",
"51 217 OFFCURVE",
"51 132 CURVE SMOOTH",
"51 50 OFFCURVE",
"95 -2 OFFCURVE",
"220 -2 CURVE SMOOTH",
"412 -2 LINE SMOOTH",
"468 -2 OFFCURVE",
"487 -22 OFFCURVE",
"487 -58 CURVE SMOOTH",
"487 -122 OFFCURVE",
"424 -165 OFFCURVE",
"345 -165 CURVE SMOOTH",
"285 -165 OFFCURVE",
"263 -144 OFFCURVE",
"250 -82 CURVE",
"247 -81 OFFCURVE",
"243 -81 OFFCURVE",
"240 -81 CURVE SMOOTH",
"208 -81 OFFCURVE",
"164 -99 OFFCURVE",
"164 -144 CURVE SMOOTH",
"164 -185 OFFCURVE",
"198 -217 OFFCURVE",
"276 -217 CURVE SMOOTH",
"431 -217 OFFCURVE",
"580 -117 OFFCURVE",
"580 -15 CURVE SMOOTH"
);
},
{
closed = 1;
nodes = (
"239 319 LINE",
"239 342 LINE",
"212 342 LINE",
"212 319 LINE"
);
},
{
closed = 1;
nodes = (
"89 324 OFFCURVE",
"118 330 OFFCURVE",
"189 330 CURVE SMOOTH",
"456 330 LINE SMOOTH",
"506 330 OFFCURVE",
"547 349 OFFCURVE",
"596 392 CURVE",
"597 393 OFFCURVE",
"597 393 OFFCURVE",
"597 395 CURVE SMOOTH",
"597 403 OFFCURVE",
"587 422 OFFCURVE",
"582 421 CURVE",
"548 406 OFFCURVE",
"519 400 OFFCURVE",
"448 400 CURVE SMOOTH",
"181 400 LINE SMOOTH",
"131 400 OFFCURVE",
"90 381 OFFCURVE",
"41 338 CURVE",
"40 337 OFFCURVE",
"40 337 OFFCURVE",
"40 335 CURVE SMOOTH",
"40 327 OFFCURVE",
"50 308 OFFCURVE",
"55 309 CURVE"
);
}
);
};
layerId = "4397B867-53E7-4964-BB9B-A578920F109C";
paths = (
{
closed = 1;
nodes = (
"411 -217 OFFCURVE",
"560 -117 OFFCURVE",
"560 -15 CURVE SMOOTH",
"560 40 OFFCURVE",
"526 68 OFFCURVE",
"432 68 CURVE SMOOTH",
"255 68 LINE SMOOTH",
"159 68 OFFCURVE",
"129 100 OFFCURVE",
"129 160 CURVE SMOOTH",
"129 222 OFFCURVE",
"174 275 OFFCURVE",
"288 330 CURVE",
"243 336 LINE",
"125 283 OFFCURVE",
"51 217 OFFCURVE",
"51 132 CURVE SMOOTH",
"51 50 OFFCURVE",
"98 -2 OFFCURVE",
"230 -2 CURVE SMOOTH",
"407 -2 LINE SMOOTH",
"463 -2 OFFCURVE",
"482 -22 OFFCURVE",
"482 -58 CURVE SMOOTH",
"482 -123 OFFCURVE",
"413 -168 OFFCURVE",
"326 -168 CURVE SMOOTH",
"265 -168 OFFCURVE",
"243 -147 OFFCURVE",
"230 -82 CURVE",
"226 -81 OFFCURVE",
"222 -81 OFFCURVE",
"220 -81 CURVE SMOOTH",
"186 -81 OFFCURVE",
"149 -100 OFFCURVE",
"149 -143 CURVE SMOOTH",
"149 -184 OFFCURVE",
"182 -217 OFFCURVE",
"256 -217 CURVE SMOOTH"
);
},
{
closed = 1;
nodes = (
"249 319 LINE",
"249 342 LINE",
"222 342 LINE",
"222 319 LINE"
);
},
{
closed = 1;
nodes = (
"78 324 OFFCURVE",
"97 330 OFFCURVE",
"175 330 CURVE SMOOTH",
"436 330 LINE SMOOTH",
"493 330 OFFCURVE",
"540 352 OFFCURVE",
"596 401 CURVE",
"597 404 LINE",
"597 408 OFFCURVE",
"591 420 OFFCURVE",
"586 421 CURVE",
"559 406 OFFCURVE",
"540 400 OFFCURVE",
"462 400 CURVE SMOOTH",
"201 400 LINE SMOOTH",
"144 400 OFFCURVE",
"97 378 OFFCURVE",
"41 329 CURVE",
"40 326 LINE",
"40 322 OFFCURVE",
"46 310 OFFCURVE",
"51 309 CURVE"
);
}
);
width = 610;
},
{
anchors = (
{
name = bottom;
position = "{378, 350}";
},
{
name = bottomleft;
position = "{15, -150}";
},
{
name = top;
position = "{340, 420}";
}
);
background = {
paths = (
{
closed = 1;
nodes = (
"416 -217 OFFCURVE",
"565 -117 OFFCURVE",
"565 -15 CURVE SMOOTH",
"565 40 OFFCURVE",
"531 68 OFFCURVE",
"437 68 CURVE SMOOTH",
"260 68 LINE SMOOTH",
"164 68 OFFCURVE",
"134 100 OFFCURVE",
"134 160 CURVE SMOOTH",
"134 222 OFFCURVE",
"179 275 OFFCURVE",
"293 330 CURVE",
"248 336 LINE",
"130 283 OFFCURVE",
"56 217 OFFCURVE",
"56 132 CURVE SMOOTH",
"56 50 OFFCURVE",
"103 -2 OFFCURVE",
"235 -2 CURVE SMOOTH",
"412 -2 LINE SMOOTH",
"468 -2 OFFCURVE",
"487 -22 OFFCURVE",
"487 -58 CURVE SMOOTH",
"487 -123 OFFCURVE",
"418 -168 OFFCURVE",
"331 -168 CURVE SMOOTH",
"270 -168 OFFCURVE",
"248 -147 OFFCURVE",
"235 -82 CURVE",
"231 -81 OFFCURVE",
"227 -81 OFFCURVE",
"225 -81 CURVE SMOOTH",
"191 -81 OFFCURVE",
"154 -100 OFFCURVE",
"154 -143 CURVE SMOOTH",
"154 -184 OFFCURVE",
"187 -217 OFFCURVE",
"261 -217 CURVE SMOOTH"
);
},
{
closed = 1;
nodes = (
"254 319 LINE",
"254 342 LINE",
"227 342 LINE",
"227 319 LINE"
);
},
{
closed = 1;
nodes = (
"83 324 OFFCURVE",
"102 330 OFFCURVE",
"180 330 CURVE SMOOTH",
"441 330 LINE SMOOTH",
"498 330 OFFCURVE",
"545 352 OFFCURVE",
"601 401 CURVE",
"602 404 LINE",
"602 408 OFFCURVE",
"596 420 OFFCURVE",
"591 421 CURVE",
"564 406 OFFCURVE",
"545 400 OFFCURVE",
"467 400 CURVE SMOOTH",
"206 400 LINE SMOOTH",
"149 400 OFFCURVE",
"102 378 OFFCURVE",
"46 329 CURVE",
"45 326 LINE",
"45 322 OFFCURVE",
"51 310 OFFCURVE",
"56 309 CURVE"
);
}
);
};
layerId = "0ED38B93-C2B0-4B4A-9C6D-D7838A33C317";
paths = (
{
closed = 1;
nodes = (
"426 -231 OFFCURVE",
"585 -119 OFFCURVE",
"585 -5 CURVE SMOOTH",
"585 50 OFFCURVE",
"551 78 OFFCURVE",
"457 78 CURVE SMOOTH",
"280 78 LINE SMOOTH",
"184 78 OFFCURVE",
"154 110 OFFCURVE",
"154 170 CURVE SMOOTH",
"154 227 OFFCURVE",
"194 276 OFFCURVE",
"293 326 CURVE",
"248 332 LINE",
"124 276 OFFCURVE",
"46 207 OFFCURVE",
"46 118 CURVE SMOOTH",
"46 36 OFFCURVE",
"93 -16 OFFCURVE",
"225 -16 CURVE SMOOTH",
"402 -16 LINE SMOOTH",
"458 -16 OFFCURVE",
"477 -36 OFFCURVE",
"477 -72 CURVE SMOOTH",
"477 -137 OFFCURVE",
"419 -182 OFFCURVE",
"347 -182 CURVE SMOOTH",
"289 -182 OFFCURVE",
"267 -156 OFFCURVE",
"255 -76 CURVE",
"247 -75 OFFCURVE",
"239 -75 OFFCURVE",
"235 -75 CURVE SMOOTH",
"191 -75 OFFCURVE",
"144 -100 OFFCURVE",
"144 -157 CURVE SMOOTH",
"144 -198 OFFCURVE",
"180 -231 OFFCURVE",
"261 -231 CURVE SMOOTH"
);
},
{
closed = 1;
nodes = (
"254 315 LINE",
"254 338 LINE",
"227 338 LINE",
"227 315 LINE"
);
},
{
closed = 1;
nodes = (
"73 320 OFFCURVE",
"92 326 OFFCURVE",
"170 326 CURVE SMOOTH",
"431 326 LINE SMOOTH",
"499 326 OFFCURVE",
"555 355 OFFCURVE",
"621 421 CURVE",
"622 424 LINE",
"622 428 OFFCURVE",
"616 440 OFFCURVE",
"611 441 CURVE",
"584 426 OFFCURVE",
"565 420 OFFCURVE",
"487 420 CURVE SMOOTH",
"226 420 LINE SMOOTH",
"158 420 OFFCURVE",
"103 391 OFFCURVE",
"36 325 CURVE",
"35 322 LINE",
"35 318 OFFCURVE",
"41 306 OFFCURVE",
"46 305 CURVE"
);
}
);
width = 630;
}
);
leftMetricsKey = "lambe-teng";
rightMetricsKey = "lambe-teng";
unicode = E023;
},
{
color = 5;
glyphname = "silme-teng";
lastChange = "2022-01-04 15:10:46 +0000";
layers = (
{
anchors = (
{
name = bottom;
position = "{254, 0}";
},
{
name = bottomleft;
position = "{70, 0}";
},
{
name = top;
position = "{204, 520}";
}
);
background = {
paths = (
{
closed = 1;
nodes = (
"361 -12 OFFCURVE",
"468 99 OFFCURVE",
"468 207 CURVE SMOOTH",
"468 272 OFFCURVE",
"437 321 OFFCURVE",
"385 321 CURVE SMOOTH",
"351 321 OFFCURVE",
"328 298 OFFCURVE",
"320 273 CURVE",
"368 245 OFFCURVE",
"394 210 OFFCURVE",
"394 157 CURVE SMOOTH",
"394 83 OFFCURVE",
"349 39 OFFCURVE",
"275 39 CURVE SMOOTH",
"181 39 OFFCURVE",
"128 101 OFFCURVE",
"128 192 CURVE SMOOTH",
"128 364 OFFCURVE",
"429 475 OFFCURVE",
"429 643 CURVE SMOOTH",
"429 691 OFFCURVE",
"410 712 OFFCURVE",
"384 712 CURVE SMOOTH",
"355 712 OFFCURVE",
"327 685 OFFCURVE",
"318 657 CURVE",
"332 645 OFFCURVE",
"341 627 OFFCURVE",
"341 594 CURVE SMOOTH",
"341 430 OFFCURVE",
"50 348 OFFCURVE",
"50 152 CURVE SMOOTH",
"50 59 OFFCURVE",
"108 -12 OFFCURVE",
"216 -12 CURVE SMOOTH"
);
}
);
};
layerId = "4397B867-53E7-4964-BB9B-A578920F109C";
paths = (
{
closed = 1;
nodes = (
"353 -12 OFFCURVE",
"458 99 OFFCURVE",
"458 207 CURVE SMOOTH",
"458 272 OFFCURVE",
"427 321 OFFCURVE",
"375 321 CURVE SMOOTH",
"341 321 OFFCURVE",
"318 298 OFFCURVE",
"310 273 CURVE",
"358 245 OFFCURVE",
"384 210 OFFCURVE",
"384 157 CURVE SMOOTH",
"384 83 OFFCURVE",
"341 39 OFFCURVE",
"269 39 CURVE SMOOTH",
"179 39 OFFCURVE",
"128 101 OFFCURVE",
"128 192 CURVE SMOOTH",
"128 298 OFFCURVE",
"190 390 OFFCURVE",
"474 616 CURVE",
"474 621 OFFCURVE",
"465 634 OFFCURVE",
"460 635 CURVE",
"125 387 OFFCURVE",
"50 305 OFFCURVE",
"50 162 CURVE SMOOTH",
"50 63 OFFCURVE",
"106 -12 OFFCURVE",
"210 -12 CURVE SMOOTH"
);
}
);
width = 498;
},
{
anchors = (
{
name = bottom;
position = "{254, 0}";
},
{
name = bottomleft;
position = "{20, 0}";
},
{
name = top;
position = "{124, 400}";
}
);
associatedMasterId = "4397B867-53E7-4964-BB9B-A578920F109C";
background = {
paths = (
{
closed = 1;
nodes = (
"278 427 OFFCURVE",
"50 336 OFFCURVE",
"50 152 CURVE SMOOTH",
"50 59 OFFCURVE",
"108 -12 OFFCURVE",
"216 -12 CURVE SMOOTH",
"361 -12 OFFCURVE",
"468 99 OFFCURVE",
"468 207 CURVE SMOOTH",
"468 272 OFFCURVE",
"437 321 OFFCURVE",
"385 321 CURVE SMOOTH",
"344 321 OFFCURVE",
"317 292 OFFCURVE",
"307 262 CURVE",
"356 234 OFFCURVE",
"383 194 OFFCURVE",
"383 147 CURVE SMOOTH",
"383 82 OFFCURVE",
"341 45 OFFCURVE",
"271 45 CURVE SMOOTH",
"190 45 OFFCURVE",
"143 100 OFFCURVE",
"143 182 CURVE SMOOTH",
"143 348 OFFCURVE",
"369 481 OFFCURVE",
"369 643 CURVE SMOOTH",
"369 691 OFFCURVE",
"354 712 OFFCURVE",
"330 712 CURVE SMOOTH",
"297 712 OFFCURVE",
"266 681 OFFCURVE",
"255 652 CURVE",
"269 640 OFFCURVE",
"278 622 OFFCURVE",
"278 589 CURVE SMOOTH"
);
}
);
};
layerId = "4B8B9674-85C4-4CBB-A2C6-F9777ADACD66";
name = "Regular May 31 15, 23:00";
paths = (
{
closed = 1;
nodes = (
"361 -12 OFFCURVE",
"468 99 OFFCURVE",
"468 207 CURVE SMOOTH",
"468 272 OFFCURVE",
"437 321 OFFCURVE",
"385 321 CURVE SMOOTH",
"351 321 OFFCURVE",
"328 298 OFFCURVE",
"320 273 CURVE",
"368 245 OFFCURVE",
"394 210 OFFCURVE",
"394 157 CURVE SMOOTH",
"394 83 OFFCURVE",
"349 39 OFFCURVE",
"275 39 CURVE SMOOTH",
"181 39 OFFCURVE",
"128 101 OFFCURVE",
"128 192 CURVE SMOOTH",
"128 364 OFFCURVE",
"429 475 OFFCURVE",
"429 643 CURVE SMOOTH",
"429 691 OFFCURVE",
"410 712 OFFCURVE",
"384 712 CURVE SMOOTH",
"355 712 OFFCURVE",
"327 685 OFFCURVE",
"318 657 CURVE",
"332 645 OFFCURVE",
"341 627 OFFCURVE",
"341 594 CURVE SMOOTH",
"341 430 OFFCURVE",
"50 348 OFFCURVE",
"50 152 CURVE SMOOTH",
"50 59 OFFCURVE",
"108 -12 OFFCURVE",
"216 -12 CURVE SMOOTH"
);
}
);
width = 508;
},
{
anchors = (
{
name = bottom;
position = "{249, 0}";
},
{
name = bottomleft;
position = "{65, 0}";
},
{
name = top;
position = "{209, 540}";
}
);
background = {
paths = (
{
closed = 1;
nodes = (
"348 -12 OFFCURVE",
"453 99 OFFCURVE",
"453 207 CURVE SMOOTH",
"453 272 OFFCURVE",
"422 321 OFFCURVE",
"370 321 CURVE SMOOTH",
"336 321 OFFCURVE",
"313 298 OFFCURVE",
"305 273 CURVE",
"353 245 OFFCURVE",
"379 210 OFFCURVE",
"379 157 CURVE SMOOTH",
"379 83 OFFCURVE",
"336 39 OFFCURVE",
"264 39 CURVE SMOOTH",
"174 39 OFFCURVE",
"123 101 OFFCURVE",
"123 192 CURVE SMOOTH",
"123 298 OFFCURVE",
"185 390 OFFCURVE",
"469 616 CURVE",
"469 621 OFFCURVE",
"460 634 OFFCURVE",
"455 635 CURVE",
"120 387 OFFCURVE",
"45 305 OFFCURVE",
"45 162 CURVE SMOOTH",
"45 63 OFFCURVE",
"101 -12 OFFCURVE",
"205 -12 CURVE SMOOTH"
);
}
);
};
layerId = "0ED38B93-C2B0-4B4A-9C6D-D7838A33C317";
paths = (
{
closed = 1;
nodes = (
"350 -12 OFFCURVE",
"473 109 OFFCURVE",
"473 227 CURVE SMOOTH",
"473 292 OFFCURVE",
"438 341 OFFCURVE",
"380 341 CURVE SMOOTH",
"336 341 OFFCURVE",
"305 313 OFFCURVE",
"295 283 CURVE",
"349 253 OFFCURVE",
"379 215 OFFCURVE",
"379 157 CURVE SMOOTH",
"379 96 OFFCURVE",
"343 59 OFFCURVE",
"284 59 CURVE SMOOTH",
"194 59 OFFCURVE",
"143 121 OFFCURVE",
"143 212 CURVE SMOOTH",
"143 318 OFFCURVE",
"205 410 OFFCURVE",
"489 636 CURVE",
"489 641 OFFCURVE",
"480 654 OFFCURVE",
"475 655 CURVE",
"124 397 OFFCURVE",
"45 311 OFFCURVE",
"45 162 CURVE SMOOTH",
"45 63 OFFCURVE",
"101 -12 OFFCURVE",
"205 -12 CURVE SMOOTH"
);
}
);
width = 508;
},
{
anchors = (
{
name = bottom;
position = "{254, 0}";
},
{
name = bottomleft;
position = "{20, 0}";
},
{
name = top;
position = "{124, 400}";
}
);
associatedMasterId = "0ED38B93-C2B0-4B4A-9C6D-D7838A33C317";
background = {
paths = (
{
closed = 1;
nodes = (
"278 427 OFFCURVE",
"50 336 OFFCURVE",
"50 152 CURVE SMOOTH",
"50 59 OFFCURVE",
"108 -12 OFFCURVE",
"216 -12 CURVE SMOOTH",
"361 -12 OFFCURVE",
"468 99 OFFCURVE",
"468 207 CURVE SMOOTH",
"468 272 OFFCURVE",
"437 321 OFFCURVE",
"385 321 CURVE SMOOTH",
"344 321 OFFCURVE",
"317 292 OFFCURVE",
"307 262 CURVE",
"356 234 OFFCURVE",
"383 194 OFFCURVE",
"383 147 CURVE SMOOTH",
"383 82 OFFCURVE",
"341 45 OFFCURVE",
"271 45 CURVE SMOOTH",
"190 45 OFFCURVE",
"143 100 OFFCURVE",
"143 182 CURVE SMOOTH",
"143 348 OFFCURVE",
"369 481 OFFCURVE",
"369 643 CURVE SMOOTH",
"369 691 OFFCURVE",
"354 712 OFFCURVE",
"330 712 CURVE SMOOTH",
"297 712 OFFCURVE",
"266 681 OFFCURVE",
"255 652 CURVE",
"269 640 OFFCURVE",
"278 622 OFFCURVE",
"278 589 CURVE SMOOTH"
);
}
);
};
layerId = "D7D0C42F-09E3-423B-8AB0-02E6BB198A0A";
name = "Regular May 31 15, 23:00";
paths = (
{
closed = 1;
nodes = (
"361 -12 OFFCURVE",
"468 99 OFFCURVE",
"468 207 CURVE SMOOTH",
"468 272 OFFCURVE",
"437 321 OFFCURVE",
"385 321 CURVE SMOOTH",
"351 321 OFFCURVE",
"328 298 OFFCURVE",
"320 273 CURVE",
"368 245 OFFCURVE",
"394 210 OFFCURVE",
"394 157 CURVE SMOOTH",
"394 83 OFFCURVE",
"349 39 OFFCURVE",
"275 39 CURVE SMOOTH",
"181 39 OFFCURVE",
"128 101 OFFCURVE",
"128 192 CURVE SMOOTH",
"128 364 OFFCURVE",
"429 475 OFFCURVE",
"429 643 CURVE SMOOTH",
"429 691 OFFCURVE",
"410 712 OFFCURVE",
"384 712 CURVE SMOOTH",
"355 712 OFFCURVE",
"327 685 OFFCURVE",
"318 657 CURVE",
"332 645 OFFCURVE",
"341 627 OFFCURVE",
"341 594 CURVE SMOOTH",
"341 430 OFFCURVE",
"50 348 OFFCURVE",
"50 152 CURVE SMOOTH",
"50 59 OFFCURVE",
"108 -12 OFFCURVE",
"216 -12 CURVE SMOOTH"
);
}
);
width = 508;
}
);
unicode = E024;
},
{
color = 5;
glyphname = "aare-teng";
lastChange = "2022-01-04 13:37:27 +0000";
layers = (
{
anchors = (
{
name = bottom;
position = "{236, -190}";
},
{
name = bottomleft;
position = "{-60, -150}";
},
{
name = top;
position = "{188, 520}";
}
);
background = {
paths = (
{
closed = 1;
nodes = (
"291 102 OFFCURVE",
"340 145 OFFCURVE",
"380 208 CURVE",
"379 213 OFFCURVE",
"366 222 OFFCURVE",
"361 222 CURVE",
"335 183 OFFCURVE",
"295 159 OFFCURVE",
"253 159 CURVE SMOOTH",
"184 159 OFFCURVE",
"159 201 OFFCURVE",
"159 262 CURVE SMOOTH",
"159 409 OFFCURVE",
"370 510 OFFCURVE",
"370 643 CURVE SMOOTH",
"370 691 OFFCURVE",
"351 712 OFFCURVE",
"324 712 CURVE SMOOTH",
"293 712 OFFCURVE",
"264 684 OFFCURVE",
"253 659 CURVE",
"269 645 OFFCURVE",
"279 625 OFFCURVE",
"279 589 CURVE SMOOTH",
"279 449 OFFCURVE",
"81 383 OFFCURVE",
"81 232 CURVE SMOOTH",
"81 158 OFFCURVE",
"126 102 OFFCURVE",
"209 102 CURVE SMOOTH"
);
},
{
closed = 1;
nodes = (
"330 -202 OFFCURVE",
"431 -101 OFFCURVE",
"431 -2 CURVE SMOOTH",
"431 41 OFFCURVE",
"411 75 OFFCURVE",
"378 75 CURVE SMOOTH",
"344 75 OFFCURVE",
"322 53 OFFCURVE",
"313 30 CURVE",
"340 8 OFFCURVE",
"356 -21 OFFCURVE",
"356 -57 CURVE SMOOTH",
"356 -117 OFFCURVE",
"315 -152 OFFCURVE",
"245 -152 CURVE SMOOTH",
"155 -152 OFFCURVE",
"103 -94 OFFCURVE",
"103 -8 CURVE SMOOTH",
"103 44 OFFCURVE",
"121 78 OFFCURVE",
"164 112 CURVE",
"144 127 LINE",
"60 77 OFFCURVE",
"25 21 OFFCURVE",
"25 -48 CURVE SMOOTH",
"25 -135 OFFCURVE",
"84 -202 OFFCURVE",
"193 -202 CURVE SMOOTH"
);
}
);
};
layerId = "4397B867-53E7-4964-BB9B-A578920F109C";
paths = (
{
closed = 1;
nodes = (
"291 102 OFFCURVE",
"340 145 OFFCURVE",
"380 208 CURVE",
"379 213 OFFCURVE",
"366 222 OFFCURVE",
"361 222 CURVE",
"335 183 OFFCURVE",
"295 159 OFFCURVE",
"253 159 CURVE SMOOTH",
"184 159 OFFCURVE",
"159 201 OFFCURVE",
"159 262 CURVE SMOOTH",
"159 348 OFFCURVE",
"217 423 OFFCURVE",
"419 591 CURVE",
"419 596 OFFCURVE",
"410 608 OFFCURVE",
"405 609 CURVE",
"181 450 OFFCURVE",
"81 355 OFFCURVE",
"81 236 CURVE SMOOTH",
"81 160 OFFCURVE",
"126 102 OFFCURVE",
"209 102 CURVE SMOOTH"
);
},
{
closed = 1;
nodes = (
"330 -202 OFFCURVE",
"431 -101 OFFCURVE",
"431 -2 CURVE SMOOTH",
"431 41 OFFCURVE",
"411 75 OFFCURVE",
"378 75 CURVE SMOOTH",
"344 75 OFFCURVE",
"322 53 OFFCURVE",
"313 30 CURVE",
"340 8 OFFCURVE",
"356 -21 OFFCURVE",
"356 -57 CURVE SMOOTH",
"356 -117 OFFCURVE",
"315 -152 OFFCURVE",
"245 -152 CURVE SMOOTH",
"155 -152 OFFCURVE",
"103 -94 OFFCURVE",
"103 -8 CURVE SMOOTH",
"103 44 OFFCURVE",
"121 78 OFFCURVE",
"164 112 CURVE",
"144 127 LINE",
"60 77 OFFCURVE",
"25 21 OFFCURVE",
"25 -48 CURVE SMOOTH",
"25 -135 OFFCURVE",
"84 -202 OFFCURVE",
"193 -202 CURVE SMOOTH"
);
}
);
width = 461;
},
{
anchors = (
{
name = bottom;
position = "{236, -180}";
},
{
name = bottomleft;
position = "{20, 0}";
},
{
name = top;
position = "{236, 400}";
}
);
associatedMasterId = "4397B867-53E7-4964-BB9B-A578920F109C";
background = {
paths = (
{
closed = 1;
nodes = (
"259 453 OFFCURVE",
"81 377 OFFCURVE",
"81 222 CURVE SMOOTH",
"81 148 OFFCURVE",
"126 92 OFFCURVE",
"209 92 CURVE SMOOTH",
"295 92 OFFCURVE",
"344 135 OFFCURVE",
"380 198 CURVE",
"382 205 OFFCURVE",
"364 218 OFFCURVE",
"358 215 CURVE",
"334 180 OFFCURVE",
"297 159 OFFCURVE",
"258 159 CURVE SMOOTH",
"192 159 OFFCURVE",
"168 197 OFFCURVE",
"168 252 CURVE SMOOTH",
"168 393 OFFCURVE",
"350 506 OFFCURVE",
"350 643 CURVE SMOOTH",
"350 691 OFFCURVE",
"335 712 OFFCURVE",
"311 712 CURVE SMOOTH",
"278 712 OFFCURVE",
"247 681 OFFCURVE",
"236 652 CURVE",
"250 640 OFFCURVE",
"259 622 OFFCURVE",
"259 589 CURVE SMOOTH"
);
},
{
closed = 1;
nodes = (
"25 -151 OFFCURVE",
"87 -222 OFFCURVE",
"203 -222 CURVE SMOOTH",
"348 -222 OFFCURVE",
"455 -116 OFFCURVE",
"455 -12 CURVE SMOOTH",
"455 31 OFFCURVE",
"435 65 OFFCURVE",
"402 65 CURVE SMOOTH",
"361 65 OFFCURVE",
"334 36 OFFCURVE",
"324 6 CURVE",
"353 -13 OFFCURVE",
"370 -41 OFFCURVE",
"370 -72 CURVE SMOOTH",
"370 -131 OFFCURVE",
"328 -165 OFFCURVE",
"258 -165 CURVE SMOOTH",
"169 -165 OFFCURVE",
"118 -110 OFFCURVE",
"118 -28 CURVE SMOOTH",
"118 25 OFFCURVE",
"134 61 OFFCURVE",
"171 102 CURVE",
"144 117 LINE",
"60 67 OFFCURVE",
"25 11 OFFCURVE",
"25 -58 CURVE SMOOTH"
);
}
);
};
layerId = "D9AAC3A0-7E0D-4321-96A6-F294B30A06EA";
name = "Regular May 31 15, 23:00";
paths = (
{
closed = 1;
nodes = (
"291 102 OFFCURVE",
"340 145 OFFCURVE",
"380 208 CURVE",
"379 213 OFFCURVE",
"366 222 OFFCURVE",
"361 222 CURVE",
"335 183 OFFCURVE",
"295 159 OFFCURVE",
"253 159 CURVE SMOOTH",
"184 159 OFFCURVE",
"159 201 OFFCURVE",
"159 262 CURVE SMOOTH",
"159 409 OFFCURVE",
"370 510 OFFCURVE",
"370 643 CURVE SMOOTH",
"370 691 OFFCURVE",
"351 712 OFFCURVE",
"324 712 CURVE SMOOTH",
"293 712 OFFCURVE",
"264 684 OFFCURVE",
"253 659 CURVE",
"269 645 OFFCURVE",
"279 625 OFFCURVE",
"279 589 CURVE SMOOTH",
"279 449 OFFCURVE",
"81 383 OFFCURVE",
"81 232 CURVE SMOOTH",
"81 158 OFFCURVE",
"126 102 OFFCURVE",
"209 102 CURVE SMOOTH"
);
},
{
closed = 1;
nodes = (
"330 -202 OFFCURVE",
"431 -101 OFFCURVE",
"431 -2 CURVE SMOOTH",
"431 41 OFFCURVE",
"411 75 OFFCURVE",
"378 75 CURVE SMOOTH",
"344 75 OFFCURVE",
"322 53 OFFCURVE",
"313 30 CURVE",
"340 8 OFFCURVE",
"356 -21 OFFCURVE",
"356 -57 CURVE SMOOTH",
"356 -117 OFFCURVE",
"315 -152 OFFCURVE",
"245 -152 CURVE SMOOTH",
"155 -152 OFFCURVE",
"103 -94 OFFCURVE",
"103 -8 CURVE SMOOTH",
"103 44 OFFCURVE",
"121 78 OFFCURVE",
"164 112 CURVE",
"144 127 LINE",
"60 77 OFFCURVE",
"25 21 OFFCURVE",
"25 -48 CURVE SMOOTH",
"25 -135 OFFCURVE",
"84 -202 OFFCURVE",
"193 -202 CURVE SMOOTH"
);
}
);
width = 471;
},
{
anchors = (
{
name = bottom;
position = "{237, -196}";
},
{
name = bottomleft;
position = "{-35, -150}";
},
{
name = top;
position = "{203, 540}";
}
);
background = {
paths = (
{
closed = 1;
nodes = (
"292 102 OFFCURVE",
"341 145 OFFCURVE",
"381 208 CURVE",
"380 213 OFFCURVE",
"367 222 OFFCURVE",
"362 222 CURVE",
"336 183 OFFCURVE",
"296 159 OFFCURVE",
"254 159 CURVE SMOOTH",
"185 159 OFFCURVE",
"160 201 OFFCURVE",
"160 262 CURVE SMOOTH",
"160 348 OFFCURVE",
"218 423 OFFCURVE",
"420 591 CURVE",
"420 596 OFFCURVE",
"411 608 OFFCURVE",
"406 609 CURVE",
"182 450 OFFCURVE",
"82 355 OFFCURVE",
"82 236 CURVE SMOOTH",
"82 160 OFFCURVE",
"127 102 OFFCURVE",
"210 102 CURVE SMOOTH"
);
},
{
closed = 1;
nodes = (
"331 -202 OFFCURVE",
"432 -101 OFFCURVE",
"432 -2 CURVE SMOOTH",
"432 41 OFFCURVE",
"412 75 OFFCURVE",
"379 75 CURVE SMOOTH",
"345 75 OFFCURVE",
"323 53 OFFCURVE",
"314 30 CURVE",
"341 8 OFFCURVE",
"357 -21 OFFCURVE",
"357 -57 CURVE SMOOTH",
"357 -117 OFFCURVE",
"316 -152 OFFCURVE",
"246 -152 CURVE SMOOTH",
"156 -152 OFFCURVE",
"104 -94 OFFCURVE",
"104 -8 CURVE SMOOTH",
"104 44 OFFCURVE",
"122 78 OFFCURVE",
"165 112 CURVE",
"145 127 LINE",
"61 77 OFFCURVE",
"26 21 OFFCURVE",
"26 -48 CURVE SMOOTH",
"26 -135 OFFCURVE",
"85 -202 OFFCURVE",
"194 -202 CURVE SMOOTH"
);
}
);
};
layerId = "0ED38B93-C2B0-4B4A-9C6D-D7838A33C317";
paths = (
{
closed = 1;
nodes = (
"299 96 OFFCURVE",
"355 149 OFFCURVE",
"401 228 CURVE",
"400 233 OFFCURVE",
"387 242 OFFCURVE",
"382 242 CURVE",
"356 203 OFFCURVE",
"316 179 OFFCURVE",
"274 179 CURVE SMOOTH",
"205 179 OFFCURVE",
"180 221 OFFCURVE",
"180 282 CURVE SMOOTH",
"180 368 OFFCURVE",
"238 443 OFFCURVE",
"440 611 CURVE",
"440 616 OFFCURVE",
"431 628 OFFCURVE",
"426 629 CURVE",
"184 458 OFFCURVE",
"76 357 OFFCURVE",
"76 230 CURVE SMOOTH",
"76 154 OFFCURVE",
"121 96 OFFCURVE",
"204 96 CURVE SMOOTH"
);
},
{
closed = 1;
nodes = (
"340 -208 OFFCURVE",
"452 -94 OFFCURVE",
"452 18 CURVE SMOOTH",
"452 61 OFFCURVE",
"430 95 OFFCURVE",
"393 95 CURVE SMOOTH",
"352 95 OFFCURVE",
"325 68 OFFCURVE",
"314 40 CURVE",
"344 16 OFFCURVE",
"361 -15 OFFCURVE",
"361 -54 CURVE SMOOTH",
"361 -107 OFFCURVE",
"327 -139 OFFCURVE",
"270 -139 CURVE SMOOTH",
"178 -139 OFFCURVE",
"124 -78 OFFCURVE",
"124 12 CURVE SMOOTH",
"124 55 OFFCURVE",
"136 84 OFFCURVE",
"165 112 CURVE",
"145 127 LINE",
"57 75 OFFCURVE",
"20 17 OFFCURVE",
"20 -54 CURVE SMOOTH",
"20 -141 OFFCURVE",
"79 -208 OFFCURVE",
"188 -208 CURVE SMOOTH"
);
}
);
width = 477;
},
{
anchors = (
{
name = bottom;
position = "{236, -180}";
},
{
name = bottomleft;
position = "{20, 0}";
},
{
name = top;
position = "{236, 400}";
}
);
associatedMasterId = "0ED38B93-C2B0-4B4A-9C6D-D7838A33C317";
background = {
paths = (
{
closed = 1;
nodes = (
"259 453 OFFCURVE",
"81 377 OFFCURVE",
"81 222 CURVE SMOOTH",
"81 148 OFFCURVE",
"126 92 OFFCURVE",
"209 92 CURVE SMOOTH",
"295 92 OFFCURVE",
"344 135 OFFCURVE",
"380 198 CURVE",
"382 205 OFFCURVE",
"364 218 OFFCURVE",
"358 215 CURVE",
"334 180 OFFCURVE",
"297 159 OFFCURVE",
"258 159 CURVE SMOOTH",
"192 159 OFFCURVE",
"168 197 OFFCURVE",
"168 252 CURVE SMOOTH",
"168 393 OFFCURVE",
"350 506 OFFCURVE",
"350 643 CURVE SMOOTH",
"350 691 OFFCURVE",
"335 712 OFFCURVE",
"311 712 CURVE SMOOTH",
"278 712 OFFCURVE",
"247 681 OFFCURVE",
"236 652 CURVE",
"250 640 OFFCURVE",
"259 622 OFFCURVE",
"259 589 CURVE SMOOTH"
);
},
{
closed = 1;
nodes = (
"25 -151 OFFCURVE",
"87 -222 OFFCURVE",
"203 -222 CURVE SMOOTH",
"348 -222 OFFCURVE",
"455 -116 OFFCURVE",
"455 -12 CURVE SMOOTH",
"455 31 OFFCURVE",
"435 65 OFFCURVE",
"402 65 CURVE SMOOTH",
"361 65 OFFCURVE",
"334 36 OFFCURVE",
"324 6 CURVE",
"353 -13 OFFCURVE",
"370 -41 OFFCURVE",
"370 -72 CURVE SMOOTH",
"370 -131 OFFCURVE",
"328 -165 OFFCURVE",
"258 -165 CURVE SMOOTH",
"169 -165 OFFCURVE",
"118 -110 OFFCURVE",
"118 -28 CURVE SMOOTH",
"118 25 OFFCURVE",
"134 61 OFFCURVE",
"171 102 CURVE",
"144 117 LINE",
"60 67 OFFCURVE",
"25 11 OFFCURVE",
"25 -58 CURVE SMOOTH"
);
}
);
};
layerId = "C691AEAB-198D-45A3-B093-07E0213EE5DC";
name = "Regular May 31 15, 23:00";
paths = (
{
closed = 1;
nodes = (
"291 102 OFFCURVE",
"340 145 OFFCURVE",
"380 208 CURVE",
"379 213 OFFCURVE",
"366 222 OFFCURVE",
"361 222 CURVE",
"335 183 OFFCURVE",
"295 159 OFFCURVE",
"253 159 CURVE SMOOTH",
"184 159 OFFCURVE",
"159 201 OFFCURVE",
"159 262 CURVE SMOOTH",
"159 409 OFFCURVE",
"370 510 OFFCURVE",
"370 643 CURVE SMOOTH",
"370 691 OFFCURVE",
"351 712 OFFCURVE",
"324 712 CURVE SMOOTH",
"293 712 OFFCURVE",
"264 684 OFFCURVE",
"253 659 CURVE",
"269 645 OFFCURVE",
"279 625 OFFCURVE",
"279 589 CURVE SMOOTH",
"279 449 OFFCURVE",
"81 383 OFFCURVE",
"81 232 CURVE SMOOTH",
"81 158 OFFCURVE",
"126 102 OFFCURVE",
"209 102 CURVE SMOOTH"
);
},
{
closed = 1;
nodes = (
"330 -202 OFFCURVE",
"431 -101 OFFCURVE",
"431 -2 CURVE SMOOTH",
"431 41 OFFCURVE",
"411 75 OFFCURVE",
"378 75 CURVE SMOOTH",
"344 75 OFFCURVE",
"322 53 OFFCURVE",
"313 30 CURVE",
"340 8 OFFCURVE",
"356 -21 OFFCURVE",
"356 -57 CURVE SMOOTH",
"356 -117 OFFCURVE",
"315 -152 OFFCURVE",
"245 -152 CURVE SMOOTH",
"155 -152 OFFCURVE",
"103 -94 OFFCURVE",
"103 -8 CURVE SMOOTH",
"103 44 OFFCURVE",
"121 78 OFFCURVE",
"164 112 CURVE",
"144 127 LINE",
"60 77 OFFCURVE",
"25 21 OFFCURVE",
"25 -48 CURVE SMOOTH",
"25 -135 OFFCURVE",
"84 -202 OFFCURVE",
"193 -202 CURVE SMOOTH"
);
}
);
width = 471;
}
);
unicode = E026;
},
{
color = 5;
glyphname = "aareturned-teng";
lastChange = "2022-01-04 13:37:52 +0000";
layers = (
{
anchors = (
{
name = bottom;
position = "{143, 60}";
},
{
name = bottomleft;
position = "{10, 20}";
},
{
name = top;
position = "{243, 400}";
}
);
background = {
paths = (
{
closed = 1;
nodes = (
"314 -215 OFFCURVE",
"426 -116 OFFCURVE",
"426 16 CURVE SMOOTH",
"426 93 OFFCURVE",
"378 152 OFFCURVE",
"290 152 CURVE SMOOTH",
"216 152 OFFCURVE",
"166 107 OFFCURVE",
"129 46 CURVE",
"127 39 OFFCURVE",
"145 26 OFFCURVE",
"151 29 CURVE",
"175 62 OFFCURVE",
"208 85 OFFCURVE",
"244 85 CURVE SMOOTH",
"306 85 OFFCURVE",
"339 49 OFFCURVE",
"339 -14 CURVE SMOOTH",
"339 -112 OFFCURVE",
"272 -194 OFFCURVE",
"124 -290 CURVE",
"121 -294 OFFCURVE",
"133 -313 OFFCURVE",
"138 -312 CURVE"
);
},
{
closed = 1;
nodes = (
"410 359 OFFCURVE",
"354 412 OFFCURVE",
"251 412 CURVE SMOOTH",
"121 412 OFFCURVE",
"20 307 OFFCURVE",
"20 212 CURVE SMOOTH",
"20 175 OFFCURVE",
"40 145 OFFCURVE",
"73 145 CURVE SMOOTH",
"114 145 OFFCURVE",
"141 174 OFFCURVE",
"151 204 CURVE",
"122 221 OFFCURVE",
"105 245 OFFCURVE",
"105 272 CURVE SMOOTH",
"105 321 OFFCURVE",
"137 355 OFFCURVE",
"205 355 CURVE SMOOTH",
"276 355 OFFCURVE",
"317 316 OFFCURVE",
"317 258 CURVE SMOOTH",
"317 213 OFFCURVE",
"304 183 OFFCURVE",
"274 148 CURVE",
"301 133 LINE",
"378 177 OFFCURVE",
"410 227 OFFCURVE",
"410 288 CURVE SMOOTH"
);
}
);
};
layerId = "4397B867-53E7-4964-BB9B-A578920F109C";
paths = (
{
closed = 1;
nodes = (
"301 -213 OFFCURVE",
"425 -112 OFFCURVE",
"425 23 CURVE SMOOTH",
"425 94 OFFCURVE",
"377 149 OFFCURVE",
"289 149 CURVE SMOOTH",
"220 149 OFFCURVE",
"168 107 OFFCURVE",
"127 50 CURVE",
"128 45 OFFCURVE",
"140 35 OFFCURVE",
"145 35 CURVE",
"176 70 OFFCURVE",
"212 91 OFFCURVE",
"250 91 CURVE SMOOTH",
"314 91 OFFCURVE",
"350 55 OFFCURVE",
"350 -7 CURVE SMOOTH",
"350 -109 OFFCURVE",
"270 -193 OFFCURVE",
"94 -292 CURVE",
"94 -297 OFFCURVE",
"102 -311 OFFCURVE",
"106 -312 CURVE"
);
},
{
closed = 1;
nodes = (
"375 174 OFFCURVE",
"410 221 OFFCURVE",
"410 278 CURVE SMOOTH",
"410 355 OFFCURVE",
"354 412 OFFCURVE",
"251 412 CURVE SMOOTH",
"126 412 OFFCURVE",
"29 309 OFFCURVE",
"29 216 CURVE SMOOTH",
"29 179 OFFCURVE",
"49 149 OFFCURVE",
"82 149 CURVE SMOOTH",
"112 149 OFFCURVE",
"132 169 OFFCURVE",
"139 189 CURVE",
"112 208 OFFCURVE",
"96 235 OFFCURVE",
"96 266 CURVE SMOOTH",
"96 322 OFFCURVE",
"133 361 OFFCURVE",
"212 361 CURVE SMOOTH",
"288 361 OFFCURVE",
"332 320 OFFCURVE",
"332 258 CURVE SMOOTH",
"332 213 OFFCURVE",
"314 183 OFFCURVE",
"274 148 CURVE",
"291 133 LINE"
);
}
);
width = 475;
},
{
anchors = (
{
name = bottom;
position = "{138, 60}";
},
{
name = bottomleft;
position = "{5, 30}";
},
{
name = top;
position = "{248, 420}";
}
);
background = {
paths = (
{
closed = 1;
nodes = (
"296 -213 OFFCURVE",
"420 -112 OFFCURVE",
"420 23 CURVE SMOOTH",
"420 94 OFFCURVE",
"372 149 OFFCURVE",
"284 149 CURVE SMOOTH",
"215 149 OFFCURVE",
"163 107 OFFCURVE",
"122 50 CURVE",
"123 45 OFFCURVE",
"135 35 OFFCURVE",
"140 35 CURVE",
"171 70 OFFCURVE",
"207 91 OFFCURVE",
"245 91 CURVE SMOOTH",
"309 91 OFFCURVE",
"345 55 OFFCURVE",
"345 -7 CURVE SMOOTH",
"345 -109 OFFCURVE",
"265 -193 OFFCURVE",
"89 -292 CURVE",
"89 -297 OFFCURVE",
"97 -311 OFFCURVE",
"101 -312 CURVE"
);
},
{
closed = 1;
nodes = (
"370 174 OFFCURVE",
"405 221 OFFCURVE",
"405 278 CURVE SMOOTH",
"405 355 OFFCURVE",
"349 412 OFFCURVE",
"246 412 CURVE SMOOTH",
"121 412 OFFCURVE",
"24 309 OFFCURVE",
"24 216 CURVE SMOOTH",
"24 179 OFFCURVE",
"44 149 OFFCURVE",
"77 149 CURVE SMOOTH",
"107 149 OFFCURVE",
"127 169 OFFCURVE",
"134 189 CURVE",
"107 208 OFFCURVE",
"91 235 OFFCURVE",
"91 266 CURVE SMOOTH",
"91 322 OFFCURVE",
"128 361 OFFCURVE",
"207 361 CURVE SMOOTH",
"283 361 OFFCURVE",
"327 320 OFFCURVE",
"327 258 CURVE SMOOTH",
"327 213 OFFCURVE",
"309 183 OFFCURVE",
"269 148 CURVE",
"286 133 LINE"
);
}
);
};
layerId = "0ED38B93-C2B0-4B4A-9C6D-D7838A33C317";
paths = (
{
closed = 1;
nodes = (
"308 -207 OFFCURVE",
"440 -100 OFFCURVE",
"440 43 CURVE SMOOTH",
"440 114 OFFCURVE",
"392 169 OFFCURVE",
"304 169 CURVE SMOOTH",
"226 169 OFFCURVE",
"168 119 OFFCURVE",
"122 50 CURVE",
"123 45 OFFCURVE",
"135 35 OFFCURVE",
"140 35 CURVE",
"169 67 OFFCURVE",
"203 86 OFFCURVE",
"238 86 CURVE SMOOTH",
"302 86 OFFCURVE",
"338 50 OFFCURVE",
"338 -12 CURVE SMOOTH",
"338 -112 OFFCURVE",
"260 -195 OFFCURVE",
"89 -292 CURVE",
"89 -297 OFFCURVE",
"97 -311 OFFCURVE",
"101 -312 CURVE"
);
},
{
closed = 1;
nodes = (
"388 193 OFFCURVE",
"425 240 OFFCURVE",
"425 298 CURVE SMOOTH",
"425 375 OFFCURVE",
"369 432 OFFCURVE",
"266 432 CURVE SMOOTH",
"130 432 OFFCURVE",
"24 318 OFFCURVE",
"24 216 CURVE SMOOTH",
"24 179 OFFCURVE",
"44 149 OFFCURVE",
"77 149 CURVE SMOOTH",
"122 149 OFFCURVE",
"151 182 OFFCURVE",
"161 214 CURVE",
"131 234 OFFCURVE",
"113 263 OFFCURVE",
"113 295 CURVE SMOOTH",
"113 334 OFFCURVE",
"140 360 OFFCURVE",
"196 360 CURVE SMOOTH",
"274 360 OFFCURVE",
"320 318 OFFCURVE",
"320 253 CURVE SMOOTH",
"320 217 OFFCURVE",
"308 191 OFFCURVE",
"284 167 CURVE",
"301 152 LINE"
);
}
);
width = 485;
}
);
unicode = E027;
},
{
color = 5;
glyphname = "hyarmen-teng";
lastChange = "2022-01-04 13:40:23 +0000";
layers = (
{
anchors = (
{
name = bottom;
position = "{282, 0}";
},
{
name = bottomleft;
position = "{40, 0}";
},
{
name = top;
position = "{452, 400}";
}
);
background = {
paths = (
{
closed = 1;
nodes = (
"285 332 LINE",
"242 247 OFFCURVE",
"204 181 OFFCURVE",
"172 134 CURVE SMOOTH",
"152 106 OFFCURVE",
"131 94 OFFCURVE",
"110 94 CURVE SMOOTH",
"95 94 OFFCURVE",
"78 103 OFFCURVE",
"60 119 CURVE",
"33 102 OFFCURVE",
"15 75 OFFCURVE",
"15 49 CURVE SMOOTH",
"15 10 OFFCURVE",
"37 -12 OFFCURVE",
"70 -12 CURVE SMOOTH",
"107 -12 OFFCURVE",
"140 7 OFFCURVE",
"181 73 CURVE SMOOTH",
"217 131 OFFCURVE",
"262 212 OFFCURVE",
"296 281 CURVE"
);
},
{
closed = 1;
nodes = (
"477 -12 OFFCURVE",
"516 12 OFFCURVE",
"550 47 CURVE",
"551 48 OFFCURVE",
"552 49 OFFCURVE",
"552 50 CURVE SMOOTH",
"552 55 OFFCURVE",
"541 70 OFFCURVE",
"537 68 CURVE",
"521 55 OFFCURVE",
"510 50 OFFCURVE",
"499 50 CURVE SMOOTH",
"482 50 OFFCURVE",
"472 63 OFFCURVE",
"445 116 CURVE SMOOTH",
"366 271 OFFCURVE",
"286 512 OFFCURVE",
"238 621 CURVE SMOOTH",
"206 693 OFFCURVE",
"187 712 OFFCURVE",
"151 712 CURVE SMOOTH",
"114 712 OFFCURVE",
"70 681 OFFCURVE",
"31 640 CURVE",
"30 639 OFFCURVE",
"29 638 OFFCURVE",
"29 637 CURVE SMOOTH",
"29 632 OFFCURVE",
"40 619 OFFCURVE",
"44 621 CURVE",
"66 642 OFFCURVE",
"81 650 OFFCURVE",
"96 650 CURVE SMOOTH",
"118 650 OFFCURVE",
"130 637 OFFCURVE",
"155 584 CURVE SMOOTH",
"215 458 OFFCURVE",
"314 187 OFFCURVE",
"362 79 CURVE SMOOTH",
"394 7 OFFCURVE",
"413 -12 OFFCURVE",
"444 -12 CURVE SMOOTH"
);
}
);
};
layerId = "4397B867-53E7-4964-BB9B-A578920F109C";
paths = (
{
closed = 1;
nodes = (
"475 -12 OFFCURVE",
"514 10 OFFCURVE",
"553 50 CURVE",
"553 55 OFFCURVE",
"542 69 OFFCURVE",
"538 69 CURVE",
"517 52 OFFCURVE",
"503 46 OFFCURVE",
"489 46 CURVE SMOOTH",
"472 46 OFFCURVE",
"457 60 OFFCURVE",
"418 141 CURVE SMOOTH",
"355 273 OFFCURVE",
"276 512 OFFCURVE",
"228 621 CURVE SMOOTH",
"196 693 OFFCURVE",
"177 712 OFFCURVE",
"141 712 CURVE SMOOTH",
"110 712 OFFCURVE",
"67 685 OFFCURVE",
"28 637 CURVE",
"28 633 OFFCURVE",
"39 620 OFFCURVE",
"43 620 CURVE",
"65 643 OFFCURVE",
"82 653 OFFCURVE",
"97 653 CURVE SMOOTH",
"113 653 OFFCURVE",
"130 637 OFFCURVE",
"155 584 CURVE SMOOTH",
"215 458 OFFCURVE",
"292 237 OFFCURVE",
"362 79 CURVE SMOOTH",
"394 7 OFFCURVE",
"413 -12 OFFCURVE",
"444 -12 CURVE SMOOTH"
);
},
{
closed = 1;
nodes = (
"107 -12 OFFCURVE",
"137 6 OFFCURVE",
"177 73 CURVE SMOOTH",
"212 131 OFFCURVE",
"256 212 OFFCURVE",
"290 281 CURVE",
"285 332 LINE",
"242 247 OFFCURVE",
"204 181 OFFCURVE",
"172 134 CURVE SMOOTH",
"152 106 OFFCURVE",
"131 94 OFFCURVE",
"110 94 CURVE SMOOTH",
"95 94 OFFCURVE",
"78 103 OFFCURVE",
"60 119 CURVE",
"33 102 OFFCURVE",
"15 75 OFFCURVE",
"15 49 CURVE SMOOTH",
"15 10 OFFCURVE",
"37 -12 OFFCURVE",
"70 -12 CURVE SMOOTH"
);
}
);
width = 547;
},
{
anchors = (
{
name = bottom;
position = "{277, 0}";
},
{
name = bottomleft;
position = "{35, 0}";
},
{
name = top;
position = "{475, 420}";
}
);
background = {
paths = (
{
closed = 1;
nodes = (
"470 -12 OFFCURVE",
"509 10 OFFCURVE",
"548 50 CURVE",
"548 55 OFFCURVE",
"537 69 OFFCURVE",
"533 69 CURVE",
"512 52 OFFCURVE",
"498 46 OFFCURVE",
"484 46 CURVE SMOOTH",
"467 46 OFFCURVE",
"452 60 OFFCURVE",
"413 141 CURVE SMOOTH",
"350 273 OFFCURVE",
"271 512 OFFCURVE",
"223 621 CURVE SMOOTH",
"191 693 OFFCURVE",
"172 712 OFFCURVE",
"136 712 CURVE SMOOTH",
"105 712 OFFCURVE",
"62 685 OFFCURVE",
"23 637 CURVE",
"23 633 OFFCURVE",
"34 620 OFFCURVE",
"38 620 CURVE",
"60 643 OFFCURVE",
"77 653 OFFCURVE",
"92 653 CURVE SMOOTH",
"108 653 OFFCURVE",
"125 637 OFFCURVE",
"150 584 CURVE SMOOTH",
"210 458 OFFCURVE",
"287 237 OFFCURVE",
"357 79 CURVE SMOOTH",
"389 7 OFFCURVE",
"408 -12 OFFCURVE",
"439 -12 CURVE SMOOTH"
);
},
{
closed = 1;
nodes = (
"102 -12 OFFCURVE",
"132 6 OFFCURVE",
"172 73 CURVE SMOOTH",
"207 131 OFFCURVE",
"251 212 OFFCURVE",
"285 281 CURVE",
"280 332 LINE",
"237 247 OFFCURVE",
"199 181 OFFCURVE",
"167 134 CURVE SMOOTH",
"147 106 OFFCURVE",
"126 94 OFFCURVE",
"105 94 CURVE SMOOTH",
"90 94 OFFCURVE",
"73 103 OFFCURVE",
"55 119 CURVE",
"28 102 OFFCURVE",
"10 75 OFFCURVE",
"10 49 CURVE SMOOTH",
"10 10 OFFCURVE",
"32 -12 OFFCURVE",
"65 -12 CURVE SMOOTH"
);
}
);
};
layerId = "0ED38B93-C2B0-4B4A-9C6D-D7838A33C317";
paths = (
{
closed = 1;
nodes = (
"478 -12 OFFCURVE",
"527 19 OFFCURVE",
"576 74 CURVE",
"576 79 OFFCURVE",
"565 93 OFFCURVE",
"561 93 CURVE",
"540 76 OFFCURVE",
"526 70 OFFCURVE",
"512 70 CURVE SMOOTH",
"495 70 OFFCURVE",
"480 84 OFFCURVE",
"441 165 CURVE SMOOTH",
"380 292 OFFCURVE",
"305 521 OFFCURVE",
"259 625 CURVE SMOOTH",
"227 697 OFFCURVE",
"208 716 OFFCURVE",
"172 716 CURVE SMOOTH",
"132 716 OFFCURVE",
"77 684 OFFCURVE",
"27 627 CURVE",
"27 623 OFFCURVE",
"38 610 OFFCURVE",
"42 610 CURVE",
"65 632 OFFCURVE",
"83 641 OFFCURVE",
"98 641 CURVE SMOOTH",
"114 641 OFFCURVE",
"130 625 OFFCURVE",
"154 574 CURVE SMOOTH",
"212 451 OFFCURVE",
"288 234 OFFCURVE",
"357 79 CURVE SMOOTH",
"389 7 OFFCURVE",
"408 -12 OFFCURVE",
"439 -12 CURVE SMOOTH"
);
},
{
closed = 1;
nodes = (
"102 -12 OFFCURVE",
"132 6 OFFCURVE",
"172 73 CURVE SMOOTH",
"207 131 OFFCURVE",
"251 212 OFFCURVE",
"285 281 CURVE",
"280 332 LINE",
"242 257 OFFCURVE",
"210 199 OFFCURVE",
"182 157 CURVE SMOOTH",
"164 130 OFFCURVE",
"143 118 OFFCURVE",
"123 118 CURVE SMOOTH",
"109 118 OFFCURVE",
"92 127 OFFCURVE",
"75 143 CURVE",
"36 120 OFFCURVE",
"10 84 OFFCURVE",
"10 49 CURVE SMOOTH",
"10 10 OFFCURVE",
"32 -12 OFFCURVE",
"65 -12 CURVE SMOOTH"
);
}
);
width = 565;
}
);
leftKerningGroup = hyarmen;
leftMetricsKey = "yanta-teng";
rightKerningGroup = hyarmen;
rightMetricsKey = "yanta-teng";
unicode = E028;
},
{
color = 5;
glyphname = "hwestasindar-teng";
lastChange = "2022-01-04 13:40:36 +0000";
layers = (
{
anchors = (
{
name = bottom;
position = "{338, 0}";
},
{
name = bottomleft;
position = "{70, 0}";
},
{
name = top;
position = "{208, 400}";
}
);
background = {
paths = (
{
closed = 1;
nodes = (
"491 44 LINE",
"491 640 LINE SMOOTH",
"491 703 OFFCURVE",
"481 712 OFFCURVE",
"462 712 CURVE SMOOTH",
"434 712 OFFCURVE",
"389 693 OFFCURVE",
"351 672 CURVE",
"346 669 OFFCURVE",
"345 667 OFFCURVE",
"345 663 CURVE SMOOTH",
"345 657 OFFCURVE",
"350 645 OFFCURVE",
"353 645 CURVE",
"367 653 OFFCURVE",
"378 656 OFFCURVE",
"386 656 CURVE SMOOTH",
"398 656 OFFCURVE",
"405 649 OFFCURVE",
"405 608 CURVE SMOOTH",
"405 22 LINE"
);
},
{
closed = 1;
nodes = (
"586 0 OFFCURVE",
"627 19 OFFCURVE",
"676 62 CURVE",
"677 63 OFFCURVE",
"677 63 OFFCURVE",
"677 65 CURVE SMOOTH",
"677 73 OFFCURVE",
"667 92 OFFCURVE",
"662 91 CURVE",
"628 76 OFFCURVE",
"599 70 OFFCURVE",
"528 70 CURVE SMOOTH",
"293 70 LINE SMOOTH",
"198 70 OFFCURVE",
"141 130 OFFCURVE",
"141 220 CURVE SMOOTH",
"141 310 OFFCURVE",
"188 360 OFFCURVE",
"262 360 CURVE SMOOTH",
"347 360 OFFCURVE",
"405 291 OFFCURVE",
"405 186 CURVE",
"490 234 LINE",
"490 333 OFFCURVE",
"427 410 OFFCURVE",
"311 410 CURVE SMOOTH",
"186 410 OFFCURVE",
"50 304 OFFCURVE",
"50 172 CURVE SMOOTH",
"50 76 OFFCURVE",
"115 0 OFFCURVE",
"235 0 CURVE SMOOTH",
"536 0 LINE SMOOTH"
);
}
);
};
layerId = "4397B867-53E7-4964-BB9B-A578920F109C";
paths = (
{
closed = 1;
nodes = (
"510 0 LINE SMOOTH",
"567 0 OFFCURVE",
"614 22 OFFCURVE",
"670 71 CURVE",
"671 74 LINE",
"671 78 OFFCURVE",
"665 90 OFFCURVE",
"660 91 CURVE",
"633 76 OFFCURVE",
"614 70 OFFCURVE",
"536 70 CURVE SMOOTH",
"293 70 LINE SMOOTH",
"190 70 OFFCURVE",
"128 130 OFFCURVE",
"128 220 CURVE SMOOTH",
"128 310 OFFCURVE",
"180 360 OFFCURVE",
"262 360 CURVE SMOOTH",
"347 360 OFFCURVE",
"405 291 OFFCURVE",
"405 186 CURVE",
"484 234 LINE",
"484 333 OFFCURVE",
"423 410 OFFCURVE",
"311 410 CURVE SMOOTH",
"186 410 OFFCURVE",
"50 304 OFFCURVE",
"50 172 CURVE SMOOTH",
"50 76 OFFCURVE",
"122 0 OFFCURVE",
"255 0 CURVE SMOOTH"
);
},
{
closed = 1;
nodes = (
"485 30 LINE",
"485 680 LINE SMOOTH",
"485 706 OFFCURVE",
"480 712 OFFCURVE",
"468 712 CURVE SMOOTH",
"448 712 OFFCURVE",
"392 696 OFFCURVE",
"344 672 CURVE",
"343 670 LINE",
"343 664 OFFCURVE",
"349 651 OFFCURVE",
"352 650 CURVE",
"366 656 OFFCURVE",
"382 662 OFFCURVE",
"392 662 CURVE SMOOTH",
"403 662 OFFCURVE",
"405 655 OFFCURVE",
"405 614 CURVE SMOOTH",
"405 30 LINE"
);
}
);
width = 661;
},
{
anchors = (
{
name = bottom;
position = "{333, 0}";
},
{
name = bottomleft;
position = "{65, 0}";
},
{
name = top;
position = "{203, 420}";
}
);
background = {
paths = (
{
closed = 1;
nodes = (
"505 0 LINE SMOOTH",
"562 0 OFFCURVE",
"609 22 OFFCURVE",
"665 71 CURVE",
"666 74 LINE",
"666 78 OFFCURVE",
"660 90 OFFCURVE",
"655 91 CURVE",
"628 76 OFFCURVE",
"609 70 OFFCURVE",
"531 70 CURVE SMOOTH",
"288 70 LINE SMOOTH",
"185 70 OFFCURVE",
"123 130 OFFCURVE",
"123 220 CURVE SMOOTH",
"123 310 OFFCURVE",
"175 360 OFFCURVE",
"257 360 CURVE SMOOTH",
"342 360 OFFCURVE",
"400 291 OFFCURVE",
"400 186 CURVE",
"479 234 LINE",
"479 333 OFFCURVE",
"418 410 OFFCURVE",
"306 410 CURVE SMOOTH",
"181 410 OFFCURVE",
"45 304 OFFCURVE",
"45 172 CURVE SMOOTH",
"45 76 OFFCURVE",
"117 0 OFFCURVE",
"250 0 CURVE SMOOTH"
);
},
{
closed = 1;
nodes = (
"480 30 LINE",
"480 680 LINE SMOOTH",
"480 706 OFFCURVE",
"475 712 OFFCURVE",
"463 712 CURVE SMOOTH",
"443 712 OFFCURVE",
"387 696 OFFCURVE",
"339 672 CURVE",
"338 670 LINE",
"338 664 OFFCURVE",
"344 651 OFFCURVE",
"347 650 CURVE",
"361 656 OFFCURVE",
"377 662 OFFCURVE",
"387 662 CURVE SMOOTH",
"398 662 OFFCURVE",
"400 655 OFFCURVE",
"400 614 CURVE SMOOTH",
"400 30 LINE"
);
}
);
};
layerId = "0ED38B93-C2B0-4B4A-9C6D-D7838A33C317";
paths = (
{
closed = 1;
nodes = (
"505 0 LINE SMOOTH",
"569 0 OFFCURVE",
"622 30 OFFCURVE",
"685 95 CURVE",
"686 98 LINE",
"686 102 OFFCURVE",
"680 114 OFFCURVE",
"675 115 CURVE",
"648 100 OFFCURVE",
"629 94 OFFCURVE",
"551 94 CURVE SMOOTH",
"298 94 LINE SMOOTH",
"200 94 OFFCURVE",
"141 156 OFFCURVE",
"141 250 CURVE SMOOTH",
"141 326 OFFCURVE",
"184 368 OFFCURVE",
"251 368 CURVE SMOOTH",
"339 368 OFFCURVE",
"400 296 OFFCURVE",
"400 186 CURVE",
"499 254 LINE",
"499 353 OFFCURVE",
"438 430 OFFCURVE",
"326 430 CURVE SMOOTH",
"191 430 OFFCURVE",
"45 319 OFFCURVE",
"45 182 CURVE SMOOTH",
"45 80 OFFCURVE",
"117 0 OFFCURVE",
"250 0 CURVE SMOOTH"
);
},
{
closed = 1;
nodes = (
"510 30 LINE",
"510 684 LINE SMOOTH",
"510 710 OFFCURVE",
"505 716 OFFCURVE",
"493 716 CURVE SMOOTH",
"468 716 OFFCURVE",
"399 698 OFFCURVE",
"339 671 CURVE",
"338 669 LINE",
"338 663 OFFCURVE",
"344 650 OFFCURVE",
"347 649 CURVE",
"361 654 OFFCURVE",
"377 659 OFFCURVE",
"387 659 CURVE SMOOTH",
"398 659 OFFCURVE",
"400 652 OFFCURVE",
"400 611 CURVE SMOOTH",
"400 30 LINE"
);
}
);
width = 671;
}
);
leftKerningGroup = Round;
leftMetricsKey = "uure-teng";
rightKerningGroup = vaiya;
unicode = E029;
},
{
color = 5;
glyphname = "yanta-teng";
lastChange = "2022-01-04 13:38:18 +0000";
layers = (
{
anchors = (
{
name = bottom;
position = "{282, 0}";
},
{
name = bottomleft;
position = "{40, 0}";
},
{
name = top;
position = "{282, 400}";
}
);
background = {
paths = (
{
closed = 1;
nodes = (
"477 -12 OFFCURVE",
"516 12 OFFCURVE",
"550 47 CURVE",
"551 48 OFFCURVE",
"552 49 OFFCURVE",
"552 50 CURVE SMOOTH",
"552 55 OFFCURVE",
"541 70 OFFCURVE",
"537 68 CURVE",
"521 55 OFFCURVE",
"510 50 OFFCURVE",
"499 50 CURVE SMOOTH",
"481 50 OFFCURVE",
"470 63 OFFCURVE",
"441 116 CURVE SMOOTH",
"406 180 OFFCURVE",
"368 277 OFFCURVE",
"348 321 CURVE SMOOTH",
"315 393 OFFCURVE",
"295 412 OFFCURVE",
"257 412 CURVE SMOOTH",
"220 412 OFFCURVE",
"176 381 OFFCURVE",
"137 340 CURVE",
"136 339 OFFCURVE",
"135 338 OFFCURVE",
"135 337 CURVE SMOOTH",
"135 332 OFFCURVE",
"146 319 OFFCURVE",
"150 321 CURVE",
"172 342 OFFCURVE",
"187 350 OFFCURVE",
"202 350 CURVE SMOOTH",
"225 350 OFFCURVE",
"238 337 OFFCURVE",
"265 284 CURVE SMOOTH",
"291 233 OFFCURVE",
"337 124 OFFCURVE",
"358 79 CURVE SMOOTH",
"392 7 OFFCURVE",
"411 -12 OFFCURVE",
"444 -12 CURVE SMOOTH"
);
},
{
closed = 1;
nodes = (
"297 332 LINE",
"250 247 OFFCURVE",
"210 181 OFFCURVE",
"176 134 CURVE SMOOTH",
"155 105 OFFCURVE",
"132 94 OFFCURVE",
"110 94 CURVE SMOOTH",
"95 94 OFFCURVE",
"78 103 OFFCURVE",
"60 119 CURVE",
"33 102 OFFCURVE",
"15 75 OFFCURVE",
"15 49 CURVE SMOOTH",
"15 10 OFFCURVE",
"37 -12 OFFCURVE",
"70 -12 CURVE SMOOTH",
"108 -12 OFFCURVE",
"143 7 OFFCURVE",
"185 72 CURVE SMOOTH",
"223 131 OFFCURVE",
"272 212 OFFCURVE",
"308 281 CURVE"
);
}
);
};
layerId = "4397B867-53E7-4964-BB9B-A578920F109C";
paths = (
{
closed = 1;
nodes = (
"471 -12 OFFCURVE",
"510 10 OFFCURVE",
"549 50 CURVE",
"549 55 OFFCURVE",
"538 69 OFFCURVE",
"534 69 CURVE",
"513 52 OFFCURVE",
"499 46 OFFCURVE",
"485 46 CURVE SMOOTH",
"470 46 OFFCURVE",
"459 55 OFFCURVE",
"435 100 CURVE SMOOTH",
"399 165 OFFCURVE",
"365 261 OFFCURVE",
"338 321 CURVE SMOOTH",
"306 393 OFFCURVE",
"287 412 OFFCURVE",
"251 412 CURVE SMOOTH",
"219 412 OFFCURVE",
"176 386 OFFCURVE",
"136 339 CURVE",
"136 335 OFFCURVE",
"147 322 OFFCURVE",
"151 322 CURVE",
"174 344 OFFCURVE",
"191 353 OFFCURVE",
"207 353 CURVE SMOOTH",
"223 353 OFFCURVE",
"238 337 OFFCURVE",
"265 284 CURVE SMOOTH",
"286 243 OFFCURVE",
"330 135 OFFCURVE",
"357 79 CURVE SMOOTH",
"391 8 OFFCURVE",
"409 -12 OFFCURVE",
"440 -12 CURVE SMOOTH"
);
},
{
closed = 1;
nodes = (
"108 -12 OFFCURVE",
"139 7 OFFCURVE",
"181 72 CURVE SMOOTH",
"219 131 OFFCURVE",
"264 212 OFFCURVE",
"299 281 CURVE",
"297 332 LINE",
"250 247 OFFCURVE",
"210 181 OFFCURVE",
"176 134 CURVE SMOOTH",
"155 105 OFFCURVE",
"132 94 OFFCURVE",
"110 94 CURVE SMOOTH",
"95 94 OFFCURVE",
"78 103 OFFCURVE",
"60 119 CURVE",
"33 102 OFFCURVE",
"15 75 OFFCURVE",
"15 49 CURVE SMOOTH",
"15 10 OFFCURVE",
"37 -12 OFFCURVE",
"70 -12 CURVE SMOOTH"
);
}
);
width = 543;
},
{
anchors = (
{
name = bottom;
position = "{277, 0}";
},
{
name = bottomleft;
position = "{35, 0}";
},
{
name = top;
position = "{297, 420}";
}
);
background = {
paths = (
{
closed = 1;
nodes = (
"466 -12 OFFCURVE",
"505 10 OFFCURVE",
"544 50 CURVE",
"544 55 OFFCURVE",
"533 69 OFFCURVE",
"529 69 CURVE",
"508 52 OFFCURVE",
"494 46 OFFCURVE",
"480 46 CURVE SMOOTH",
"465 46 OFFCURVE",
"454 55 OFFCURVE",
"430 100 CURVE SMOOTH",
"394 165 OFFCURVE",
"360 261 OFFCURVE",
"333 321 CURVE SMOOTH",
"301 393 OFFCURVE",
"282 412 OFFCURVE",
"246 412 CURVE SMOOTH",
"214 412 OFFCURVE",
"171 386 OFFCURVE",
"131 339 CURVE",
"131 335 OFFCURVE",
"142 322 OFFCURVE",
"146 322 CURVE",
"169 344 OFFCURVE",
"186 353 OFFCURVE",
"202 353 CURVE SMOOTH",
"218 353 OFFCURVE",
"233 337 OFFCURVE",
"260 284 CURVE SMOOTH",
"281 243 OFFCURVE",
"325 135 OFFCURVE",
"352 79 CURVE SMOOTH",
"386 8 OFFCURVE",
"404 -12 OFFCURVE",
"435 -12 CURVE SMOOTH"
);
},
{
closed = 1;
nodes = (
"103 -12 OFFCURVE",
"134 7 OFFCURVE",
"176 72 CURVE SMOOTH",
"214 131 OFFCURVE",
"259 212 OFFCURVE",
"294 281 CURVE",
"292 332 LINE",
"245 247 OFFCURVE",
"205 181 OFFCURVE",
"171 134 CURVE SMOOTH",
"150 105 OFFCURVE",
"127 94 OFFCURVE",
"105 94 CURVE SMOOTH",
"90 94 OFFCURVE",
"73 103 OFFCURVE",
"55 119 CURVE",
"28 102 OFFCURVE",
"10 75 OFFCURVE",
"10 49 CURVE SMOOTH",
"10 10 OFFCURVE",
"32 -12 OFFCURVE",
"65 -12 CURVE SMOOTH"
);
}
);
};
layerId = "0ED38B93-C2B0-4B4A-9C6D-D7838A33C317";
paths = (
{
closed = 1;
nodes = (
"472 -12 OFFCURVE",
"518 17 OFFCURVE",
"564 70 CURVE",
"564 75 OFFCURVE",
"553 89 OFFCURVE",
"549 89 CURVE",
"528 72 OFFCURVE",
"514 66 OFFCURVE",
"500 66 CURVE SMOOTH",
"485 66 OFFCURVE",
"474 75 OFFCURVE",
"450 120 CURVE SMOOTH",
"414 185 OFFCURVE",
"380 281 OFFCURVE",
"353 341 CURVE SMOOTH",
"321 413 OFFCURVE",
"302 432 OFFCURVE",
"266 432 CURVE SMOOTH",
"226 432 OFFCURVE",
"174 401 OFFCURVE",
"125 345 CURVE",
"125 341 OFFCURVE",
"136 328 OFFCURVE",
"140 328 CURVE",
"163 350 OFFCURVE",
"180 359 OFFCURVE",
"196 359 CURVE SMOOTH",
"214 359 OFFCURVE",
"230 342 OFFCURVE",
"260 284 CURVE SMOOTH",
"281 243 OFFCURVE",
"325 135 OFFCURVE",
"352 79 CURVE SMOOTH",
"386 8 OFFCURVE",
"404 -12 OFFCURVE",
"435 -12 CURVE SMOOTH"
);
},
{
closed = 1;
nodes = (
"103 -12 OFFCURVE",
"134 7 OFFCURVE",
"176 72 CURVE SMOOTH",
"214 131 OFFCURVE",
"259 212 OFFCURVE",
"294 281 CURVE",
"288 332 LINE",
"248 256 OFFCURVE",
"213 196 OFFCURVE",
"184 154 CURVE SMOOTH",
"163 125 OFFCURVE",
"141 114 OFFCURVE",
"119 114 CURVE SMOOTH",
"105 114 OFFCURVE",
"88 123 OFFCURVE",
"71 139 CURVE",
"34 117 OFFCURVE",
"10 82 OFFCURVE",
"10 49 CURVE SMOOTH",
"10 10 OFFCURVE",
"32 -12 OFFCURVE",
"65 -12 CURVE SMOOTH"
);
}
);
width = 553;
}
);
leftKerningGroup = yanta;
rightKerningGroup = hyarmen;
unicode = E02A;
},
{
color = 5;
glyphname = "uure-teng";
lastChange = "2022-01-04 13:27:16 +0000";
layers = (
{
anchors = (
{
name = bottom;
position = "{260, 0}";
},
{
name = bottomleft;
position = "{70, 0}";
},
{
name = center;
position = "{260, 200}";
},
{
name = top;
position = "{260, 400}";
}
);
background = {
paths = (
{
closed = 1;
nodes = (
"351 -10 OFFCURVE",
"470 95 OFFCURVE",
"470 234 CURVE SMOOTH",
"470 333 OFFCURVE",
"410 410 OFFCURVE",
"298 410 CURVE SMOOTH",
"171 410 OFFCURVE",
"50 310 OFFCURVE",
"50 166 CURVE SMOOTH",
"50 67 OFFCURVE",
"110 -10 OFFCURVE",
"222 -10 CURVE SMOOTH"
);
},
{
closed = 1;
nodes = (
"188 37 OFFCURVE",
"125 110 OFFCURVE",
"125 218 CURVE SMOOTH",
"125 312 OFFCURVE",
"172 364 OFFCURVE",
"246 364 CURVE SMOOTH",
"333 364 OFFCURVE",
"396 290 OFFCURVE",
"396 183 CURVE SMOOTH",
"396 89 OFFCURVE",
"349 37 OFFCURVE",
"275 37 CURVE SMOOTH"
);
}
);
};
layerId = "4397B867-53E7-4964-BB9B-A578920F109C";
paths = (
{
closed = 1;
nodes = (
"350 -10 OFFCURVE",
"470 93 OFFCURVE",
"470 234 CURVE SMOOTH",
"470 333 OFFCURVE",
"410 410 OFFCURVE",
"298 410 CURVE SMOOTH",
"170 410 OFFCURVE",
"50 308 OFFCURVE",
"50 166 CURVE SMOOTH",
"50 67 OFFCURVE",
"110 -10 OFFCURVE",
"222 -10 CURVE SMOOTH"
);
},
{
closed = 1;
nodes = (
"187 37 OFFCURVE",
"125 109 OFFCURVE",
"125 217 CURVE SMOOTH",
"125 311 OFFCURVE",
"172 363 OFFCURVE",
"246 363 CURVE SMOOTH",
"333 363 OFFCURVE",
"395 290 OFFCURVE",
"395 183 CURVE SMOOTH",
"395 89 OFFCURVE",
"348 37 OFFCURVE",
"274 37 CURVE SMOOTH"
);
}
);
width = 520;
},
{
anchors = (
{
name = bottom;
position = "{265, 0}";
},
{
name = bottomleft;
position = "{65, 0}";
},
{
name = center;
position = "{265, 210}";
},
{
name = top;
position = "{265, 420}";
}
);
background = {
paths = (
{
closed = 1;
nodes = (
"345 -10 OFFCURVE",
"465 93 OFFCURVE",
"465 234 CURVE SMOOTH",
"465 333 OFFCURVE",
"405 410 OFFCURVE",
"293 410 CURVE SMOOTH",
"165 410 OFFCURVE",
"45 308 OFFCURVE",
"45 166 CURVE SMOOTH",
"45 67 OFFCURVE",
"105 -10 OFFCURVE",
"217 -10 CURVE SMOOTH"
);
},
{
closed = 1;
nodes = (
"182 37 OFFCURVE",
"120 109 OFFCURVE",
"120 217 CURVE SMOOTH",
"120 311 OFFCURVE",
"167 363 OFFCURVE",
"241 363 CURVE SMOOTH",
"328 363 OFFCURVE",
"390 290 OFFCURVE",
"390 183 CURVE SMOOTH",
"390 89 OFFCURVE",
"343 37 OFFCURVE",
"269 37 CURVE SMOOTH"
);
}
);
};
layerId = "0ED38B93-C2B0-4B4A-9C6D-D7838A33C317";
paths = (
{
closed = 1;
nodes = (
"357 -10 OFFCURVE",
"485 101 OFFCURVE",
"485 254 CURVE SMOOTH",
"485 353 OFFCURVE",
"423 430 OFFCURVE",
"308 430 CURVE SMOOTH",
"173 430 OFFCURVE",
"45 320 OFFCURVE",
"45 166 CURVE SMOOTH",
"45 67 OFFCURVE",
"107 -10 OFFCURVE",
"222 -10 CURVE SMOOTH"
);
},
{
closed = 1;
nodes = (
"202 47 OFFCURVE",
"140 127 OFFCURVE",
"140 247 CURVE SMOOTH",
"140 328 OFFCURVE",
"179 373 OFFCURVE",
"241 373 CURVE SMOOTH",
"328 373 OFFCURVE",
"390 292 OFFCURVE",
"390 173 CURVE SMOOTH",
"390 92 OFFCURVE",
"351 47 OFFCURVE",
"289 47 CURVE SMOOTH"
);
}
);
width = 530;
}
);
leftKerningGroup = Round;
rightKerningGroup = Round;
rightMetricsKey = "=|";
unicode = E02B;
},
{
color = 5;
glyphname = "ossereversed-teng";
lastChange = "2022-01-04 13:41:14 +0000";
layers = (
{
anchors = (
{
name = bottom;
position = "{231, 0}";
},
{
name = bottomleft;
position = "{20, 0}";
},
{
name = top;
position = "{231, 400}";
}
);
background = {
paths = (
{
closed = 1;
nodes = (
"286 -10 OFFCURVE",
"420 93 OFFCURVE",
"420 230 CURVE SMOOTH",
"420 340 OFFCURVE",
"344 410 OFFCURVE",
"242 410 CURVE SMOOTH",
"148 410 OFFCURVE",
"74 359 OFFCURVE",
"13 280 CURVE",
"12 279 OFFCURVE",
"11 277 OFFCURVE",
"11 275 CURVE SMOOTH",
"11 266 OFFCURVE",
"33 246 OFFCURVE",
"39 251 CURVE",
"87 304 OFFCURVE",
"129 331 OFFCURVE",
"191 331 CURVE SMOOTH",
"273 331 OFFCURVE",
"329 277 OFFCURVE",
"329 178 CURVE SMOOTH",
"329 99 OFFCURVE",
"283 46 OFFCURVE",
"225 46 CURVE SMOOTH",
"182 46 OFFCURVE",
"159 82 OFFCURVE",
"147 122 CURVE",
"144 123 OFFCURVE",
"140 123 OFFCURVE",
"137 123 CURVE SMOOTH",
"105 123 OFFCURVE",
"61 105 OFFCURVE",
"61 60 CURVE SMOOTH",
"61 20 OFFCURVE",
"92 -10 OFFCURVE",
"162 -10 CURVE SMOOTH"
);
}
);
};
layerId = "4397B867-53E7-4964-BB9B-A578920F109C";
paths = (
{
closed = 1;
nodes = (
"286 -10 OFFCURVE",
"420 93 OFFCURVE",
"420 230 CURVE SMOOTH",
"420 340 OFFCURVE",
"344 410 OFFCURVE",
"242 410 CURVE SMOOTH",
"154 410 OFFCURVE",
"80 367 OFFCURVE",
"10 276 CURVE",
"10 272 OFFCURVE",
"23 259 OFFCURVE",
"27 259 CURVE",
"79 314 OFFCURVE",
"124 341 OFFCURVE",
"191 341 CURVE SMOOTH",
"281 341 OFFCURVE",
"342 284 OFFCURVE",
"342 178 CURVE SMOOTH",
"342 94 OFFCURVE",
"286 38 OFFCURVE",
"215 38 CURVE SMOOTH",
"169 38 OFFCURVE",
"145 78 OFFCURVE",
"132 122 CURVE",
"129 123 OFFCURVE",
"125 123 OFFCURVE",
"122 123 CURVE SMOOTH",
"96 123 OFFCURVE",
"61 107 OFFCURVE",
"61 66 CURVE SMOOTH",
"61 22 OFFCURVE",
"92 -10 OFFCURVE",
"162 -10 CURVE SMOOTH"
);
}
);
width = 470;
},
{
anchors = (
{
name = bottom;
position = "{231, 0}";
},
{
name = bottomleft;
position = "{25, 0}";
},
{
name = top;
position = "{231, 420}";
}
);
background = {
paths = (
{
closed = 1;
nodes = (
"281 -10 OFFCURVE",
"415 93 OFFCURVE",
"415 230 CURVE SMOOTH",
"415 340 OFFCURVE",
"339 410 OFFCURVE",
"237 410 CURVE SMOOTH",
"149 410 OFFCURVE",
"75 367 OFFCURVE",
"5 276 CURVE",
"5 272 OFFCURVE",
"18 259 OFFCURVE",
"22 259 CURVE",
"74 314 OFFCURVE",
"119 341 OFFCURVE",
"186 341 CURVE SMOOTH",
"276 341 OFFCURVE",
"337 284 OFFCURVE",
"337 178 CURVE SMOOTH",
"337 94 OFFCURVE",
"281 38 OFFCURVE",
"210 38 CURVE SMOOTH",
"164 38 OFFCURVE",
"140 78 OFFCURVE",
"127 122 CURVE",
"124 123 OFFCURVE",
"120 123 OFFCURVE",
"117 123 CURVE SMOOTH",
"91 123 OFFCURVE",
"56 107 OFFCURVE",
"56 66 CURVE SMOOTH",
"56 22 OFFCURVE",
"87 -10 OFFCURVE",
"157 -10 CURVE SMOOTH"
);
}
);
};
layerId = "0ED38B93-C2B0-4B4A-9C6D-D7838A33C317";
paths = (
{
closed = 1;
nodes = (
"286 -10 OFFCURVE",
"425 97 OFFCURVE",
"425 240 CURVE SMOOTH",
"425 356 OFFCURVE",
"349 430 OFFCURVE",
"247 430 CURVE SMOOTH",
"155 430 OFFCURVE",
"78 381 OFFCURVE",
"5 276 CURVE",
"5 272 OFFCURVE",
"18 259 OFFCURVE",
"22 259 CURVE",
"71 314 OFFCURVE",
"113 341 OFFCURVE",
"176 341 CURVE SMOOTH",
"260 341 OFFCURVE",
"317 284 OFFCURVE",
"317 178 CURVE SMOOTH",
"317 94 OFFCURVE",
"274 38 OFFCURVE",
"220 38 CURVE SMOOTH",
"180 38 OFFCURVE",
"158 88 OFFCURVE",
"147 142 CURVE",
"144 143 OFFCURVE",
"140 143 OFFCURVE",
"137 143 CURVE SMOOTH",
"98 143 OFFCURVE",
"46 121 OFFCURVE",
"46 66 CURVE SMOOTH",
"46 22 OFFCURVE",
"80 -10 OFFCURVE",
"157 -10 CURVE SMOOTH"
);
}
);
width = 470;
}
);
rightKerningGroup = Round;
rightMetricsKey = "uure-teng";
unicode = E030;
},
{
color = 5;
glyphname = "wbombadil-teng";
lastChange = "2022-01-04 13:41:23 +0000";
layers = (
{
anchors = (
{
name = bottom;
position = "{264, 0}";
},
{
name = bottomleft;
position = "{52, 0}";
},
{
name = top;
position = "{264, 400}";
}
);
background = {
paths = (
{
closed = 1;
nodes = (
"450 346 OFFCURVE",
"388 412 OFFCURVE",
"271 412 CURVE SMOOTH",
"138 412 OFFCURVE",
"40 311 OFFCURVE",
"40 212 CURVE SMOOTH",
"40 175 OFFCURVE",
"60 145 OFFCURVE",
"93 145 CURVE SMOOTH",
"134 145 OFFCURVE",
"161 174 OFFCURVE",
"171 204 CURVE",
"142 221 OFFCURVE",
"125 245 OFFCURVE",
"125 272 CURVE SMOOTH",
"125 328 OFFCURVE",
"165 360 OFFCURVE",
"232 360 CURVE SMOOTH",
"311 360 OFFCURVE",
"357 307 OFFCURVE",
"357 228 CURVE SMOOTH",
"357 160 OFFCURVE",
"315 113 OFFCURVE",
"216 60 CURVE",
"274 60 LINE",
"398 116 OFFCURVE",
"450 180 OFFCURVE",
"450 258 CURVE SMOOTH"
);
},
{
closed = 1;
nodes = (
"276 55 LINE",
"300 55 LINE",
"300 81 LINE",
"276 81 LINE"
);
},
{
closed = 1;
nodes = (
"96 1 OFFCURVE",
"123 7 OFFCURVE",
"169 7 CURVE SMOOTH",
"248 7 OFFCURVE",
"307 -6 OFFCURVE",
"366 -6 CURVE SMOOTH",
"416 -6 OFFCURVE",
"457 13 OFFCURVE",
"506 56 CURVE",
"507 57 OFFCURVE",
"507 57 OFFCURVE",
"507 59 CURVE SMOOTH",
"507 67 OFFCURVE",
"497 86 OFFCURVE",
"492 85 CURVE",
"461 70 OFFCURVE",
"434 64 OFFCURVE",
"388 64 CURVE SMOOTH",
"309 64 OFFCURVE",
"250 77 OFFCURVE",
"191 77 CURVE SMOOTH",
"141 77 OFFCURVE",
"100 58 OFFCURVE",
"51 15 CURVE",
"50 14 OFFCURVE",
"50 14 OFFCURVE",
"50 12 CURVE SMOOTH",
"50 4 OFFCURVE",
"60 -15 OFFCURVE",
"65 -14 CURVE"
);
}
);
};
layerId = "4397B867-53E7-4964-BB9B-A578920F109C";
paths = (
{
closed = 1;
nodes = (
"274 60 LINE",
"398 116 OFFCURVE",
"450 180 OFFCURVE",
"450 258 CURVE SMOOTH",
"450 346 OFFCURVE",
"391 412 OFFCURVE",
"281 412 CURVE SMOOTH",
"150 412 OFFCURVE",
"54 317 OFFCURVE",
"54 223 CURVE SMOOTH",
"54 186 OFFCURVE",
"74 156 OFFCURVE",
"107 156 CURVE SMOOTH",
"141 156 OFFCURVE",
"163 180 OFFCURVE",
"171 204 CURVE",
"141 221 OFFCURVE",
"123 246 OFFCURVE",
"123 274 CURVE SMOOTH",
"123 330 OFFCURVE",
"163 362 OFFCURVE",
"230 362 CURVE SMOOTH",
"320 362 OFFCURVE",
"372 308 OFFCURVE",
"372 228 CURVE SMOOTH",
"372 160 OFFCURVE",
"326 113 OFFCURVE",
"216 60 CURVE"
);
},
{
closed = 1;
nodes = (
"85 1 OFFCURVE",
"107 7 OFFCURVE",
"169 7 CURVE SMOOTH",
"248 7 OFFCURVE",
"307 -6 OFFCURVE",
"366 -6 CURVE SMOOTH",
"416 -6 OFFCURVE",
"457 16 OFFCURVE",
"506 65 CURVE",
"507 68 LINE",
"507 72 OFFCURVE",
"501 84 OFFCURVE",
"496 85 CURVE",
"472 70 OFFCURVE",
"450 64 OFFCURVE",
"388 64 CURVE SMOOTH",
"309 64 OFFCURVE",
"250 77 OFFCURVE",
"191 77 CURVE SMOOTH",
"141 77 OFFCURVE",
"100 55 OFFCURVE",
"51 6 CURVE",
"50 3 LINE",
"50 -1 OFFCURVE",
"56 -13 OFFCURVE",
"61 -14 CURVE"
);
},
{
closed = 1;
nodes = (
"302 55 LINE",
"302 81 LINE",
"278 81 LINE",
"278 55 LINE"
);
}
);
width = 517;
},
{
anchors = (
{
name = bottom;
position = "{274, 0}";
},
{
name = bottomleft;
position = "{47, 0}";
},
{
name = top;
position = "{269, 420}";
}
);
background = {
paths = (
{
closed = 1;
nodes = (
"269 60 LINE",
"393 116 OFFCURVE",
"445 180 OFFCURVE",
"445 258 CURVE SMOOTH",
"445 346 OFFCURVE",
"386 412 OFFCURVE",
"276 412 CURVE SMOOTH",
"145 412 OFFCURVE",
"49 317 OFFCURVE",
"49 223 CURVE SMOOTH",
"49 186 OFFCURVE",
"69 156 OFFCURVE",
"102 156 CURVE SMOOTH",
"136 156 OFFCURVE",
"158 180 OFFCURVE",
"166 204 CURVE",
"136 221 OFFCURVE",
"118 246 OFFCURVE",
"118 274 CURVE SMOOTH",
"118 330 OFFCURVE",
"158 362 OFFCURVE",
"225 362 CURVE SMOOTH",
"315 362 OFFCURVE",
"367 308 OFFCURVE",
"367 228 CURVE SMOOTH",
"367 160 OFFCURVE",
"321 113 OFFCURVE",
"211 60 CURVE"
);
},
{
closed = 1;
nodes = (
"80 1 OFFCURVE",
"102 7 OFFCURVE",
"164 7 CURVE SMOOTH",
"243 7 OFFCURVE",
"302 -6 OFFCURVE",
"361 -6 CURVE SMOOTH",
"411 -6 OFFCURVE",
"452 16 OFFCURVE",
"501 65 CURVE",
"502 68 LINE",
"502 72 OFFCURVE",
"496 84 OFFCURVE",
"491 85 CURVE",
"467 70 OFFCURVE",
"445 64 OFFCURVE",
"383 64 CURVE SMOOTH",
"304 64 OFFCURVE",
"245 77 OFFCURVE",
"186 77 CURVE SMOOTH",
"136 77 OFFCURVE",
"95 55 OFFCURVE",
"46 6 CURVE",
"45 3 LINE",
"45 -1 OFFCURVE",
"51 -13 OFFCURVE",
"56 -14 CURVE"
);
},
{
closed = 1;
nodes = (
"297 55 LINE",
"297 81 LINE",
"273 81 LINE",
"273 55 LINE"
);
}
);
};
layerId = "0ED38B93-C2B0-4B4A-9C6D-D7838A33C317";
paths = (
{
closed = 1;
nodes = (
"289 80 LINE",
"421 136 OFFCURVE",
"475 200 OFFCURVE",
"475 278 CURVE SMOOTH",
"475 366 OFFCURVE",
"414 432 OFFCURVE",
"301 432 CURVE SMOOTH",
"155 432 OFFCURVE",
"49 337 OFFCURVE",
"49 243 CURVE SMOOTH",
"49 206 OFFCURVE",
"73 176 OFFCURVE",
"112 176 CURVE SMOOTH",
"157 176 OFFCURVE",
"186 205 OFFCURVE",
"196 234 CURVE",
"166 251 OFFCURVE",
"148 276 OFFCURVE",
"148 304 CURVE SMOOTH",
"148 354 OFFCURVE",
"185 384 OFFCURVE",
"245 384 CURVE SMOOTH",
"322 384 OFFCURVE",
"367 334 OFFCURVE",
"367 258 CURVE SMOOTH",
"367 186 OFFCURVE",
"327 136 OFFCURVE",
"231 80 CURVE"
);
},
{
closed = 1;
nodes = (
"80 1 OFFCURVE",
"102 7 OFFCURVE",
"164 7 CURVE SMOOTH",
"243 7 OFFCURVE",
"302 -6 OFFCURVE",
"361 -6 CURVE SMOOTH",
"422 -6 OFFCURVE",
"472 23 OFFCURVE",
"531 89 CURVE",
"532 92 LINE",
"532 96 OFFCURVE",
"526 108 OFFCURVE",
"521 109 CURVE",
"497 94 OFFCURVE",
"475 88 OFFCURVE",
"413 88 CURVE SMOOTH",
"334 88 OFFCURVE",
"275 101 OFFCURVE",
"216 101 CURVE SMOOTH",
"155 101 OFFCURVE",
"106 72 OFFCURVE",
"46 6 CURVE",
"45 3 LINE",
"45 -1 OFFCURVE",
"51 -13 OFFCURVE",
"56 -14 CURVE"
);
},
{
closed = 1;
nodes = (
"327 79 LINE",
"327 105 LINE",
"303 105 LINE",
"303 79 LINE"
);
}
);
width = 537;
}
);
rightKerningGroup = RoundBottom;
rightMetricsKey = "parma-teng";
unicode = E031;
},
{
color = 5;
glyphname = "carrierschwa-teng";
lastChange = "2022-01-04 13:44:41 +0000";
layers = (
{
anchors = (
{
name = bottom;
position = "{203, 0}";
},
{
name = bottomleft;
position = "{18, 0}";
},
{
name = top;
position = "{203, 400}";
}
);
background = {
paths = (
{
closed = 1;
nodes = (
"332 330 OFFCURVE",
"373 349 OFFCURVE",
"422 392 CURVE",
"423 393 OFFCURVE",
"423 393 OFFCURVE",
"423 395 CURVE SMOOTH",
"423 403 OFFCURVE",
"413 422 OFFCURVE",
"408 421 CURVE",
"374 406 OFFCURVE",
"345 400 OFFCURVE",
"274 400 CURVE SMOOTH",
"144 400 LINE SMOOTH",
"116 400 OFFCURVE",
"71 381 OFFCURVE",
"33 360 CURVE",
"28 357 OFFCURVE",
"27 355 OFFCURVE",
"27 351 CURVE SMOOTH",
"27 345 OFFCURVE",
"32 333 OFFCURVE",
"35 333 CURVE",
"51 341 OFFCURVE",
"63 344 OFFCURVE",
"72 344 CURVE SMOOTH",
"88 344 OFFCURVE",
"97 330 OFFCURVE",
"97 246 CURVE SMOOTH",
"97 137 LINE SMOOTH",
"97 45 OFFCURVE",
"91 34 OFFCURVE",
"53 13 CURVE",
"48 10 OFFCURVE",
"47 9 OFFCURVE",
"47 6 CURVE SMOOTH",
"47 0 OFFCURVE",
"53 -15 OFFCURVE",
"57 -14 CURVE",
"82 -4 OFFCURVE",
"131 10 OFFCURVE",
"160 23 CURVE SMOOTH",
"181 32 OFFCURVE",
"183 37 OFFCURVE",
"183 103 CURVE SMOOTH",
"183 330 LINE",
"282 330 LINE SMOOTH"
);
}
);
};
layerId = "4397B867-53E7-4964-BB9B-A578920F109C";
paths = (
{
closed = 1;
nodes = (
"145 17 LINE SMOOTH",
"181 30 OFFCURVE",
"183 33 OFFCURVE",
"183 76 CURVE SMOOTH",
"183 330 LINE",
"262 330 LINE SMOOTH",
"319 330 OFFCURVE",
"366 352 OFFCURVE",
"422 401 CURVE",
"423 404 LINE",
"423 408 OFFCURVE",
"417 420 OFFCURVE",
"412 421 CURVE",
"385 406 OFFCURVE",
"366 400 OFFCURVE",
"288 400 CURVE SMOOTH",
"166 400 LINE SMOOTH",
"146 400 OFFCURVE",
"90 384 OFFCURVE",
"42 360 CURVE",
"41 358 LINE",
"41 352 OFFCURVE",
"47 339 OFFCURVE",
"50 338 CURVE",
"64 344 OFFCURVE",
"80 350 OFFCURVE",
"90 350 CURVE SMOOTH",
"101 350 OFFCURVE",
"103 343 OFFCURVE",
"103 302 CURVE SMOOTH",
"103 126 LINE SMOOTH",
"103 36 OFFCURVE",
"102 32 OFFCURVE",
"53 9 CURVE",
"53 4 OFFCURVE",
"59 -11 OFFCURVE",
"62 -12 CURVE"
);
}
);
width = 413;
},
{
anchors = (
{
name = bottom;
position = "{198, 0}";
},
{
name = bottomleft;
position = "{13, 0}";
},
{
name = top;
position = "{208, 420}";
}
);
background = {
paths = (
{
closed = 1;
nodes = (
"140 17 LINE SMOOTH",
"176 30 OFFCURVE",
"178 33 OFFCURVE",
"178 76 CURVE SMOOTH",
"178 330 LINE",
"257 330 LINE SMOOTH",
"314 330 OFFCURVE",
"361 352 OFFCURVE",
"417 401 CURVE",
"418 404 LINE",
"418 408 OFFCURVE",
"412 420 OFFCURVE",
"407 421 CURVE",
"380 406 OFFCURVE",
"361 400 OFFCURVE",
"283 400 CURVE SMOOTH",
"161 400 LINE SMOOTH",
"141 400 OFFCURVE",
"85 384 OFFCURVE",
"37 360 CURVE",
"36 358 LINE",
"36 352 OFFCURVE",
"42 339 OFFCURVE",
"45 338 CURVE",
"59 344 OFFCURVE",
"75 350 OFFCURVE",
"85 350 CURVE SMOOTH",
"96 350 OFFCURVE",
"98 343 OFFCURVE",
"98 302 CURVE SMOOTH",
"98 126 LINE SMOOTH",
"98 36 OFFCURVE",
"97 32 OFFCURVE",
"48 9 CURVE",
"48 4 OFFCURVE",
"54 -11 OFFCURVE",
"57 -12 CURVE"
);
}
);
};
layerId = "0ED38B93-C2B0-4B4A-9C6D-D7838A33C317";
paths = (
{
closed = 1;
nodes = (
"170 27 LINE SMOOTH",
"206 39 OFFCURVE",
"208 43 OFFCURVE",
"208 86 CURVE SMOOTH",
"208 326 LINE",
"277 326 LINE SMOOTH",
"338 326 OFFCURVE",
"388 355 OFFCURVE",
"447 421 CURVE",
"448 424 LINE",
"448 428 OFFCURVE",
"442 440 OFFCURVE",
"437 441 CURVE",
"410 426 OFFCURVE",
"391 420 OFFCURVE",
"313 420 CURVE SMOOTH",
"191 420 LINE SMOOTH",
"166 420 OFFCURVE",
"97 396 OFFCURVE",
"37 360 CURVE",
"36 358 LINE",
"36 352 OFFCURVE",
"42 339 OFFCURVE",
"45 338 CURVE",
"59 344 OFFCURVE",
"75 350 OFFCURVE",
"85 350 CURVE SMOOTH",
"96 350 OFFCURVE",
"98 343 OFFCURVE",
"98 302 CURVE SMOOTH",
"98 126 LINE SMOOTH",
"98 36 OFFCURVE",
"97 32 OFFCURVE",
"48 9 CURVE",
"48 4 OFFCURVE",
"54 -11 OFFCURVE",
"57 -12 CURVE"
);
}
);
width = 433;
}
);
leftMetricsKey = "nuumen-teng";
rightMetricsKey = "hwestasindar-teng";
unicode = E034;
},
{
color = 5;
glyphname = "annaopen-teng";
lastChange = "2022-01-04 13:44:24 +0000";
layers = (
{
anchors = (
{
name = bottom;
position = "{288, 0}";
},
{
name = bottomleft;
position = "{80, 0}";
},
{
name = center;
position = "{273, 260}";
},
{
name = top;
position = "{288, 400}";
}
);
background = {
paths = (
{
closed = 1;
nodes = (
"287 -10 OFFCURVE",
"344 36 OFFCURVE",
"393 106 CURVE",
"393 158 LINE",
"349 98 OFFCURVE",
"316 69 OFFCURVE",
"263 69 CURVE SMOOTH",
"196 69 OFFCURVE",
"162 109 OFFCURVE",
"162 192 CURVE SMOOTH",
"162 322 LINE SMOOTH",
"162 402 OFFCURVE",
"149 414 OFFCURVE",
"123 414 CURVE SMOOTH",
"95 414 OFFCURVE",
"50 395 OFFCURVE",
"12 374 CURVE",
"7 371 OFFCURVE",
"6 369 OFFCURVE",
"6 365 CURVE SMOOTH",
"6 359 OFFCURVE",
"11 347 OFFCURVE",
"14 347 CURVE",
"30 355 OFFCURVE",
"42 358 OFFCURVE",
"51 358 CURVE SMOOTH",
"67 358 OFFCURVE",
"76 347 OFFCURVE",
"76 290 CURVE SMOOTH",
"76 150 LINE SMOOTH",
"76 47 OFFCURVE",
"127 -10 OFFCURVE",
"212 -10 CURVE SMOOTH"
);
},
{
closed = 1;
nodes = (
"523 49 OFFCURVE",
"511 46 OFFCURVE",
"502 46 CURVE SMOOTH",
"486 46 OFFCURVE",
"477 60 OFFCURVE",
"477 144 CURVE SMOOTH",
"477 263 LINE SMOOTH",
"477 355 OFFCURVE",
"483 366 OFFCURVE",
"521 387 CURVE",
"526 390 OFFCURVE",
"527 391 OFFCURVE",
"527 394 CURVE SMOOTH",
"527 400 OFFCURVE",
"521 415 OFFCURVE",
"517 414 CURVE SMOOTH",
"492 407 OFFCURVE",
"443 390 OFFCURVE",
"417 378 CURVE SMOOTH",
"396 368 OFFCURVE",
"391 360 OFFCURVE",
"391 297 CURVE SMOOTH",
"391 122 LINE SMOOTH",
"391 6 OFFCURVE",
"404 -10 OFFCURVE",
"430 -10 CURVE SMOOTH",
"458 -10 OFFCURVE",
"503 9 OFFCURVE",
"541 30 CURVE",
"546 33 OFFCURVE",
"547 35 OFFCURVE",
"547 39 CURVE SMOOTH",
"547 45 OFFCURVE",
"542 57 OFFCURVE",
"539 57 CURVE"
);
}
);
};
layerId = "4397B867-53E7-4964-BB9B-A578920F109C";
paths = (
{
closed = 1;
nodes = (
"287 -10 OFFCURVE",
"344 36 OFFCURVE",
"393 106 CURVE",
"393 155 LINE",
"346 88 OFFCURVE",
"310 56 OFFCURVE",
"253 56 CURVE SMOOTH",
"193 56 OFFCURVE",
"162 96 OFFCURVE",
"162 179 CURVE SMOOTH",
"162 380 LINE SMOOTH",
"162 406 OFFCURVE",
"157 412 OFFCURVE",
"145 412 CURVE SMOOTH",
"125 412 OFFCURVE",
"69 396 OFFCURVE",
"21 372 CURVE",
"20 370 LINE",
"20 364 OFFCURVE",
"26 351 OFFCURVE",
"29 350 CURVE",
"43 356 OFFCURVE",
"59 362 OFFCURVE",
"69 362 CURVE SMOOTH",
"80 362 OFFCURVE",
"82 355 OFFCURVE",
"82 314 CURVE SMOOTH",
"82 150 LINE SMOOTH",
"82 47 OFFCURVE",
"131 -10 OFFCURVE",
"212 -10 CURVE SMOOTH"
);
},
{
closed = 1;
nodes = (
"428 -12 OFFCURVE",
"484 4 OFFCURVE",
"532 28 CURVE",
"533 30 LINE",
"533 36 OFFCURVE",
"526 48 OFFCURVE",
"523 49 CURVE",
"509 43 OFFCURVE",
"494 38 OFFCURVE",
"484 38 CURVE SMOOTH",
"473 38 OFFCURVE",
"471 45 OFFCURVE",
"471 86 CURVE SMOOTH",
"471 274 LINE SMOOTH",
"471 364 OFFCURVE",
"472 368 OFFCURVE",
"521 391 CURVE",
"521 396 OFFCURVE",
"515 411 OFFCURVE",
"512 412 CURVE",
"429 383 LINE SMOOTH",
"393 370 OFFCURVE",
"391 367 OFFCURVE",
"391 324 CURVE SMOOTH",
"391 20 LINE SMOOTH",
"391 -6 OFFCURVE",
"396 -12 OFFCURVE",
"408 -12 CURVE SMOOTH"
);
}
);
width = 574;
},
{
anchors = (
{
name = bottom;
position = "{283, 0}";
},
{
name = bottomleft;
position = "{75, 0}";
},
{
name = center;
position = "{283, 280}";
},
{
name = top;
position = "{283, 420}";
}
);
background = {
paths = (
{
closed = 1;
nodes = (
"282 -10 OFFCURVE",
"339 36 OFFCURVE",
"388 106 CURVE",
"388 155 LINE",
"341 88 OFFCURVE",
"305 56 OFFCURVE",
"248 56 CURVE SMOOTH",
"188 56 OFFCURVE",
"157 96 OFFCURVE",
"157 179 CURVE SMOOTH",
"157 380 LINE SMOOTH",
"157 406 OFFCURVE",
"152 412 OFFCURVE",
"140 412 CURVE SMOOTH",
"120 412 OFFCURVE",
"64 396 OFFCURVE",
"16 372 CURVE",
"15 370 LINE",
"15 364 OFFCURVE",
"21 351 OFFCURVE",
"24 350 CURVE",
"38 356 OFFCURVE",
"54 362 OFFCURVE",
"64 362 CURVE SMOOTH",
"75 362 OFFCURVE",
"77 355 OFFCURVE",
"77 314 CURVE SMOOTH",
"77 150 LINE SMOOTH",
"77 47 OFFCURVE",
"126 -10 OFFCURVE",
"207 -10 CURVE SMOOTH"
);
},
{
closed = 1;
nodes = (
"423 -12 OFFCURVE",
"479 4 OFFCURVE",
"527 28 CURVE",
"528 30 LINE",
"528 36 OFFCURVE",
"521 48 OFFCURVE",
"518 49 CURVE",
"504 43 OFFCURVE",
"489 38 OFFCURVE",
"479 38 CURVE SMOOTH",
"468 38 OFFCURVE",
"466 45 OFFCURVE",
"466 86 CURVE SMOOTH",
"466 274 LINE SMOOTH",
"466 364 OFFCURVE",
"467 368 OFFCURVE",
"516 391 CURVE",
"516 396 OFFCURVE",
"510 411 OFFCURVE",
"507 412 CURVE",
"424 383 LINE SMOOTH",
"388 370 OFFCURVE",
"386 367 OFFCURVE",
"386 324 CURVE SMOOTH",
"386 20 LINE SMOOTH",
"386 -6 OFFCURVE",
"391 -12 OFFCURVE",
"403 -12 CURVE SMOOTH"
);
}
);
};
layerId = "0ED38B93-C2B0-4B4A-9C6D-D7838A33C317";
paths = (
{
closed = 1;
nodes = (
"282 -10 OFFCURVE",
"339 36 OFFCURVE",
"388 106 CURVE",
"388 155 LINE",
"349 104 OFFCURVE",
"320 80 OFFCURVE",
"273 80 CURVE SMOOTH",
"216 80 OFFCURVE",
"187 112 OFFCURVE",
"187 179 CURVE SMOOTH",
"187 400 LINE SMOOTH",
"187 426 OFFCURVE",
"182 432 OFFCURVE",
"170 432 CURVE SMOOTH",
"145 432 OFFCURVE",
"76 414 OFFCURVE",
"16 387 CURVE",
"15 385 LINE",
"15 379 OFFCURVE",
"21 366 OFFCURVE",
"24 365 CURVE",
"38 370 OFFCURVE",
"54 375 OFFCURVE",
"64 375 CURVE SMOOTH",
"75 375 OFFCURVE",
"77 368 OFFCURVE",
"77 327 CURVE SMOOTH",
"77 150 LINE SMOOTH",
"77 47 OFFCURVE",
"126 -10 OFFCURVE",
"207 -10 CURVE SMOOTH"
);
},
{
closed = 1;
nodes = (
"428 -12 OFFCURVE",
"497 6 OFFCURVE",
"557 33 CURVE",
"558 35 LINE",
"558 41 OFFCURVE",
"552 54 OFFCURVE",
"549 55 CURVE",
"535 50 OFFCURVE",
"519 45 OFFCURVE",
"509 45 CURVE SMOOTH",
"498 45 OFFCURVE",
"496 52 OFFCURVE",
"496 93 CURVE SMOOTH",
"496 299 LINE SMOOTH",
"496 389 OFFCURVE",
"497 393 OFFCURVE",
"546 416 CURVE",
"546 421 OFFCURVE",
"540 436 OFFCURVE",
"537 437 CURVE",
"424 398 LINE SMOOTH",
"388 386 OFFCURVE",
"386 382 OFFCURVE",
"386 339 CURVE SMOOTH",
"386 20 LINE SMOOTH",
"386 -6 OFFCURVE",
"391 -12 OFFCURVE",
"403 -12 CURVE SMOOTH"
);
}
);
width = 594;
}
);
rightMetricsKey = "=|nuumen-teng";
unicode = E036;
},
{
color = 5;
glyphname = "quchris-teng";
lastChange = "2022-01-04 13:45:30 +0000";
layers = (
{
anchors = (
{
name = bottom;
position = "{226, 0}";
},
{
name = bottomleft;
position = "{67, 0}";
},
{
name = jointbar;
position = "{512, 70}";
},
{
name = top;
position = "{306, 400}";
}
);
background = {
paths = (
{
closed = 1;
nodes = (
"191 70 LINE",
"131 70 LINE SMOOTH",
"93 70 OFFCURVE",
"77 67 OFFCURVE",
"55 59 CURVE SMOOTH",
"23 47 OFFCURVE",
"-14 27 OFFCURVE",
"-39 9 CURVE",
"-40 8 OFFCURVE",
"-40 7 OFFCURVE",
"-40 6 CURVE SMOOTH",
"-40 -2 OFFCURVE",
"-32 -22 OFFCURVE",
"-27 -21 CURVE",
"7 -6 OFFCURVE",
"36 0 OFFCURVE",
"107 0 CURVE SMOOTH",
"291 0 LINE"
);
},
{
closed = 1;
nodes = (
"473 70 LINE",
"320 70 LINE SMOOTH",
"225 70 OFFCURVE",
"168 130 OFFCURVE",
"168 220 CURVE SMOOTH",
"168 310 OFFCURVE",
"215 360 OFFCURVE",
"289 360 CURVE SMOOTH",
"374 360 OFFCURVE",
"432 291 OFFCURVE",
"432 186 CURVE",
"518 186 LINE",
"518 224 LINE SMOOTH",
"518 329 OFFCURVE",
"454 410 OFFCURVE",
"338 410 CURVE SMOOTH",
"213 410 OFFCURVE",
"77 304 OFFCURVE",
"77 172 CURVE SMOOTH",
"77 76 OFFCURVE",
"142 0 OFFCURVE",
"262 0 CURVE",
"473 0 LINE"
);
}
);
};
layerId = "4397B867-53E7-4964-BB9B-A578920F109C";
paths = (
{
closed = 1;
nodes = (
"474 -278 LINE SMOOTH",
"511 -266 OFFCURVE",
"512 -262 OFFCURVE",
"512 -219 CURVE SMOOTH",
"512 224 LINE SMOOTH",
"512 329 OFFCURVE",
"450 410 OFFCURVE",
"338 410 CURVE SMOOTH",
"213 410 OFFCURVE",
"77 304 OFFCURVE",
"77 172 CURVE SMOOTH",
"77 87 OFFCURVE",
"142 20 OFFCURVE",
"262 20 CURVE",
"241 70 LINE",
"171 70 LINE SMOOTH",
"114 70 OFFCURVE",
"67 48 OFFCURVE",
"11 -1 CURVE",
"10 -4 LINE",
"10 -8 OFFCURVE",
"16 -20 OFFCURVE",
"21 -21 CURVE",
"48 -6 OFFCURVE",
"67 0 OFFCURVE",
"145 0 CURVE SMOOTH",
"473 0 LINE",
"473 70 LINE",
"307 70 LINE SMOOTH",
"212 70 OFFCURVE",
"155 130 OFFCURVE",
"155 220 CURVE SMOOTH",
"155 310 OFFCURVE",
"207 360 OFFCURVE",
"289 360 CURVE SMOOTH",
"374 360 OFFCURVE",
"432 291 OFFCURVE",
"432 186 CURVE SMOOTH",
"432 -149 LINE SMOOTH",
"432 -257 OFFCURVE",
"431 -261 OFFCURVE",
"362 -291 CURVE",
"362 -296 OFFCURVE",
"368 -311 OFFCURVE",
"371 -312 CURVE"
);
}
);
width = 587;
},
{
anchors = (
{
name = bottom;
position = "{221, 0}";
},
{
name = bottomleft;
position = "{72, 0}";
},
{
name = jointbar;
position = "{537, 94}";
},
{
name = top;
position = "{311, 420}";
}
);
background = {
paths = (
{
closed = 1;
nodes = (
"469 -278 LINE SMOOTH",
"506 -266 OFFCURVE",
"507 -262 OFFCURVE",
"507 -219 CURVE SMOOTH",
"507 224 LINE SMOOTH",
"507 329 OFFCURVE",
"445 410 OFFCURVE",
"333 410 CURVE SMOOTH",
"208 410 OFFCURVE",
"72 304 OFFCURVE",
"72 172 CURVE SMOOTH",
"72 87 OFFCURVE",
"137 20 OFFCURVE",
"257 20 CURVE",
"236 70 LINE",
"166 70 LINE SMOOTH",
"109 70 OFFCURVE",
"62 48 OFFCURVE",
"6 -1 CURVE",
"5 -4 LINE",
"5 -8 OFFCURVE",
"11 -20 OFFCURVE",
"16 -21 CURVE",
"43 -6 OFFCURVE",
"62 0 OFFCURVE",
"140 0 CURVE SMOOTH",
"468 0 LINE",
"468 70 LINE",
"302 70 LINE SMOOTH",
"207 70 OFFCURVE",
"150 130 OFFCURVE",
"150 220 CURVE SMOOTH",
"150 310 OFFCURVE",
"202 360 OFFCURVE",
"284 360 CURVE SMOOTH",
"369 360 OFFCURVE",
"427 291 OFFCURVE",
"427 186 CURVE SMOOTH",
"427 -149 LINE SMOOTH",
"427 -257 OFFCURVE",
"426 -261 OFFCURVE",
"357 -291 CURVE",
"357 -296 OFFCURVE",
"363 -311 OFFCURVE",
"366 -312 CURVE"
);
}
);
};
layerId = "0ED38B93-C2B0-4B4A-9C6D-D7838A33C317";
paths = (
{
closed = 1;
nodes = (
"499 -276 LINE SMOOTH",
"536 -265 OFFCURVE",
"537 -261 OFFCURVE",
"537 -218 CURVE SMOOTH",
"537 244 LINE SMOOTH",
"537 349 OFFCURVE",
"475 430 OFFCURVE",
"363 430 CURVE SMOOTH",
"224 430 OFFCURVE",
"72 315 OFFCURVE",
"72 172 CURVE SMOOTH",
"72 87 OFFCURVE",
"137 20 OFFCURVE",
"257 20 CURVE",
"225 94 LINE",
"176 94 LINE SMOOTH",
"115 94 OFFCURVE",
"65 65 OFFCURVE",
"6 -1 CURVE",
"5 -4 LINE",
"5 -8 OFFCURVE",
"11 -20 OFFCURVE",
"16 -21 CURVE",
"43 -6 OFFCURVE",
"62 0 OFFCURVE",
"140 0 CURVE SMOOTH",
"468 0 LINE",
"468 94 LINE",
"317 94 LINE SMOOTH",
"231 94 OFFCURVE",
"180 153 OFFCURVE",
"180 242 CURVE SMOOTH",
"180 315 OFFCURVE",
"220 356 OFFCURVE",
"285 356 CURVE SMOOTH",
"369 356 OFFCURVE",
"427 294 OFFCURVE",
"427 198 CURVE SMOOTH",
"427 -153 LINE SMOOTH",
"427 -261 OFFCURVE",
"426 -265 OFFCURVE",
"357 -295 CURVE",
"357 -300 OFFCURVE",
"363 -315 OFFCURVE",
"366 -316 CURVE"
);
}
);
width = 607;
}
);
leftMetricsKey = "=|parma-teng";
unicode = E037;
},
{
color = 5;
glyphname = "hwbombadil-teng";
lastChange = "2022-01-04 13:45:45 +0000";
layers = (
{
anchors = (
{
name = bottom;
position = "{244, 0}";
},
{
name = bottomleft;
position = "{10, 0}";
},
{
name = top;
position = "{244, 690}";
}
);
background = {
paths = (
{
closed = 1;
nodes = (
"437 80 OFFCURVE",
"415 74 OFFCURVE",
"378 74 CURVE SMOOTH",
"304 74 OFFCURVE",
"250 111 OFFCURVE",
"195 111 CURVE SMOOTH",
"176 111 OFFCURVE",
"154 105 OFFCURVE",
"134 95 CURVE",
"104 46 LINE",
"321 250 OFFCURVE",
"420 386 OFFCURVE",
"420 538 CURVE SMOOTH",
"420 638 OFFCURVE",
"358 712 OFFCURVE",
"241 712 CURVE SMOOTH",
"108 712 OFFCURVE",
"10 601 OFFCURVE",
"10 492 CURVE SMOOTH",
"10 455 OFFCURVE",
"30 425 OFFCURVE",
"63 425 CURVE SMOOTH",
"104 425 OFFCURVE",
"131 454 OFFCURVE",
"141 484 CURVE",
"112 501 OFFCURVE",
"95 525 OFFCURVE",
"95 552 CURVE SMOOTH",
"95 617 OFFCURVE",
"135 655 OFFCURVE",
"202 655 CURVE SMOOTH",
"281 655 OFFCURVE",
"327 596 OFFCURVE",
"327 508 CURVE SMOOTH",
"327 367 OFFCURVE",
"254 242 OFFCURVE",
"21 15 CURVE",
"20 14 OFFCURVE",
"20 14 OFFCURVE",
"20 12 CURVE SMOOTH",
"20 4 OFFCURVE",
"34 -14 OFFCURVE",
"39 -13 CURVE",
"83 19 OFFCURVE",
"114 31 OFFCURVE",
"163 31 CURVE SMOOTH",
"237 31 OFFCURVE",
"291 -6 OFFCURVE",
"346 -6 CURVE SMOOTH",
"392 -6 OFFCURVE",
"431 16 OFFCURVE",
"476 66 CURVE",
"477 67 OFFCURVE",
"477 67 OFFCURVE",
"477 69 CURVE SMOOTH",
"477 77 OFFCURVE",
"467 96 OFFCURVE",
"462 95 CURVE"
);
},
{
closed = 1;
nodes = (
"149 95 LINE",
"173 95 LINE",
"173 124 LINE",
"149 124 LINE"
);
}
);
};
layerId = "4397B867-53E7-4964-BB9B-A578920F109C";
paths = (
{
closed = 1;
nodes = (
"79 19 OFFCURVE",
"109 31 OFFCURVE",
"153 31 CURVE SMOOTH",
"227 31 OFFCURVE",
"284 -12 OFFCURVE",
"346 -12 CURVE SMOOTH",
"392 -12 OFFCURVE",
"431 10 OFFCURVE",
"476 59 CURVE",
"477 62 LINE",
"477 66 OFFCURVE",
"471 78 OFFCURVE",
"466 79 CURVE",
"444 64 OFFCURVE",
"424 58 OFFCURVE",
"378 58 CURVE SMOOTH",
"310 58 OFFCURVE",
"246 101 OFFCURVE",
"185 101 CURVE SMOOTH",
"166 101 OFFCURVE",
"144 95 OFFCURVE",
"124 85 CURVE",
"95 46 LINE",
"320 256 OFFCURVE",
"430 389 OFFCURVE",
"430 528 CURVE SMOOTH",
"430 634 OFFCURVE",
"368 712 OFFCURVE",
"251 712 CURVE SMOOTH",
"118 712 OFFCURVE",
"20 601 OFFCURVE",
"20 492 CURVE SMOOTH",
"20 455 OFFCURVE",
"40 425 OFFCURVE",
"73 425 CURVE SMOOTH",
"109 425 OFFCURVE",
"133 447 OFFCURVE",
"141 469 CURVE",
"115 492 OFFCURVE",
"99 525 OFFCURVE",
"99 562 CURVE SMOOTH",
"99 626 OFFCURVE",
"140 664 OFFCURVE",
"209 664 CURVE SMOOTH",
"299 664 OFFCURVE",
"352 597 OFFCURVE",
"352 498 CURVE SMOOTH",
"352 365 OFFCURVE",
"260 247 OFFCURVE",
"20 5 CURVE",
"20 0 OFFCURVE",
"30 -13 OFFCURVE",
"34 -13 CURVE"
);
},
{
closed = 1;
nodes = (
"156 92 LINE",
"153 106 LINE",
"129 106 LINE",
"129 77 LINE"
);
}
);
width = 477;
},
{
anchors = (
{
name = bottom;
position = "{249, 0}";
},
{
name = bottomleft;
position = "{5, 0}";
},
{
name = top;
position = "{249, 690}";
}
);
background = {
paths = (
{
closed = 1;
nodes = (
"74 19 OFFCURVE",
"104 31 OFFCURVE",
"148 31 CURVE SMOOTH",
"222 31 OFFCURVE",
"279 -12 OFFCURVE",
"341 -12 CURVE SMOOTH",
"387 -12 OFFCURVE",
"426 10 OFFCURVE",
"471 59 CURVE",
"472 62 LINE",
"472 66 OFFCURVE",
"466 78 OFFCURVE",
"461 79 CURVE",
"439 64 OFFCURVE",
"419 58 OFFCURVE",
"373 58 CURVE SMOOTH",
"305 58 OFFCURVE",
"241 101 OFFCURVE",
"180 101 CURVE SMOOTH",
"161 101 OFFCURVE",
"139 95 OFFCURVE",
"119 85 CURVE",
"90 46 LINE",
"315 256 OFFCURVE",
"425 389 OFFCURVE",
"425 528 CURVE SMOOTH",
"425 634 OFFCURVE",
"363 712 OFFCURVE",
"246 712 CURVE SMOOTH",
"113 712 OFFCURVE",
"15 601 OFFCURVE",
"15 492 CURVE SMOOTH",
"15 455 OFFCURVE",
"35 425 OFFCURVE",
"68 425 CURVE SMOOTH",
"104 425 OFFCURVE",
"128 447 OFFCURVE",
"136 469 CURVE",
"110 492 OFFCURVE",
"94 525 OFFCURVE",
"94 562 CURVE SMOOTH",
"94 626 OFFCURVE",
"135 664 OFFCURVE",
"204 664 CURVE SMOOTH",
"294 664 OFFCURVE",
"347 597 OFFCURVE",
"347 498 CURVE SMOOTH",
"347 365 OFFCURVE",
"255 247 OFFCURVE",
"15 5 CURVE",
"15 0 OFFCURVE",
"25 -13 OFFCURVE",
"29 -13 CURVE"
);
},
{
closed = 1;
nodes = (
"151 92 LINE",
"148 106 LINE",
"124 106 LINE",
"124 77 LINE"
);
}
);
};
layerId = "0ED38B93-C2B0-4B4A-9C6D-D7838A33C317";
paths = (
{
closed = 1;
nodes = (
"74 19 OFFCURVE",
"104 31 OFFCURVE",
"148 31 CURVE SMOOTH",
"222 31 OFFCURVE",
"279 -12 OFFCURVE",
"341 -12 CURVE SMOOTH",
"394 -12 OFFCURVE",
"439 17 OFFCURVE",
"491 83 CURVE",
"492 86 LINE",
"492 90 OFFCURVE",
"486 102 OFFCURVE",
"481 103 CURVE",
"459 88 OFFCURVE",
"439 82 OFFCURVE",
"393 82 CURVE SMOOTH",
"325 82 OFFCURVE",
"261 125 OFFCURVE",
"200 125 CURVE SMOOTH",
"181 125 OFFCURVE",
"159 119 OFFCURVE",
"139 109 CURVE",
"90 46 LINE",
"328 252 OFFCURVE",
"445 382 OFFCURVE",
"445 518 CURVE SMOOTH",
"445 630 OFFCURVE",
"380 712 OFFCURVE",
"256 712 CURVE SMOOTH",
"117 712 OFFCURVE",
"15 606 OFFCURVE",
"15 502 CURVE SMOOTH",
"15 459 OFFCURVE",
"40 425 OFFCURVE",
"80 425 CURVE SMOOTH",
"126 425 OFFCURVE",
"156 457 OFFCURVE",
"166 489 CURVE",
"140 512 OFFCURVE",
"124 545 OFFCURVE",
"124 582 CURVE SMOOTH",
"124 627 OFFCURVE",
"153 654 OFFCURVE",
"202 654 CURVE SMOOTH",
"288 654 OFFCURVE",
"337 587 OFFCURVE",
"337 488 CURVE SMOOTH",
"337 358 OFFCURVE",
"248 242 OFFCURVE",
"15 5 CURVE",
"15 0 OFFCURVE",
"25 -13 OFFCURVE",
"29 -13 CURVE"
);
},
{
closed = 1;
nodes = (
"185 120 LINE",
"182 134 LINE",
"158 134 LINE",
"158 105 LINE"
);
}
);
width = 487;
}
);
unicode = E039;
},
{
color = 5;
glyphname = "hwlowdham-teng";
lastChange = "2022-01-04 13:47:08 +0000";
layers = (
{
anchors = (
{
name = bottom;
position = "{339, 70}";
},
{
name = bottomleft;
position = "{-110, -200}";
},
{
name = top;
position = "{359, 400}";
}
);
background = {
paths = (
{
closed = 1;
nodes = (
"308 414 OFFCURVE",
"264 391 OFFCURVE",
"233 362 CURVE",
"230 358 OFFCURVE",
"241 341 OFFCURVE",
"246 342 CURVE",
"263 355 OFFCURVE",
"282 361 OFFCURVE",
"298 361 CURVE SMOOTH",
"334 361 OFFCURVE",
"358 339 OFFCURVE",
"358 288 CURVE SMOOTH",
"358 97 OFFCURVE",
"18 -50 OFFCURVE",
"18 -198 CURVE SMOOTH",
"18 -268 OFFCURVE",
"54 -307 OFFCURVE",
"128 -307 CURVE SMOOTH",
"183 -307 OFFCURVE",
"228 -281 OFFCURVE",
"268 -240 CURVE",
"270 -237 OFFCURVE",
"258 -222 OFFCURVE",
"255 -223 CURVE",
"233 -239 OFFCURVE",
"208 -247 OFFCURVE",
"186 -247 CURVE SMOOTH",
"132 -247 OFFCURVE",
"108 -222 OFFCURVE",
"108 -170 CURVE SMOOTH",
"108 2 OFFCURVE",
"448 138 OFFCURVE",
"448 316 CURVE SMOOTH",
"448 373 OFFCURVE",
"420 414 OFFCURVE",
"355 414 CURVE SMOOTH"
);
},
{
closed = 1;
nodes = (
"47 653 OFFCURVE",
"58 656 OFFCURVE",
"66 656 CURVE SMOOTH",
"78 656 OFFCURVE",
"85 649 OFFCURVE",
"85 608 CURVE SMOOTH",
"85 -120 LINE",
"171 -20 LINE",
"171 640 LINE SMOOTH",
"171 703 OFFCURVE",
"161 712 OFFCURVE",
"142 712 CURVE SMOOTH",
"114 712 OFFCURVE",
"69 693 OFFCURVE",
"31 672 CURVE",
"26 669 OFFCURVE",
"25 667 OFFCURVE",
"25 663 CURVE SMOOTH",
"25 657 OFFCURVE",
"30 645 OFFCURVE",
"33 645 CURVE"
);
}
);
};
layerId = "4397B867-53E7-4964-BB9B-A578920F109C";
paths = (
{
closed = 1;
nodes = (
"183 -307 OFFCURVE",
"228 -281 OFFCURVE",
"268 -240 CURVE",
"268 -236 OFFCURVE",
"259 -223 OFFCURVE",
"255 -223 CURVE",
"230 -240 OFFCURVE",
"203 -249 OFFCURVE",
"175 -249 CURVE SMOOTH",
"122 -249 OFFCURVE",
"98 -223 OFFCURVE",
"98 -170 CURVE SMOOTH",
"98 -3 OFFCURVE",
"448 133 OFFCURVE",
"448 316 CURVE SMOOTH",
"448 373 OFFCURVE",
"420 414 OFFCURVE",
"355 414 CURVE SMOOTH",
"308 414 OFFCURVE",
"264 391 OFFCURVE",
"233 362 CURVE",
"233 358 OFFCURVE",
"242 343 OFFCURVE",
"246 342 CURVE",
"266 358 OFFCURVE",
"289 366 OFFCURVE",
"308 366 CURVE SMOOTH",
"344 366 OFFCURVE",
"368 344 OFFCURVE",
"368 293 CURVE SMOOTH",
"368 105 OFFCURVE",
"18 -43 OFFCURVE",
"18 -198 CURVE SMOOTH",
"18 -268 OFFCURVE",
"54 -307 OFFCURVE",
"128 -307 CURVE SMOOTH"
);
},
{
closed = 1;
nodes = (
"165 -20 LINE",
"165 680 LINE SMOOTH",
"165 706 OFFCURVE",
"160 712 OFFCURVE",
"148 712 CURVE SMOOTH",
"128 712 OFFCURVE",
"72 696 OFFCURVE",
"24 672 CURVE",
"23 670 LINE",
"23 664 OFFCURVE",
"29 651 OFFCURVE",
"32 650 CURVE",
"46 656 OFFCURVE",
"62 662 OFFCURVE",
"72 662 CURVE SMOOTH",
"83 662 OFFCURVE",
"85 655 OFFCURVE",
"85 614 CURVE SMOOTH",
"85 -120 LINE"
);
}
);
width = 478;
},
{
anchors = (
{
name = bottom;
position = "{350, 70}";
},
{
name = bottomleft;
position = "{-69, -200}";
},
{
name = top;
position = "{388, 420}";
}
);
background = {
paths = (
{
closed = 1;
nodes = (
"184 -307 OFFCURVE",
"229 -281 OFFCURVE",
"269 -240 CURVE",
"269 -236 OFFCURVE",
"260 -223 OFFCURVE",
"256 -223 CURVE",
"231 -240 OFFCURVE",
"204 -249 OFFCURVE",
"176 -249 CURVE SMOOTH",
"123 -249 OFFCURVE",
"99 -223 OFFCURVE",
"99 -170 CURVE SMOOTH",
"99 -3 OFFCURVE",
"449 133 OFFCURVE",
"449 316 CURVE SMOOTH",
"449 373 OFFCURVE",
"421 414 OFFCURVE",
"356 414 CURVE SMOOTH",
"309 414 OFFCURVE",
"265 391 OFFCURVE",
"234 362 CURVE",
"234 358 OFFCURVE",
"243 343 OFFCURVE",
"247 342 CURVE",
"267 358 OFFCURVE",
"290 366 OFFCURVE",
"309 366 CURVE SMOOTH",
"345 366 OFFCURVE",
"369 344 OFFCURVE",
"369 293 CURVE SMOOTH",
"369 105 OFFCURVE",
"19 -43 OFFCURVE",
"19 -198 CURVE SMOOTH",
"19 -268 OFFCURVE",
"55 -307 OFFCURVE",
"129 -307 CURVE SMOOTH"
);
},
{
closed = 1;
nodes = (
"166 -20 LINE",
"166 680 LINE SMOOTH",
"166 706 OFFCURVE",
"161 712 OFFCURVE",
"149 712 CURVE SMOOTH",
"129 712 OFFCURVE",
"73 696 OFFCURVE",
"25 672 CURVE",
"24 670 LINE",
"24 664 OFFCURVE",
"30 651 OFFCURVE",
"33 650 CURVE",
"47 656 OFFCURVE",
"63 662 OFFCURVE",
"73 662 CURVE SMOOTH",
"84 662 OFFCURVE",
"86 655 OFFCURVE",
"86 614 CURVE SMOOTH",
"86 -120 LINE"
);
}
);
};
layerId = "0ED38B93-C2B0-4B4A-9C6D-D7838A33C317";
paths = (
{
closed = 1;
nodes = (
"195 -307 OFFCURVE",
"249 -269 OFFCURVE",
"297 -210 CURVE",
"297 -206 OFFCURVE",
"288 -193 OFFCURVE",
"284 -193 CURVE",
"259 -210 OFFCURVE",
"232 -219 OFFCURVE",
"204 -219 CURVE SMOOTH",
"151 -219 OFFCURVE",
"127 -193 OFFCURVE",
"127 -140 CURVE SMOOTH",
"127 27 OFFCURVE",
"477 157 OFFCURVE",
"477 336 CURVE SMOOTH",
"477 393 OFFCURVE",
"449 434 OFFCURVE",
"384 434 CURVE SMOOTH",
"326 434 OFFCURVE",
"272 406 OFFCURVE",
"234 372 CURVE",
"234 368 OFFCURVE",
"243 353 OFFCURVE",
"247 352 CURVE",
"264 365 OFFCURVE",
"283 372 OFFCURVE",
"299 372 CURVE SMOOTH",
"341 372 OFFCURVE",
"369 348 OFFCURVE",
"369 293 CURVE SMOOTH",
"369 105 OFFCURVE",
"19 -43 OFFCURVE",
"19 -198 CURVE SMOOTH",
"19 -268 OFFCURVE",
"55 -307 OFFCURVE",
"129 -307 CURVE SMOOTH"
);
},
{
closed = 1;
nodes = (
"185 10 LINE",
"185 684 LINE SMOOTH",
"185 710 OFFCURVE",
"180 716 OFFCURVE",
"168 716 CURVE SMOOTH",
"143 716 OFFCURVE",
"74 698 OFFCURVE",
"14 671 CURVE",
"13 669 LINE",
"13 663 OFFCURVE",
"19 650 OFFCURVE",
"22 649 CURVE",
"36 654 OFFCURVE",
"52 659 OFFCURVE",
"62 659 CURVE SMOOTH",
"73 659 OFFCURVE",
"75 652 OFFCURVE",
"75 611 CURVE SMOOTH",
"75 -130 LINE"
);
}
);
width = 502;
}
);
rightKerningGroup = roomen;
unicode = E03C;
},
{
color = 5;
glyphname = "vaiya-teng";
lastChange = "2022-01-04 13:47:56 +0000";
layers = (
{
anchors = (
{
name = bottom;
position = "{302, 0}";
},
{
name = bottomleft;
position = "{70, 0}";
},
{
name = top;
position = "{302, 400}";
}
);
background = {
paths = (
{
closed = 1;
nodes = (
"334 0 OFFCURVE",
"470 107 OFFCURVE",
"470 239 CURVE SMOOTH",
"470 335 OFFCURVE",
"405 410 OFFCURVE",
"285 410 CURVE SMOOTH",
"160 410 OFFCURVE",
"24 303 OFFCURVE",
"24 171 CURVE SMOOTH",
"24 75 OFFCURVE",
"89 0 OFFCURVE",
"209 0 CURVE SMOOTH"
);
},
{
closed = 1;
nodes = (
"173 50 OFFCURVE",
"115 117 OFFCURVE",
"115 219 CURVE SMOOTH",
"115 310 OFFCURVE",
"162 360 OFFCURVE",
"236 360 CURVE SMOOTH",
"321 360 OFFCURVE",
"379 293 OFFCURVE",
"379 191 CURVE SMOOTH",
"379 100 OFFCURVE",
"332 50 OFFCURVE",
"258 50 CURVE SMOOTH"
);
},
{
closed = 1;
nodes = (
"478 0 LINE SMOOTH",
"528 0 OFFCURVE",
"569 19 OFFCURVE",
"618 62 CURVE",
"619 63 OFFCURVE",
"619 63 OFFCURVE",
"619 65 CURVE SMOOTH",
"619 73 OFFCURVE",
"609 92 OFFCURVE",
"604 91 CURVE",
"570 76 OFFCURVE",
"541 70 OFFCURVE",
"470 70 CURVE SMOOTH",
"368 70 LINE",
"209 0 LINE"
);
}
);
};
layerId = "4397B867-53E7-4964-BB9B-A578920F109C";
paths = (
{
closed = 1;
nodes = (
"350 0 OFFCURVE",
"470 101 OFFCURVE",
"470 239 CURVE SMOOTH",
"470 335 OFFCURVE",
"410 410 OFFCURVE",
"298 410 CURVE SMOOTH",
"170 410 OFFCURVE",
"50 310 OFFCURVE",
"50 171 CURVE SMOOTH",
"50 75 OFFCURVE",
"110 0 OFFCURVE",
"222 0 CURVE SMOOTH"
);
},
{
closed = 1;
nodes = (
"458 0 LINE SMOOTH",
"515 0 OFFCURVE",
"562 22 OFFCURVE",
"618 71 CURVE",
"619 74 LINE",
"619 78 OFFCURVE",
"613 90 OFFCURVE",
"608 91 CURVE",
"581 76 OFFCURVE",
"562 70 OFFCURVE",
"484 70 CURVE SMOOTH",
"378 70 LINE",
"323 35 LINE",
"222 0 LINE"
);
},
{
closed = 1;
nodes = (
"187 47 OFFCURVE",
"125 117 OFFCURVE",
"125 222 CURVE SMOOTH",
"125 313 OFFCURVE",
"172 363 OFFCURVE",
"246 363 CURVE SMOOTH",
"333 363 OFFCURVE",
"395 292 OFFCURVE",
"395 188 CURVE SMOOTH",
"395 97 OFFCURVE",
"348 47 OFFCURVE",
"274 47 CURVE SMOOTH"
);
}
);
width = 619;
},
{
anchors = (
{
name = bottom;
position = "{297, 0}";
},
{
name = bottomleft;
position = "{65, 0}";
},
{
name = top;
position = "{312, 420}";
}
);
background = {
paths = (
{
closed = 1;
nodes = (
"345 0 OFFCURVE",
"465 101 OFFCURVE",
"465 239 CURVE SMOOTH",
"465 335 OFFCURVE",
"405 410 OFFCURVE",
"293 410 CURVE SMOOTH",
"165 410 OFFCURVE",
"45 310 OFFCURVE",
"45 171 CURVE SMOOTH",
"45 75 OFFCURVE",
"105 0 OFFCURVE",
"217 0 CURVE SMOOTH"
);
},
{
closed = 1;
nodes = (
"182 47 OFFCURVE",
"120 117 OFFCURVE",
"120 222 CURVE SMOOTH",
"120 313 OFFCURVE",
"167 363 OFFCURVE",
"241 363 CURVE SMOOTH",
"328 363 OFFCURVE",
"390 292 OFFCURVE",
"390 188 CURVE SMOOTH",
"390 97 OFFCURVE",
"343 47 OFFCURVE",
"269 47 CURVE SMOOTH"
);
},
{
closed = 1;
nodes = (
"453 0 LINE SMOOTH",
"510 0 OFFCURVE",
"557 22 OFFCURVE",
"613 71 CURVE",
"614 74 LINE",
"614 78 OFFCURVE",
"608 90 OFFCURVE",
"603 91 CURVE",
"576 76 OFFCURVE",
"557 70 OFFCURVE",
"479 70 CURVE SMOOTH",
"373 70 LINE",
"338 35 LINE",
"217 0 LINE"
);
}
);
};
layerId = "0ED38B93-C2B0-4B4A-9C6D-D7838A33C317";
paths = (
{
closed = 1;
nodes = (
"357 0 OFFCURVE",
"485 109 OFFCURVE",
"485 259 CURVE SMOOTH",
"485 355 OFFCURVE",
"423 430 OFFCURVE",
"308 430 CURVE SMOOTH",
"173 430 OFFCURVE",
"45 322 OFFCURVE",
"45 171 CURVE SMOOTH",
"45 75 OFFCURVE",
"107 0 OFFCURVE",
"222 0 CURVE SMOOTH"
);
},
{
closed = 1;
nodes = (
"453 0 LINE SMOOTH",
"517 0 OFFCURVE",
"570 30 OFFCURVE",
"633 95 CURVE",
"634 98 LINE",
"634 102 OFFCURVE",
"628 114 OFFCURVE",
"623 115 CURVE",
"596 100 OFFCURVE",
"577 94 OFFCURVE",
"499 94 CURVE SMOOTH",
"393 94 LINE",
"322 35 LINE",
"222 0 LINE"
);
},
{
closed = 1;
nodes = (
"202 57 OFFCURVE",
"140 135 OFFCURVE",
"140 252 CURVE SMOOTH",
"140 330 OFFCURVE",
"179 373 OFFCURVE",
"241 373 CURVE SMOOTH",
"328 373 OFFCURVE",
"390 294 OFFCURVE",
"390 178 CURVE SMOOTH",
"390 100 OFFCURVE",
"351 57 OFFCURVE",
"289 57 CURVE SMOOTH"
);
}
);
width = 629;
}
);
leftKerningGroup = Round;
leftMetricsKey = "uure-teng";
rightKerningGroup = vaiya;
rightMetricsKey = "hwbombadil-teng";
unicode = E03D;
},
{
glyphname = "sarincefina-teng";
lastChange = "2022-01-04 13:46:45 +0000";
layers = (
{
anchors = (
{
name = _jointbar;
position = "{0, 70}";
},
{
name = _sarince;
position = "{0, 0}";
},
{
name = bottom;
position = "{207, -217}";
},
{
name = top;
position = "{287, 100}";
}
);
background = {
paths = (
{
closed = 1;
nodes = (
"0 70 LINE SMOOTH",
"-28 70 OFFCURVE",
"-35 63 OFFCURVE",
"-35 35 CURVE SMOOTH",
"-35 7 OFFCURVE",
"-28 0 OFFCURVE",
"0 0 CURVE SMOOTH",
"191 0 LINE SMOOTH",
"251 0 OFFCURVE",
"272 -22 OFFCURVE",
"272 -60 CURVE SMOOTH",
"272 -109 OFFCURVE",
"238 -144 OFFCURVE",
"195 -144 CURVE SMOOTH",
"165 -144 OFFCURVE",
"151 -125 OFFCURVE",
"142 -77 CURVE",
"139 -76 OFFCURVE",
"135 -76 OFFCURVE",
"132 -76 CURVE SMOOTH",
"97 -76 OFFCURVE",
"59 -98 OFFCURVE",
"59 -140 CURVE SMOOTH",
"59 -172 OFFCURVE",
"81 -197 OFFCURVE",
"132 -197 CURVE SMOOTH",
"248 -197 OFFCURVE",
"359 -111 OFFCURVE",
"359 -23 CURVE SMOOTH",
"359 39 OFFCURVE",
"328 70 OFFCURVE",
"241 70 CURVE SMOOTH"
);
}
);
};
layerId = "4397B867-53E7-4964-BB9B-A578920F109C";
paths = (
{
closed = 1;
nodes = (
"338 -217 OFFCURVE",
"449 -126 OFFCURVE",
"449 -33 CURVE SMOOTH",
"449 35 OFFCURVE",
"409 70 OFFCURVE",
"325 70 CURVE SMOOTH",
"0 70 LINE SMOOTH",
"-28 70 OFFCURVE",
"-35 63 OFFCURVE",
"-35 35 CURVE SMOOTH",
"-35 7 OFFCURVE",
"-28 0 OFFCURVE",
"0 0 CURVE SMOOTH",
"275 0 LINE SMOOTH",
"358 0 OFFCURVE",
"383 -18 OFFCURVE",
"383 -72 CURVE SMOOTH",
"383 -128 OFFCURVE",
"339 -164 OFFCURVE",
"287 -164 CURVE SMOOTH",
"255 -164 OFFCURVE",
"241 -145 OFFCURVE",
"232 -97 CURVE",
"229 -96 OFFCURVE",
"225 -96 OFFCURVE",
"222 -96 CURVE SMOOTH",
"187 -96 OFFCURVE",
"149 -118 OFFCURVE",
"149 -160 CURVE SMOOTH",
"149 -192 OFFCURVE",
"171 -217 OFFCURVE",
"222 -217 CURVE SMOOTH"
);
}
);
width = 464;
},
{
anchors = (
{
name = _jointbar;
position = "{0, 94}";
},
{
name = _sarince;
position = "{0, 0}";
},
{
name = bottom;
position = "{212, -237}";
},
{
name = top;
position = "{307, 124}";
}
);
background = {
paths = (
{
closed = 1;
nodes = (
"338 -217 OFFCURVE",
"449 -126 OFFCURVE",
"449 -33 CURVE SMOOTH",
"449 35 OFFCURVE",
"409 70 OFFCURVE",
"325 70 CURVE SMOOTH",
"0 70 LINE SMOOTH",
"-28 70 OFFCURVE",
"-35 63 OFFCURVE",
"-35 35 CURVE SMOOTH",
"-35 7 OFFCURVE",
"-28 0 OFFCURVE",
"0 0 CURVE SMOOTH",
"275 0 LINE SMOOTH",
"358 0 OFFCURVE",
"383 -18 OFFCURVE",
"383 -72 CURVE SMOOTH",
"383 -128 OFFCURVE",
"339 -164 OFFCURVE",
"287 -164 CURVE SMOOTH",
"255 -164 OFFCURVE",
"241 -145 OFFCURVE",
"232 -97 CURVE",
"229 -96 OFFCURVE",
"225 -96 OFFCURVE",
"222 -96 CURVE SMOOTH",
"187 -96 OFFCURVE",
"149 -118 OFFCURVE",
"149 -160 CURVE SMOOTH",
"149 -192 OFFCURVE",
"171 -217 OFFCURVE",
"222 -217 CURVE SMOOTH"
);
}
);
};
layerId = "0ED38B93-C2B0-4B4A-9C6D-D7838A33C317";
paths = (
{
closed = 1;
nodes = (
"348 -237 OFFCURVE",
"469 -125 OFFCURVE",
"469 -21 CURVE SMOOTH",
"469 55 OFFCURVE",
"436 94 OFFCURVE",
"345 94 CURVE SMOOTH",
"0 94 LINE SMOOTH",
"-28 94 OFFCURVE",
"-35 85 OFFCURVE",
"-35 47 CURVE SMOOTH",
"-35 9 OFFCURVE",
"-28 0 OFFCURVE",
"0 0 CURVE SMOOTH",
"280 0 LINE SMOOTH",
"373 0 OFFCURVE",
"388 -19 OFFCURVE",
"388 -75 CURVE SMOOTH",
"388 -137 OFFCURVE",
"349 -177 OFFCURVE",
"305 -177 CURVE SMOOTH",
"270 -177 OFFCURVE",
"256 -157 OFFCURVE",
"247 -105 CURVE",
"241 -103 OFFCURVE",
"233 -102 OFFCURVE",
"227 -102 CURVE SMOOTH",
"187 -102 OFFCURVE",
"144 -125 OFFCURVE",
"144 -170 CURVE SMOOTH",
"144 -207 OFFCURVE",
"169 -237 OFFCURVE",
"227 -237 CURVE SMOOTH"
);
}
);
width = 479;
}
);
rightKerningGroup = sarinceBottom;
unicode = E058;
},
{
color = 5;
glyphname = "lambe-teng.big";
lastChange = "2022-01-04 13:48:06 +0000";
layers = (
{
anchors = (
{
name = bottom;
position = "{343, 253}";
},
{
name = bottomleft;
position = "{-30, -100}";
},
{
name = top;
position = "{373, 400}";
}
);
background = {
paths = (
{
closed = 1;
nodes = (
"471 -185 OFFCURVE",
"615 -44 OFFCURVE",
"615 70 CURVE SMOOTH",
"615 125 OFFCURVE",
"592 150 OFFCURVE",
"554 150 CURVE SMOOTH",
"527 150 OFFCURVE",
"502 133 OFFCURVE",
"492 113 CURVE",
"522 84 OFFCURVE",
"534 59 OFFCURVE",
"534 24 CURVE SMOOTH",
"534 -66 OFFCURVE",
"462 -136 OFFCURVE",
"338 -136 CURVE SMOOTH",
"213 -136 OFFCURVE",
"129 -54 OFFCURVE",
"129 70 CURVE SMOOTH",
"129 172 OFFCURVE",
"186 253 OFFCURVE",
"328 330 CURVE",
"283 336 LINE",
"125 261 OFFCURVE",
"51 168 OFFCURVE",
"51 42 CURVE SMOOTH",
"51 -87 OFFCURVE",
"137 -185 OFFCURVE",
"288 -185 CURVE SMOOTH"
);
},
{
closed = 1;
nodes = (
"290 319 LINE",
"290 342 LINE",
"263 342 LINE",
"263 319 LINE"
);
},
{
closed = 1;
nodes = (
"78 324 OFFCURVE",
"97 330 OFFCURVE",
"175 330 CURVE SMOOTH",
"466 330 LINE SMOOTH",
"523 330 OFFCURVE",
"570 352 OFFCURVE",
"626 401 CURVE",
"627 404 LINE",
"627 408 OFFCURVE",
"621 420 OFFCURVE",
"616 421 CURVE",
"589 406 OFFCURVE",
"570 400 OFFCURVE",
"492 400 CURVE SMOOTH",
"201 400 LINE SMOOTH",
"144 400 OFFCURVE",
"97 378 OFFCURVE",
"41 329 CURVE",
"40 326 LINE",
"40 322 OFFCURVE",
"46 310 OFFCURVE",
"51 309 CURVE"
);
}
);
};
layerId = "4397B867-53E7-4964-BB9B-A578920F109C";
paths = (
{
closed = 1;
nodes = (
"502 -215 OFFCURVE",
"655 -63 OFFCURVE",
"655 60 CURVE SMOOTH",
"655 115 OFFCURVE",
"632 140 OFFCURVE",
"594 140 CURVE SMOOTH",
"567 140 OFFCURVE",
"542 123 OFFCURVE",
"532 103 CURVE",
"562 74 OFFCURVE",
"574 49 OFFCURVE",
"574 14 CURVE SMOOTH",
"574 -87 OFFCURVE",
"495 -166 OFFCURVE",
"358 -166 CURVE SMOOTH",
"221 -166 OFFCURVE",
"129 -76 OFFCURVE",
"129 60 CURVE SMOOTH",
"129 166 OFFCURVE",
"186 250 OFFCURVE",
"328 330 CURVE",
"283 336 LINE",
"125 258 OFFCURVE",
"51 162 OFFCURVE",
"51 32 CURVE SMOOTH",
"51 -108 OFFCURVE",
"144 -215 OFFCURVE",
"308 -215 CURVE SMOOTH"
);
},
{
closed = 1;
nodes = (
"290 319 LINE",
"290 342 LINE",
"263 342 LINE",
"263 319 LINE"
);
},
{
closed = 1;
nodes = (
"78 324 OFFCURVE",
"97 330 OFFCURVE",
"175 330 CURVE SMOOTH",
"506 330 LINE SMOOTH",
"563 330 OFFCURVE",
"610 352 OFFCURVE",
"666 401 CURVE",
"667 404 LINE",
"667 408 OFFCURVE",
"661 420 OFFCURVE",
"656 421 CURVE",
"629 406 OFFCURVE",
"610 400 OFFCURVE",
"532 400 CURVE SMOOTH",
"201 400 LINE SMOOTH",
"144 400 OFFCURVE",
"97 378 OFFCURVE",
"41 329 CURVE",
"40 326 LINE",
"40 322 OFFCURVE",
"46 310 OFFCURVE",
"51 309 CURVE"
);
}
);
width = 680;
},
{
anchors = (
{
name = bottom;
position = "{346, 249}";
},
{
name = bottomleft;
position = "{-27, -100}";
},
{
name = top;
position = "{381, 420}";
}
);
background = {
paths = (
{
closed = 1;
nodes = (
"466 -185 OFFCURVE",
"610 -44 OFFCURVE",
"610 70 CURVE SMOOTH",
"610 125 OFFCURVE",
"587 150 OFFCURVE",
"549 150 CURVE SMOOTH",
"522 150 OFFCURVE",
"497 133 OFFCURVE",
"487 113 CURVE",
"517 84 OFFCURVE",
"529 59 OFFCURVE",
"529 24 CURVE SMOOTH",
"529 -66 OFFCURVE",
"457 -136 OFFCURVE",
"333 -136 CURVE SMOOTH",
"208 -136 OFFCURVE",
"124 -54 OFFCURVE",
"124 70 CURVE SMOOTH",
"124 172 OFFCURVE",
"181 253 OFFCURVE",
"323 330 CURVE",
"278 336 LINE",
"120 261 OFFCURVE",
"46 168 OFFCURVE",
"46 42 CURVE SMOOTH",
"46 -87 OFFCURVE",
"132 -185 OFFCURVE",
"283 -185 CURVE SMOOTH"
);
},
{
closed = 1;
nodes = (
"285 319 LINE",
"285 342 LINE",
"258 342 LINE",
"258 319 LINE"
);
},
{
closed = 1;
nodes = (
"73 324 OFFCURVE",
"92 330 OFFCURVE",
"170 330 CURVE SMOOTH",
"461 330 LINE SMOOTH",
"518 330 OFFCURVE",
"565 352 OFFCURVE",
"621 401 CURVE",
"622 404 LINE",
"622 408 OFFCURVE",
"616 420 OFFCURVE",
"611 421 CURVE",
"584 406 OFFCURVE",
"565 400 OFFCURVE",
"487 400 CURVE SMOOTH",
"196 400 LINE SMOOTH",
"139 400 OFFCURVE",
"92 378 OFFCURVE",
"36 329 CURVE",
"35 326 LINE",
"35 322 OFFCURVE",
"41 310 OFFCURVE",
"46 309 CURVE"
);
}
);
};
layerId = "0ED38B93-C2B0-4B4A-9C6D-D7838A33C317";
paths = (
{
closed = 1;
nodes = (
"501 -235 OFFCURVE",
"678 -60 OFFCURVE",
"678 76 CURVE SMOOTH",
"678 131 OFFCURVE",
"655 156 OFFCURVE",
"617 156 CURVE SMOOTH",
"581 156 OFFCURVE",
"548 134 OFFCURVE",
"535 109 CURVE",
"565 77 OFFCURVE",
"577 49 OFFCURVE",
"577 10 CURVE SMOOTH",
"577 -100 OFFCURVE",
"508 -160 OFFCURVE",
"381 -160 CURVE SMOOTH",
"244 -160 OFFCURVE",
"152 -70 OFFCURVE",
"152 66 CURVE SMOOTH",
"152 168 OFFCURVE",
"206 249 OFFCURVE",
"341 326 CURVE",
"296 332 LINE",
"126 249 OFFCURVE",
"46 149 OFFCURVE",
"46 12 CURVE SMOOTH",
"46 -128 OFFCURVE",
"139 -235 OFFCURVE",
"303 -235 CURVE SMOOTH"
);
},
{
closed = 1;
nodes = (
"303 315 LINE",
"303 338 LINE",
"276 338 LINE",
"276 315 LINE"
);
},
{
closed = 1;
nodes = (
"73 320 OFFCURVE",
"92 326 OFFCURVE",
"170 326 CURVE SMOOTH",
"499 326 LINE SMOOTH",
"567 326 OFFCURVE",
"623 355 OFFCURVE",
"689 421 CURVE",
"690 424 LINE",
"690 428 OFFCURVE",
"684 440 OFFCURVE",
"679 441 CURVE",
"652 426 OFFCURVE",
"633 420 OFFCURVE",
"555 420 CURVE SMOOTH",
"226 420 LINE SMOOTH",
"158 420 OFFCURVE",
"103 391 OFFCURVE",
"36 325 CURVE",
"35 322 LINE",
"35 318 OFFCURVE",
"41 306 OFFCURVE",
"46 305 CURVE"
);
}
);
width = 698;
}
);
leftMetricsKey = "lambe-teng";
rightMetricsKey = "lambe-teng";
},
{
color = 5;
glyphname = "alda-teng.big";
lastChange = "2022-01-04 13:48:09 +0000";
layers = (
{
anchors = (
{
name = bottom;
position = "{358, 335}";
},
{
name = bottomleft;
position = "{20, -170}";
},
{
name = top;
position = "{320, 400}";
}
);
background = {
paths = (
{
closed = 1;
nodes = (
"411 -217 OFFCURVE",
"560 -117 OFFCURVE",
"560 -15 CURVE SMOOTH",
"560 40 OFFCURVE",
"526 68 OFFCURVE",
"432 68 CURVE SMOOTH",
"255 68 LINE SMOOTH",
"159 68 OFFCURVE",
"129 100 OFFCURVE",
"129 160 CURVE SMOOTH",
"129 222 OFFCURVE",
"174 275 OFFCURVE",
"288 330 CURVE",
"243 336 LINE",
"125 283 OFFCURVE",
"51 217 OFFCURVE",
"51 132 CURVE SMOOTH",
"51 50 OFFCURVE",
"98 -2 OFFCURVE",
"230 -2 CURVE SMOOTH",
"407 -2 LINE SMOOTH",
"463 -2 OFFCURVE",
"482 -22 OFFCURVE",
"482 -58 CURVE SMOOTH",
"482 -123 OFFCURVE",
"413 -168 OFFCURVE",
"326 -168 CURVE SMOOTH",
"265 -168 OFFCURVE",
"243 -147 OFFCURVE",
"230 -82 CURVE",
"226 -81 OFFCURVE",
"222 -81 OFFCURVE",
"220 -81 CURVE SMOOTH",
"186 -81 OFFCURVE",
"149 -100 OFFCURVE",
"149 -143 CURVE SMOOTH",
"149 -184 OFFCURVE",
"182 -217 OFFCURVE",
"256 -217 CURVE SMOOTH"
);
},
{
closed = 1;
nodes = (
"249 319 LINE",
"249 342 LINE",
"222 342 LINE",
"222 319 LINE"
);
},
{
closed = 1;
nodes = (
"78 324 OFFCURVE",
"97 330 OFFCURVE",
"175 330 CURVE SMOOTH",
"436 330 LINE SMOOTH",
"493 330 OFFCURVE",
"540 352 OFFCURVE",
"596 401 CURVE",
"597 404 LINE",
"597 408 OFFCURVE",
"591 420 OFFCURVE",
"586 421 CURVE",
"559 406 OFFCURVE",
"540 400 OFFCURVE",
"462 400 CURVE SMOOTH",
"201 400 LINE SMOOTH",
"144 400 OFFCURVE",
"97 378 OFFCURVE",
"41 329 CURVE",
"40 326 LINE",
"40 322 OFFCURVE",
"46 310 OFFCURVE",
"51 309 CURVE"
);
}
);
};
layerId = "4397B867-53E7-4964-BB9B-A578920F109C";
paths = (
{
closed = 1;
nodes = (
"411 -247 OFFCURVE",
"560 -147 OFFCURVE",
"560 -45 CURVE SMOOTH",
"560 10 OFFCURVE",
"526 38 OFFCURVE",
"432 38 CURVE SMOOTH",
"255 38 LINE SMOOTH",
"159 38 OFFCURVE",
"129 70 OFFCURVE",
"129 130 CURVE SMOOTH",
"129 203 OFFCURVE",
"174 265 OFFCURVE",
"288 330 CURVE",
"243 336 LINE",
"125 275 OFFCURVE",
"51 199 OFFCURVE",
"51 102 CURVE SMOOTH",
"51 20 OFFCURVE",
"98 -32 OFFCURVE",
"230 -32 CURVE SMOOTH",
"407 -32 LINE SMOOTH",
"463 -32 OFFCURVE",
"482 -52 OFFCURVE",
"482 -88 CURVE SMOOTH",
"482 -153 OFFCURVE",
"413 -198 OFFCURVE",
"326 -198 CURVE SMOOTH",
"265 -198 OFFCURVE",
"243 -177 OFFCURVE",
"230 -112 CURVE",
"226 -111 OFFCURVE",
"222 -111 OFFCURVE",
"220 -111 CURVE SMOOTH",
"186 -111 OFFCURVE",
"149 -130 OFFCURVE",
"149 -173 CURVE SMOOTH",
"149 -214 OFFCURVE",
"182 -247 OFFCURVE",
"256 -247 CURVE SMOOTH"
);
},
{
closed = 1;
nodes = (
"249 319 LINE",
"249 342 LINE",
"222 342 LINE",
"222 319 LINE"
);
},
{
closed = 1;
nodes = (
"78 324 OFFCURVE",
"97 330 OFFCURVE",
"175 330 CURVE SMOOTH",
"436 330 LINE SMOOTH",
"493 330 OFFCURVE",
"540 352 OFFCURVE",
"596 401 CURVE",
"597 404 LINE",
"597 408 OFFCURVE",
"591 420 OFFCURVE",
"586 421 CURVE",
"559 406 OFFCURVE",
"540 400 OFFCURVE",
"462 400 CURVE SMOOTH",
"201 400 LINE SMOOTH",
"144 400 OFFCURVE",
"97 378 OFFCURVE",
"41 329 CURVE",
"40 326 LINE",
"40 322 OFFCURVE",
"46 310 OFFCURVE",
"51 309 CURVE"
);
}
);
width = 610;
},
{
anchors = (
{
name = bottom;
position = "{378, 350}";
},
{
name = bottomleft;
position = "{15, -170}";
},
{
name = top;
position = "{340, 420}";
}
);
background = {
paths = (
{
closed = 1;
nodes = (
"406 -217 OFFCURVE",
"555 -117 OFFCURVE",
"555 -15 CURVE SMOOTH",
"555 40 OFFCURVE",
"521 68 OFFCURVE",
"427 68 CURVE SMOOTH",
"250 68 LINE SMOOTH",
"154 68 OFFCURVE",
"124 100 OFFCURVE",
"124 160 CURVE SMOOTH",
"124 222 OFFCURVE",
"169 275 OFFCURVE",
"283 330 CURVE",
"238 336 LINE",
"120 283 OFFCURVE",
"46 217 OFFCURVE",
"46 132 CURVE SMOOTH",
"46 50 OFFCURVE",
"93 -2 OFFCURVE",
"225 -2 CURVE SMOOTH",
"402 -2 LINE SMOOTH",
"458 -2 OFFCURVE",
"477 -22 OFFCURVE",
"477 -58 CURVE SMOOTH",
"477 -123 OFFCURVE",
"408 -168 OFFCURVE",
"321 -168 CURVE SMOOTH",
"260 -168 OFFCURVE",
"238 -147 OFFCURVE",
"225 -82 CURVE",
"221 -81 OFFCURVE",
"217 -81 OFFCURVE",
"215 -81 CURVE SMOOTH",
"181 -81 OFFCURVE",
"144 -100 OFFCURVE",
"144 -143 CURVE SMOOTH",
"144 -184 OFFCURVE",
"177 -217 OFFCURVE",
"251 -217 CURVE SMOOTH"
);
},
{
closed = 1;
nodes = (
"244 319 LINE",
"244 342 LINE",
"217 342 LINE",
"217 319 LINE"
);
},
{
closed = 1;
nodes = (
"73 324 OFFCURVE",
"92 330 OFFCURVE",
"170 330 CURVE SMOOTH",
"431 330 LINE SMOOTH",
"488 330 OFFCURVE",
"535 352 OFFCURVE",
"591 401 CURVE",
"592 404 LINE",
"592 408 OFFCURVE",
"586 420 OFFCURVE",
"581 421 CURVE",
"554 406 OFFCURVE",
"535 400 OFFCURVE",
"457 400 CURVE SMOOTH",
"196 400 LINE SMOOTH",
"139 400 OFFCURVE",
"92 378 OFFCURVE",
"36 329 CURVE",
"35 326 LINE",
"35 322 OFFCURVE",
"41 310 OFFCURVE",
"46 309 CURVE"
);
}
);
};
layerId = "0ED38B93-C2B0-4B4A-9C6D-D7838A33C317";
paths = (
{
closed = 1;
nodes = (
"426 -261 OFFCURVE",
"585 -149 OFFCURVE",
"585 -35 CURVE SMOOTH",
"585 20 OFFCURVE",
"551 48 OFFCURVE",
"457 48 CURVE SMOOTH",
"280 48 LINE SMOOTH",
"184 48 OFFCURVE",
"154 80 OFFCURVE",
"154 140 CURVE SMOOTH",
"154 208 OFFCURVE",
"194 266 OFFCURVE",
"293 326 CURVE",
"248 332 LINE",
"124 268 OFFCURVE",
"46 189 OFFCURVE",
"46 88 CURVE SMOOTH",
"46 6 OFFCURVE",
"93 -46 OFFCURVE",
"225 -46 CURVE SMOOTH",
"402 -46 LINE SMOOTH",
"458 -46 OFFCURVE",
"477 -66 OFFCURVE",
"477 -102 CURVE SMOOTH",
"477 -167 OFFCURVE",
"419 -212 OFFCURVE",
"347 -212 CURVE SMOOTH",
"289 -212 OFFCURVE",
"267 -186 OFFCURVE",
"255 -106 CURVE",
"247 -105 OFFCURVE",
"239 -105 OFFCURVE",
"235 -105 CURVE SMOOTH",
"191 -105 OFFCURVE",
"144 -130 OFFCURVE",
"144 -187 CURVE SMOOTH",
"144 -228 OFFCURVE",
"180 -261 OFFCURVE",
"261 -261 CURVE SMOOTH"
);
},
{
closed = 1;
nodes = (
"254 315 LINE",
"254 338 LINE",
"227 338 LINE",
"227 315 LINE"
);
},
{
closed = 1;
nodes = (
"73 320 OFFCURVE",
"92 326 OFFCURVE",
"170 326 CURVE SMOOTH",
"431 326 LINE SMOOTH",
"499 326 OFFCURVE",
"555 355 OFFCURVE",
"621 421 CURVE",
"622 424 LINE",
"622 428 OFFCURVE",
"616 440 OFFCURVE",
"611 441 CURVE",
"584 426 OFFCURVE",
"565 420 OFFCURVE",
"487 420 CURVE SMOOTH",
"226 420 LINE SMOOTH",
"158 420 OFFCURVE",
"103 391 OFFCURVE",
"36 325 CURVE",
"35 322 LINE",
"35 318 OFFCURVE",
"41 306 OFFCURVE",
"46 305 CURVE"
);
}
);
width = 630;
}
);
leftMetricsKey = "alda-teng";
rightMetricsKey = "alda-teng";
},
{
color = 5;
glyphname = "roomen-teng.bottom";
lastChange = "2022-01-04 13:48:33 +0000";
layers = (
{
anchors = (
{
name = bottom;
position = "{330, 30}";
},
{
name = bottomleft;
position = "{-110, -240}";
},
{
name = top;
position = "{254, 400}";
}
);
background = {
paths = (
{
closed = 1;
nodes = (
"130 -307 OFFCURVE",
"159 -288 OFFCURVE",
"185 -257 CURVE",
"185 -253 OFFCURVE",
"176 -240 OFFCURVE",
"172 -240 CURVE",
"162 -246 OFFCURVE",
"152 -249 OFFCURVE",
"141 -249 CURVE SMOOTH",
"111 -249 OFFCURVE",
"98 -233 OFFCURVE",
"98 -200 CURVE SMOOTH",
"98 -7 OFFCURVE",
"478 137 OFFCURVE",
"478 316 CURVE SMOOTH",
"478 373 OFFCURVE",
"450 414 OFFCURVE",
"385 414 CURVE SMOOTH",
"338 414 OFFCURVE",
"294 391 OFFCURVE",
"263 362 CURVE",
"263 358 OFFCURVE",
"272 343 OFFCURVE",
"276 342 CURVE",
"296 358 OFFCURVE",
"319 366 OFFCURVE",
"338 366 CURVE SMOOTH",
"374 366 OFFCURVE",
"398 344 OFFCURVE",
"398 293 CURVE SMOOTH",
"398 108 OFFCURVE",
"18 -59 OFFCURVE",
"18 -228 CURVE SMOOTH",
"18 -279 OFFCURVE",
"43 -307 OFFCURVE",
"94 -307 CURVE SMOOTH"
);
},
{
closed = 1;
nodes = (
"273 59 LINE",
"243 160 OFFCURVE",
"210 258 OFFCURVE",
"181 323 CURVE SMOOTH",
"149 395 OFFCURVE",
"126 414 OFFCURVE",
"95 414 CURVE SMOOTH",
"65 414 OFFCURVE",
"23 390 OFFCURVE",
"-15 348 CURVE",
"-15 344 OFFCURVE",
"-4 331 OFFCURVE",
"0 331 CURVE",
"18 348 OFFCURVE",
"31 355 OFFCURVE",
"43 355 CURVE SMOOTH",
"60 355 OFFCURVE",
"77 340 OFFCURVE",
"103 289 CURVE SMOOTH",
"136 224 OFFCURVE",
"180 110 OFFCURVE",
"213 0 CURVE"
);
}
);
};
layerId = "4397B867-53E7-4964-BB9B-A578920F109C";
paths = (
{
closed = 1;
nodes = (
"130 -307 OFFCURVE",
"159 -288 OFFCURVE",
"185 -257 CURVE",
"185 -253 OFFCURVE",
"176 -240 OFFCURVE",
"172 -240 CURVE",
"162 -246 OFFCURVE",
"152 -249 OFFCURVE",
"141 -249 CURVE SMOOTH",
"111 -249 OFFCURVE",
"98 -233 OFFCURVE",
"98 -200 CURVE SMOOTH",
"98 -7 OFFCURVE",
"478 137 OFFCURVE",
"478 316 CURVE SMOOTH",
"478 373 OFFCURVE",
"450 414 OFFCURVE",
"385 414 CURVE SMOOTH",
"338 414 OFFCURVE",
"294 391 OFFCURVE",
"263 362 CURVE",
"263 358 OFFCURVE",
"272 343 OFFCURVE",
"276 342 CURVE",
"296 358 OFFCURVE",
"319 366 OFFCURVE",
"338 366 CURVE SMOOTH",
"374 366 OFFCURVE",
"398 344 OFFCURVE",
"398 293 CURVE SMOOTH",
"398 108 OFFCURVE",
"18 -59 OFFCURVE",
"18 -228 CURVE SMOOTH",
"18 -279 OFFCURVE",
"43 -307 OFFCURVE",
"94 -307 CURVE SMOOTH"
);
},
{
closed = 1;
nodes = (
"273 59 LINE",
"243 160 OFFCURVE",
"210 258 OFFCURVE",
"181 323 CURVE SMOOTH",
"149 395 OFFCURVE",
"126 414 OFFCURVE",
"95 414 CURVE SMOOTH",
"65 414 OFFCURVE",
"23 390 OFFCURVE",
"-15 348 CURVE",
"-15 344 OFFCURVE",
"-4 331 OFFCURVE",
"0 331 CURVE",
"18 348 OFFCURVE",
"31 355 OFFCURVE",
"43 355 CURVE SMOOTH",
"60 355 OFFCURVE",
"77 340 OFFCURVE",
"103 289 CURVE SMOOTH",
"136 224 OFFCURVE",
"180 110 OFFCURVE",
"213 0 CURVE"
);
}
);
width = 508;
},
{
anchors = (
{
name = bottom;
position = "{345, 30}";
},
{
name = bottomleft;
position = "{-99, -240}";
},
{
name = top;
position = "{255, 420}";
}
);
background = {
paths = (
{
closed = 1;
nodes = (
"161 -342 OFFCURVE",
"200 -316 OFFCURVE",
"234 -275 CURVE",
"234 -271 OFFCURVE",
"225 -258 OFFCURVE",
"221 -258 CURVE",
"213 -262 OFFCURVE",
"203 -264 OFFCURVE",
"194 -264 CURVE SMOOTH",
"143 -264 OFFCURVE",
"120 -238 OFFCURVE",
"120 -185 CURVE SMOOTH",
"120 7 OFFCURVE",
"499 144 OFFCURVE",
"499 336 CURVE SMOOTH",
"499 393 OFFCURVE",
"471 434 OFFCURVE",
"406 434 CURVE SMOOTH",
"351 434 OFFCURVE",
"300 406 OFFCURVE",
"264 372 CURVE",
"264 368 OFFCURVE",
"273 353 OFFCURVE",
"277 352 CURVE",
"293 366 OFFCURVE",
"311 373 OFFCURVE",
"326 373 CURVE SMOOTH",
"366 373 OFFCURVE",
"393 349 OFFCURVE",
"393 293 CURVE SMOOTH",
"393 83 OFFCURVE",
"14 -67 OFFCURVE",
"14 -233 CURVE SMOOTH",
"14 -303 OFFCURVE",
"47 -342 OFFCURVE",
"114 -342 CURVE SMOOTH"
);
},
{
closed = 1;
nodes = (
"294 79 LINE",
"264 180 OFFCURVE",
"231 278 OFFCURVE",
"202 343 CURVE SMOOTH",
"170 415 OFFCURVE",
"147 434 OFFCURVE",
"116 434 CURVE SMOOTH",
"78 434 OFFCURVE",
"26 403 OFFCURVE",
"-20 348 CURVE",
"-20 344 OFFCURVE",
"-9 331 OFFCURVE",
"-5 331 CURVE",
"13 348 OFFCURVE",
"25 355 OFFCURVE",
"35 355 CURVE SMOOTH",
"52 355 OFFCURVE",
"69 338 OFFCURVE",
"98 281 CURVE SMOOTH",
"131 216 OFFCURVE",
"175 102 OFFCURVE",
"208 -8 CURVE"
);
}
);
};
layerId = "0ED38B93-C2B0-4B4A-9C6D-D7838A33C317";
paths = (
{
closed = 1;
nodes = (
"154 -342 OFFCURVE",
"193 -316 OFFCURVE",
"227 -275 CURVE",
"227 -271 OFFCURVE",
"218 -258 OFFCURVE",
"214 -258 CURVE",
"206 -262 OFFCURVE",
"196 -264 OFFCURVE",
"187 -264 CURVE SMOOTH",
"136 -264 OFFCURVE",
"113 -238 OFFCURVE",
"113 -185 CURVE SMOOTH",
"113 7 OFFCURVE",
"499 144 OFFCURVE",
"499 336 CURVE SMOOTH",
"499 393 OFFCURVE",
"471 434 OFFCURVE",
"406 434 CURVE SMOOTH",
"351 434 OFFCURVE",
"300 406 OFFCURVE",
"264 372 CURVE",
"264 368 OFFCURVE",
"273 353 OFFCURVE",
"277 352 CURVE",
"293 366 OFFCURVE",
"311 373 OFFCURVE",
"326 373 CURVE SMOOTH",
"366 373 OFFCURVE",
"393 349 OFFCURVE",
"393 293 CURVE SMOOTH",
"393 83 OFFCURVE",
"7 -62 OFFCURVE",
"7 -243 CURVE SMOOTH",
"7 -303 OFFCURVE",
"40 -342 OFFCURVE",
"107 -342 CURVE SMOOTH"
);
},
{
closed = 1;
nodes = (
"294 79 LINE",
"264 180 OFFCURVE",
"231 278 OFFCURVE",
"202 343 CURVE SMOOTH",
"170 415 OFFCURVE",
"147 434 OFFCURVE",
"116 434 CURVE SMOOTH",
"78 434 OFFCURVE",
"26 403 OFFCURVE",
"-20 348 CURVE",
"-20 344 OFFCURVE",
"-9 331 OFFCURVE",
"-5 331 CURVE",
"13 348 OFFCURVE",
"25 355 OFFCURVE",
"35 355 CURVE SMOOTH",
"52 355 OFFCURVE",
"69 338 OFFCURVE",
"98 281 CURVE SMOOTH",
"131 216 OFFCURVE",
"175 102 OFFCURVE",
"208 -8 CURVE"
);
}
);
width = 529;
}
);
leftKerningGroup = roomen;
leftMetricsKey = "roomen-teng";
rightKerningGroup = roomen;
},
{
color = 5;
glyphname = "arda-teng.bottom";
lastChange = "2022-01-04 13:50:07 +0000";
layers = (
{
anchors = (
{
name = bottom;
position = "{381, 30}";
},
{
name = bottomleft;
position = "{-60, -240}";
},
{
name = top;
position = "{305, 400}";
}
);
background = {
paths = (
{
closed = 1;
nodes = (
"154 209 OFFCURVE",
"103 165 OFFCURVE",
"66 128 CURVE SMOOTH",
"40 102 OFFCURVE",
"28 82 OFFCURVE",
"28 56 CURVE SMOOTH",
"28 33 OFFCURVE",
"44 10 OFFCURVE",
"77 10 CURVE SMOOTH",
"106 10 OFFCURVE",
"133 26 OFFCURVE",
"151 49 CURVE",
"132 67 OFFCURVE",
"122 83 OFFCURVE",
"122 100 CURVE SMOOTH",
"122 117 OFFCURVE",
"129 130 OFFCURVE",
"143 146 CURVE SMOOTH",
"163 168 OFFCURVE",
"192 193 OFFCURVE",
"215 209 CURVE",
"196 242 LINE"
);
}
);
};
components = (
{
name = "roomen-teng.bottom";
transform = "{1, 0, 0, 1, 51, 0}";
}
);
layerId = "4397B867-53E7-4964-BB9B-A578920F109C";
paths = (
{
closed = 1;
nodes = (
"103 4 OFFCURVE",
"128 15 OFFCURVE",
"141 33 CURVE",
"121 54 OFFCURVE",
"109 73 OFFCURVE",
"109 92 CURVE SMOOTH",
"109 129 OFFCURVE",
"137 159 OFFCURVE",
"216 216 CURVE",
"206 242 LINE",
"167 214 OFFCURVE",
"127 182 OFFCURVE",
"94 153 CURVE SMOOTH",
"47 111 OFFCURVE",
"30 82 OFFCURVE",
"30 52 CURVE SMOOTH",
"30 28 OFFCURVE",
"46 4 OFFCURVE",
"79 4 CURVE SMOOTH"
);
}
);
width = 559;
},
{
anchors = (
{
name = bottom;
position = "{396, 30}";
},
{
name = bottomleft;
position = "{-45, -240}";
},
{
name = top;
position = "{306, 420}";
}
);
background = {
paths = (
{
closed = 1;
nodes = (
"149 209 OFFCURVE",
"98 165 OFFCURVE",
"61 128 CURVE SMOOTH",
"35 102 OFFCURVE",
"23 82 OFFCURVE",
"23 56 CURVE SMOOTH",
"23 33 OFFCURVE",
"39 10 OFFCURVE",
"72 10 CURVE SMOOTH",
"101 10 OFFCURVE",
"128 26 OFFCURVE",
"146 49 CURVE",
"127 67 OFFCURVE",
"117 83 OFFCURVE",
"117 100 CURVE SMOOTH",
"117 117 OFFCURVE",
"124 130 OFFCURVE",
"138 146 CURVE SMOOTH",
"158 168 OFFCURVE",
"187 193 OFFCURVE",
"210 209 CURVE",
"191 242 LINE"
);
}
);
};
components = (
{
name = "roomen-teng.bottom";
transform = "{1, 0, 0, 1, 46, 0}";
}
);
layerId = "0ED38B93-C2B0-4B4A-9C6D-D7838A33C317";
paths = (
{
closed = 1;
nodes = (
"106 4 OFFCURVE",
"139 23 OFFCURVE",
"156 53 CURVE",
"136 74 OFFCURVE",
"124 93 OFFCURVE",
"124 112 CURVE SMOOTH",
"124 143 OFFCURVE",
"147 168 OFFCURVE",
"211 216 CURVE",
"201 242 LINE",
"162 214 OFFCURVE",
"122 182 OFFCURVE",
"89 153 CURVE SMOOTH",
"42 111 OFFCURVE",
"25 82 OFFCURVE",
"25 52 CURVE SMOOTH",
"25 28 OFFCURVE",
"41 4 OFFCURVE",
"74 4 CURVE SMOOTH"
);
}
);
width = 570;
}
);
leftMetricsKey = "arda-teng";
rightMetricsKey = "roomen-teng";
},
{
color = 9;
glyphname = "sarincefina-teng.short";
lastChange = "2022-01-04 13:53:32 +0000";
layers = (
{
anchors = (
{
name = _jointbar;
position = "{0, 70}";
},
{
name = _sarince;
position = "{0, 0}";
},
{
name = bottom;
position = "{-63, -217}";
},
{
name = top;
position = "{37, 100}";
}
);
background = {
paths = (
{
closed = 1;
nodes = (
"0 70 LINE SMOOTH",
"-28 70 OFFCURVE",
"-35 63 OFFCURVE",
"-35 35 CURVE SMOOTH",
"-35 7 OFFCURVE",
"-28 0 OFFCURVE",
"0 0 CURVE SMOOTH",
"191 0 LINE SMOOTH",
"251 0 OFFCURVE",
"272 -22 OFFCURVE",
"272 -60 CURVE SMOOTH",
"272 -109 OFFCURVE",
"238 -144 OFFCURVE",
"195 -144 CURVE SMOOTH",
"165 -144 OFFCURVE",
"151 -125 OFFCURVE",
"142 -77 CURVE",
"139 -76 OFFCURVE",
"135 -76 OFFCURVE",
"132 -76 CURVE SMOOTH",
"97 -76 OFFCURVE",
"59 -98 OFFCURVE",
"59 -140 CURVE SMOOTH",
"59 -172 OFFCURVE",
"81 -197 OFFCURVE",
"132 -197 CURVE SMOOTH",
"248 -197 OFFCURVE",
"359 -111 OFFCURVE",
"359 -23 CURVE SMOOTH",
"359 39 OFFCURVE",
"328 70 OFFCURVE",
"241 70 CURVE SMOOTH"
);
}
);
};
layerId = "4397B867-53E7-4964-BB9B-A578920F109C";
paths = (
{
closed = 1;
nodes = (
"68 -217 OFFCURVE",
"179 -126 OFFCURVE",
"179 -33 CURVE SMOOTH",
"179 35 OFFCURVE",
"139 70 OFFCURVE",
"55 70 CURVE SMOOTH",
"0 70 LINE SMOOTH",
"-28 70 OFFCURVE",
"-35 63 OFFCURVE",
"-35 35 CURVE SMOOTH",
"-35 7 OFFCURVE",
"-28 0 OFFCURVE",
"0 0 CURVE SMOOTH",
"5 0 LINE SMOOTH",
"88 0 OFFCURVE",
"113 -18 OFFCURVE",
"113 -72 CURVE SMOOTH",
"113 -128 OFFCURVE",
"69 -164 OFFCURVE",
"17 -164 CURVE SMOOTH",
"-15 -164 OFFCURVE",
"-29 -145 OFFCURVE",
"-38 -97 CURVE",
"-41 -96 OFFCURVE",
"-45 -96 OFFCURVE",
"-48 -96 CURVE SMOOTH",
"-83 -96 OFFCURVE",
"-121 -118 OFFCURVE",
"-121 -160 CURVE SMOOTH",
"-121 -192 OFFCURVE",
"-99 -217 OFFCURVE",
"-48 -217 CURVE SMOOTH"
);
}
);
width = 194;
},
{
anchors = (
{
name = _jointbar;
position = "{0, 94}";
},
{
name = _sarince;
position = "{0, 0}";
},
{
name = bottom;
position = "{-73, -217}";
},
{
name = top;
position = "{37, 124}";
}
);
background = {
paths = (
{
closed = 1;
nodes = (
"68 -217 OFFCURVE",
"179 -126 OFFCURVE",
"179 -33 CURVE SMOOTH",
"179 35 OFFCURVE",
"139 70 OFFCURVE",
"55 70 CURVE SMOOTH",
"0 70 LINE SMOOTH",
"-28 70 OFFCURVE",
"-35 63 OFFCURVE",
"-35 35 CURVE SMOOTH",
"-35 7 OFFCURVE",
"-28 0 OFFCURVE",
"0 0 CURVE SMOOTH",
"5 0 LINE SMOOTH",
"88 0 OFFCURVE",
"113 -18 OFFCURVE",
"113 -72 CURVE SMOOTH",
"113 -128 OFFCURVE",
"69 -164 OFFCURVE",
"17 -164 CURVE SMOOTH",
"-15 -164 OFFCURVE",
"-29 -145 OFFCURVE",
"-38 -97 CURVE",
"-41 -96 OFFCURVE",
"-45 -96 OFFCURVE",
"-48 -96 CURVE SMOOTH",
"-83 -96 OFFCURVE",
"-121 -118 OFFCURVE",
"-121 -160 CURVE SMOOTH",
"-121 -192 OFFCURVE",
"-99 -217 OFFCURVE",
"-48 -217 CURVE SMOOTH"
);
}
);
};
layerId = "0ED38B93-C2B0-4B4A-9C6D-D7838A33C317";
paths = (
{
closed = 1;
nodes = (
"64 -217 OFFCURVE",
"179 -115 OFFCURVE",
"179 -11 CURVE SMOOTH",
"179 59 OFFCURVE",
"144 94 OFFCURVE",
"60 94 CURVE SMOOTH",
"0 94 LINE SMOOTH",
"-28 94 OFFCURVE",
"-35 85 OFFCURVE",
"-35 47 CURVE SMOOTH",
"-35 9 OFFCURVE",
"-28 0 OFFCURVE",
"0 0 CURVE SMOOTH",
"5 0 LINE SMOOTH",
"89 0 OFFCURVE",
"108 -17 OFFCURVE",
"108 -65 CURVE SMOOTH",
"108 -121 OFFCURVE",
"67 -157 OFFCURVE",
"21 -157 CURVE SMOOTH",
"-11 -157 OFFCURVE",
"-24 -137 OFFCURVE",
"-32 -85 CURVE",
"-39 -83 OFFCURVE",
"-49 -82 OFFCURVE",
"-57 -82 CURVE SMOOTH",
"-97 -82 OFFCURVE",
"-140 -107 OFFCURVE",
"-140 -156 CURVE SMOOTH",
"-140 -190 OFFCURVE",
"-115 -217 OFFCURVE",
"-57 -217 CURVE SMOOTH"
);
}
);
width = 189;
}
);
rightMetricsKey = "sarincefina-teng";
},
{
color = 9;
glyphname = "sarincefina-teng.ss03";
lastChange = "2022-01-04 13:53:41 +0000";
layers = (
{
anchors = (
{
name = _jointbar;
position = "{0, 70}";
},
{
name = _sarince;
position = "{0, 0}";
},
{
name = bottom;
position = "{207, -173}";
},
{
name = top;
position = "{247, 248}";
}
);
background = {
paths = (
{
closed = 1;
nodes = (
"135 -129 OFFCURVE",
"116 -121 OFFCURVE",
"106 -108 CURVE",
"90 -117 OFFCURVE",
"81 -138 OFFCURVE",
"81 -162 CURVE SMOOTH",
"81 -202 OFFCURVE",
"102 -223 OFFCURVE",
"144 -223 CURVE SMOOTH",
"232 -223 OFFCURVE",
"258 -138 OFFCURVE",
"286 3 CURVE SMOOTH",
"310 125 OFFCURVE",
"353 176 OFFCURVE",
"422 176 CURVE SMOOTH",
"457 176 OFFCURVE",
"474 160 OFFCURVE",
"474 137 CURVE SMOOTH",
"474 95 OFFCURVE",
"436 70 OFFCURVE",
"286 70 CURVE SMOOTH",
"0 70 LINE SMOOTH",
"-28 70 OFFCURVE",
"-35 63 OFFCURVE",
"-35 35 CURVE SMOOTH",
"-35 7 OFFCURVE",
"-28 0 OFFCURVE",
"0 0 CURVE SMOOTH",
"206 0 LINE SMOOTH",
"414 0 OFFCURVE",
"538 99 OFFCURVE",
"538 177 CURVE SMOOTH",
"538 218 OFFCURVE",
"509 248 OFFCURVE",
"453 248 CURVE SMOOTH",
"350 248 OFFCURVE",
"286 158 OFFCURVE",
"256 7 CURVE SMOOTH",
"236 -93 OFFCURVE",
"214 -129 OFFCURVE",
"154 -129 CURVE SMOOTH"
);
}
);
};
layerId = "4397B867-53E7-4964-BB9B-A578920F109C";
paths = (
{
closed = 1;
nodes = (
"202 112 OFFCURVE",
"266 179 OFFCURVE",
"342 179 CURVE SMOOTH",
"384 179 OFFCURVE",
"404 162 OFFCURVE",
"404 137 CURVE SMOOTH",
"404 95 OFFCURVE",
"366 70 OFFCURVE",
"216 70 CURVE SMOOTH",
"0 70 LINE SMOOTH",
"-28 70 OFFCURVE",
"-35 63 OFFCURVE",
"-35 35 CURVE SMOOTH",
"-35 7 OFFCURVE",
"-28 0 OFFCURVE",
"0 0 CURVE SMOOTH",
"136 0 LINE SMOOTH",
"344 0 OFFCURVE",
"468 99 OFFCURVE",
"468 177 CURVE SMOOTH",
"468 220 OFFCURVE",
"436 251 OFFCURVE",
"373 251 CURVE SMOOTH",
"258 251 OFFCURVE",
"176 134 OFFCURVE",
"176 13 CURVE SMOOTH",
"176 -103 OFFCURVE",
"237 -173 OFFCURVE",
"338 -173 CURVE SMOOTH",
"406 -173 OFFCURVE",
"441 -144 OFFCURVE",
"441 -102 CURVE SMOOTH",
"441 -77 OFFCURVE",
"427 -58 OFFCURVE",
"406 -48 CURVE",
"390 -83 OFFCURVE",
"359 -103 OFFCURVE",
"308 -103 CURVE SMOOTH",
"253 -103 OFFCURVE",
"202 -71 OFFCURVE",
"202 17 CURVE SMOOTH"
);
}
);
width = 498;
},
{
anchors = (
{
name = _jointbar;
position = "{0, 94}";
},
{
name = _sarince;
position = "{0, 0}";
},
{
name = bottom;
position = "{207, -185}";
},
{
name = top;
position = "{247, 292}";
}
);
background = {
paths = (
{
closed = 1;
nodes = (
"202 112 OFFCURVE",
"266 179 OFFCURVE",
"342 179 CURVE SMOOTH",
"384 179 OFFCURVE",
"404 162 OFFCURVE",
"404 137 CURVE SMOOTH",
"404 95 OFFCURVE",
"366 70 OFFCURVE",
"216 70 CURVE SMOOTH",
"0 70 LINE SMOOTH",
"-28 70 OFFCURVE",
"-35 63 OFFCURVE",
"-35 35 CURVE SMOOTH",
"-35 7 OFFCURVE",
"-28 0 OFFCURVE",
"0 0 CURVE SMOOTH",
"136 0 LINE SMOOTH",
"344 0 OFFCURVE",
"468 99 OFFCURVE",
"468 177 CURVE SMOOTH",
"468 220 OFFCURVE",
"436 251 OFFCURVE",
"373 251 CURVE SMOOTH",
"258 251 OFFCURVE",
"176 134 OFFCURVE",
"176 13 CURVE SMOOTH",
"176 -103 OFFCURVE",
"241 -173 OFFCURVE",
"348 -173 CURVE SMOOTH",
"409 -173 OFFCURVE",
"441 -144 OFFCURVE",
"441 -102 CURVE SMOOTH",
"441 -77 OFFCURVE",
"427 -58 OFFCURVE",
"406 -48 CURVE",
"392 -83 OFFCURVE",
"364 -103 OFFCURVE",
"318 -103 CURVE SMOOTH",
"258 -103 OFFCURVE",
"202 -71 OFFCURVE",
"202 17 CURVE SMOOTH"
);
}
);
};
layerId = "0ED38B93-C2B0-4B4A-9C6D-D7838A33C317";
paths = (
{
closed = 1;
nodes = (
"202 128 OFFCURVE",
"273 199 OFFCURVE",
"357 199 CURVE SMOOTH",
"399 199 OFFCURVE",
"419 179 OFFCURVE",
"419 151 CURVE SMOOTH",
"419 115 OFFCURVE",
"391 94 OFFCURVE",
"281 94 CURVE SMOOTH",
"0 94 LINE SMOOTH",
"-28 94 OFFCURVE",
"-35 85 OFFCURVE",
"-35 47 CURVE SMOOTH",
"-35 9 OFFCURVE",
"-28 0 OFFCURVE",
"0 0 CURVE SMOOTH",
"151 0 LINE SMOOTH",
"351 0 OFFCURVE",
"503 114 OFFCURVE",
"503 209 CURVE SMOOTH",
"503 259 OFFCURVE",
"469 295 OFFCURVE",
"403 295 CURVE SMOOTH",
"270 295 OFFCURVE",
"176 161 OFFCURVE",
"176 23 CURVE SMOOTH",
"176 -106 OFFCURVE",
"243 -185 OFFCURVE",
"353 -185 CURVE SMOOTH",
"434 -185 OFFCURVE",
"476 -147 OFFCURVE",
"476 -92 CURVE SMOOTH",
"476 -61 OFFCURVE",
"456 -38 OFFCURVE",
"426 -26 CURVE",
"410 -67 OFFCURVE",
"377 -91 OFFCURVE",
"323 -91 CURVE SMOOTH",
"260 -91 OFFCURVE",
"202 -59 OFFCURVE",
"202 27 CURVE SMOOTH"
);
}
);
width = 528;
}
);
},
{
glyphname = "sarincefina-teng.ss04";
lastChange = "2022-01-04 13:54:06 +0000";
layers = (
{
anchors = (
{
name = _jointbar;
position = "{0, 70}";
},
{
name = _sarince;
position = "{0, 0}";
},
{
name = bottom;
position = "{207, -223}";
},
{
name = top;
position = "{317, 248}";
}
);
background = {
paths = (
{
closed = 1;
nodes = (
"132 -131 OFFCURVE",
"121 -115 OFFCURVE",
"114 -73 CURVE",
"111 -72 OFFCURVE",
"107 -72 OFFCURVE",
"104 -72 CURVE SMOOTH",
"69 -72 OFFCURVE",
"31 -94 OFFCURVE",
"31 -136 CURVE SMOOTH",
"31 -168 OFFCURVE",
"53 -193 OFFCURVE",
"104 -193 CURVE SMOOTH",
"206 -193 OFFCURVE",
"245 -117 OFFCURVE",
"262 4 CURVE SMOOTH",
"280 135 OFFCURVE",
"336 176 OFFCURVE",
"407 176 CURVE SMOOTH",
"453 176 OFFCURVE",
"474 153 OFFCURVE",
"474 124 CURVE SMOOTH",
"474 90 OFFCURVE",
"446 70 OFFCURVE",
"375 70 CURVE SMOOTH",
"0 70 LINE SMOOTH",
"-28 70 OFFCURVE",
"-35 63 OFFCURVE",
"-35 35 CURVE SMOOTH",
"-35 7 OFFCURVE",
"-28 0 OFFCURVE",
"0 0 CURVE SMOOTH",
"255 0 LINE SMOOTH",
"432 0 OFFCURVE",
"538 91 OFFCURVE",
"538 162 CURVE SMOOTH",
"538 215 OFFCURVE",
"505 248 OFFCURVE",
"436 248 CURVE SMOOTH",
"341 248 OFFCURVE",
"252 173 OFFCURVE",
"233 17 CURVE SMOOTH",
"220 -85 OFFCURVE",
"196 -131 OFFCURVE",
"158 -131 CURVE SMOOTH"
);
}
);
};
layerId = "4397B867-53E7-4964-BB9B-A578920F109C";
paths = (
{
closed = 1;
nodes = (
"232 -223 OFFCURVE",
"258 -138 OFFCURVE",
"286 3 CURVE SMOOTH",
"310 125 OFFCURVE",
"353 176 OFFCURVE",
"422 176 CURVE SMOOTH",
"457 176 OFFCURVE",
"474 160 OFFCURVE",
"474 137 CURVE SMOOTH",
"474 95 OFFCURVE",
"436 70 OFFCURVE",
"286 70 CURVE SMOOTH",
"0 70 LINE SMOOTH",
"-28 70 OFFCURVE",
"-35 63 OFFCURVE",
"-35 35 CURVE SMOOTH",
"-35 7 OFFCURVE",
"-28 0 OFFCURVE",
"0 0 CURVE SMOOTH",
"206 0 LINE SMOOTH",
"414 0 OFFCURVE",
"538 99 OFFCURVE",
"538 177 CURVE SMOOTH",
"538 218 OFFCURVE",
"509 248 OFFCURVE",
"453 248 CURVE SMOOTH",
"350 248 OFFCURVE",
"286 158 OFFCURVE",
"256 7 CURVE SMOOTH",
"236 -93 OFFCURVE",
"214 -129 OFFCURVE",
"154 -129 CURVE SMOOTH",
"135 -129 OFFCURVE",
"116 -121 OFFCURVE",
"106 -108 CURVE",
"90 -117 OFFCURVE",
"81 -138 OFFCURVE",
"81 -162 CURVE SMOOTH",
"81 -202 OFFCURVE",
"102 -223 OFFCURVE",
"144 -223 CURVE SMOOTH"
);
}
);
width = 568;
},
{
anchors = (
{
name = _jointbar;
position = "{0, 94}";
},
{
name = _sarince;
position = "{0, 0}";
},
{
name = bottom;
position = "{207, -223}";
},
{
name = top;
position = "{317, 296}";
}
);
background = {
paths = (
{
closed = 1;
nodes = (
"135 -129 OFFCURVE",
"116 -121 OFFCURVE",
"106 -108 CURVE",
"90 -117 OFFCURVE",
"81 -138 OFFCURVE",
"81 -162 CURVE SMOOTH",
"81 -202 OFFCURVE",
"102 -223 OFFCURVE",
"144 -223 CURVE SMOOTH",
"232 -223 OFFCURVE",
"258 -138 OFFCURVE",
"286 3 CURVE SMOOTH",
"310 125 OFFCURVE",
"353 176 OFFCURVE",
"422 176 CURVE SMOOTH",
"457 176 OFFCURVE",
"474 160 OFFCURVE",
"474 137 CURVE SMOOTH",
"474 95 OFFCURVE",
"436 70 OFFCURVE",
"286 70 CURVE SMOOTH",
"0 70 LINE SMOOTH",
"-28 70 OFFCURVE",
"-35 63 OFFCURVE",
"-35 35 CURVE SMOOTH",
"-35 7 OFFCURVE",
"-28 0 OFFCURVE",
"0 0 CURVE SMOOTH",
"206 0 LINE SMOOTH",
"414 0 OFFCURVE",
"538 99 OFFCURVE",
"538 177 CURVE SMOOTH",
"538 218 OFFCURVE",
"509 248 OFFCURVE",
"453 248 CURVE SMOOTH",
"350 248 OFFCURVE",
"286 158 OFFCURVE",
"256 7 CURVE SMOOTH",
"236 -93 OFFCURVE",
"214 -129 OFFCURVE",
"154 -129 CURVE SMOOTH"
);
}
);
};
layerId = "0ED38B93-C2B0-4B4A-9C6D-D7838A33C317";
paths = (
{
closed = 1;
nodes = (
"232 -223 OFFCURVE",
"258 -133 OFFCURVE",
"286 15 CURVE SMOOTH",
"310 146 OFFCURVE",
"353 200 OFFCURVE",
"422 200 CURVE SMOOTH",
"464 200 OFFCURVE",
"484 180 OFFCURVE",
"484 151 CURVE SMOOTH",
"484 115 OFFCURVE",
"456 94 OFFCURVE",
"346 94 CURVE SMOOTH",
"0 94 LINE SMOOTH",
"-28 94 OFFCURVE",
"-35 85 OFFCURVE",
"-35 47 CURVE SMOOTH",
"-35 10 OFFCURVE",
"-28 0 OFFCURVE",
"0 0 CURVE SMOOTH",
"216 0 LINE SMOOTH",
"416 0 OFFCURVE",
"568 114 OFFCURVE",
"568 209 CURVE SMOOTH",
"568 260 OFFCURVE",
"532 296 OFFCURVE",
"463 296 CURVE SMOOTH",
"357 296 OFFCURVE",
"291 198 OFFCURVE",
"258 31 CURVE SMOOTH",
"239 -69 OFFCURVE",
"216 -105 OFFCURVE",
"154 -105 CURVE SMOOTH",
"132 -105 OFFCURVE",
"110 -97 OFFCURVE",
"99 -84 CURVE",
"78 -95 OFFCURVE",
"66 -121 OFFCURVE",
"66 -150 CURVE SMOOTH",
"66 -198 OFFCURVE",
"92 -223 OFFCURVE",
"140 -223 CURVE SMOOTH"
);
}
);
width = 593;
}
);
rightMetricsKey = "sarincefina-teng.ss03";
},
{
glyphname = "sarincefina-teng.ss05";
lastChange = "2016-05-23 01:38:32 +0000";
layers = (
{
anchors = (
{
name = bottom;
position = "{-201, -277}";
}
);
background = {
paths = (
{
closed = 1;
nodes = (
"-57 -44 OFFCURVE",
"-77 -26 OFFCURVE",
"-104 -26 CURVE SMOOTH",
"-146 -26 OFFCURVE",
"-168 -64 OFFCURVE",
"-168 -99 CURVE SMOOTH",
"-168 -102 OFFCURVE",
"-168 -106 OFFCURVE",
"-167 -109 CURVE",
"-126 -116 OFFCURVE",
"-110 -127 OFFCURVE",
"-110 -154 CURVE SMOOTH",
"-110 -195 OFFCURVE",
"-146 -230 OFFCURVE",
"-202 -230 CURVE SMOOTH",
"-256 -230 OFFCURVE",
"-274 -205 OFFCURVE",
"-274 -122 CURVE SMOOTH",
"-274 46 LINE SMOOTH",
"-274 59 OFFCURVE",
"-289 71 OFFCURVE",
"-309 71 CURVE SMOOTH",
"-329 71 OFFCURVE",
"-344 59 OFFCURVE",
"-344 46 CURVE SMOOTH",
"-344 -172 LINE SMOOTH",
"-344 -256 OFFCURVE",
"-309 -296 OFFCURVE",
"-241 -296 CURVE SMOOTH",
"-148 -296 OFFCURVE",
"-57 -194 OFFCURVE",
"-57 -89 CURVE SMOOTH"
);
}
);
};
layerId = "4397B867-53E7-4964-BB9B-A578920F109C";
paths = (
{
closed = 1;
nodes = (
"-57 -71 OFFCURVE",
"-75 -46 OFFCURVE",
"-104 -46 CURVE SMOOTH",
"-146 -46 OFFCURVE",
"-168 -84 OFFCURVE",
"-168 -119 CURVE SMOOTH",
"-168 -122 OFFCURVE",
"-168 -126 OFFCURVE",
"-167 -129 CURVE",
"-133 -139 OFFCURVE",
"-120 -153 OFFCURVE",
"-120 -174 CURVE SMOOTH",
"-120 -204 OFFCURVE",
"-152 -230 OFFCURVE",
"-202 -230 CURVE SMOOTH",
"-256 -230 OFFCURVE",
"-274 -205 OFFCURVE",
"-274 -122 CURVE SMOOTH",
"-274 46 LINE SMOOTH",
"-274 59 OFFCURVE",
"-289 71 OFFCURVE",
"-309 71 CURVE SMOOTH",
"-329 71 OFFCURVE",
"-344 59 OFFCURVE",
"-344 46 CURVE SMOOTH",
"-344 -172 LINE SMOOTH",
"-344 -256 OFFCURVE",
"-309 -296 OFFCURVE",
"-241 -296 CURVE SMOOTH",
"-148 -296 OFFCURVE",
"-57 -184 OFFCURVE",
"-57 -109 CURVE SMOOTH"
);
}
);
width = 16;
},
{
anchors = (
{
name = bottom;
position = "{-231, -277}";
}
);
background = {
paths = (
{
closed = 1;
nodes = (
"-57 -71 OFFCURVE",
"-75 -46 OFFCURVE",
"-104 -46 CURVE SMOOTH",
"-146 -46 OFFCURVE",
"-168 -84 OFFCURVE",
"-168 -119 CURVE SMOOTH",
"-168 -122 OFFCURVE",
"-168 -126 OFFCURVE",
"-167 -129 CURVE",
"-133 -139 OFFCURVE",
"-120 -153 OFFCURVE",
"-120 -174 CURVE SMOOTH",
"-120 -204 OFFCURVE",
"-152 -230 OFFCURVE",
"-202 -230 CURVE SMOOTH",
"-256 -230 OFFCURVE",
"-274 -205 OFFCURVE",
"-274 -122 CURVE SMOOTH",
"-274 46 LINE SMOOTH",
"-274 59 OFFCURVE",
"-289 71 OFFCURVE",
"-309 71 CURVE SMOOTH",
"-329 71 OFFCURVE",
"-344 59 OFFCURVE",
"-344 46 CURVE SMOOTH",
"-344 -172 LINE SMOOTH",
"-344 -256 OFFCURVE",
"-309 -296 OFFCURVE",
"-241 -296 CURVE SMOOTH",
"-148 -296 OFFCURVE",
"-57 -184 OFFCURVE",
"-57 -109 CURVE SMOOTH"
);
}
);
};
layerId = "0ED38B93-C2B0-4B4A-9C6D-D7838A33C317";
paths = (
{
closed = 1;
nodes = (
"-57 -71 OFFCURVE",
"-81 -46 OFFCURVE",
"-119 -46 CURVE SMOOTH",
"-171 -46 OFFCURVE",
"-198 -89 OFFCURVE",
"-198 -129 CURVE SMOOTH",
"-198 -132 OFFCURVE",
"-198 -136 OFFCURVE",
"-197 -139 CURVE",
"-163 -149 OFFCURVE",
"-150 -163 OFFCURVE",
"-150 -184 CURVE SMOOTH",
"-150 -209 OFFCURVE",
"-172 -230 OFFCURVE",
"-207 -230 CURVE SMOOTH",
"-258 -230 OFFCURVE",
"-274 -207 OFFCURVE",
"-274 -132 CURVE SMOOTH",
"-274 46 LINE SMOOTH",
"-274 59 OFFCURVE",
"-295 71 OFFCURVE",
"-324 71 CURVE SMOOTH",
"-353 71 OFFCURVE",
"-374 59 OFFCURVE",
"-374 46 CURVE SMOOTH",
"-374 -182 LINE SMOOTH",
"-374 -266 OFFCURVE",
"-339 -306 OFFCURVE",
"-271 -306 CURVE SMOOTH",
"-162 -306 OFFCURVE",
"-57 -188 OFFCURVE",
"-57 -109 CURVE SMOOTH"
);
}
);
width = 16;
}
);
},
{
color = 5;
glyphname = "hyarmen-teng.top";
lastChange = "2022-01-04 13:55:22 +0000";
layers = (
{
anchors = (
{
name = bottom;
position = "{282, 0}";
},
{
name = bottomleft;
position = "{40, 0}";
},
{
name = top;
position = "{382, 430}";
}
);
background = {
paths = (
{
closed = 1;
nodes = (
"475 -12 OFFCURVE",
"514 10 OFFCURVE",
"553 50 CURVE",
"553 55 OFFCURVE",
"542 69 OFFCURVE",
"538 69 CURVE",
"517 52 OFFCURVE",
"503 46 OFFCURVE",
"489 46 CURVE SMOOTH",
"472 46 OFFCURVE",
"457 60 OFFCURVE",
"418 141 CURVE SMOOTH",
"355 273 OFFCURVE",
"276 512 OFFCURVE",
"228 621 CURVE SMOOTH",
"196 693 OFFCURVE",
"177 712 OFFCURVE",
"141 712 CURVE SMOOTH",
"110 712 OFFCURVE",
"67 685 OFFCURVE",
"28 637 CURVE",
"28 633 OFFCURVE",
"39 620 OFFCURVE",
"43 620 CURVE",
"65 643 OFFCURVE",
"82 653 OFFCURVE",
"97 653 CURVE SMOOTH",
"113 653 OFFCURVE",
"130 637 OFFCURVE",
"155 584 CURVE SMOOTH",
"215 458 OFFCURVE",
"292 237 OFFCURVE",
"362 79 CURVE SMOOTH",
"394 7 OFFCURVE",
"413 -12 OFFCURVE",
"444 -12 CURVE SMOOTH"
);
},
{
closed = 1;
nodes = (
"107 -12 OFFCURVE",
"137 6 OFFCURVE",
"177 73 CURVE SMOOTH",
"212 131 OFFCURVE",
"256 212 OFFCURVE",
"290 281 CURVE",
"285 332 LINE",
"242 247 OFFCURVE",
"204 181 OFFCURVE",
"172 134 CURVE SMOOTH",
"152 106 OFFCURVE",
"131 94 OFFCURVE",
"110 94 CURVE SMOOTH",
"95 94 OFFCURVE",
"78 103 OFFCURVE",
"60 119 CURVE",
"33 102 OFFCURVE",
"15 75 OFFCURVE",
"15 49 CURVE SMOOTH",
"15 10 OFFCURVE",
"37 -12 OFFCURVE",
"70 -12 CURVE SMOOTH"
);
}
);
};
layerId = "4397B867-53E7-4964-BB9B-A578920F109C";
paths = (
{
closed = 1;
nodes = (
"475 -12 OFFCURVE",
"514 10 OFFCURVE",
"553 50 CURVE",
"553 55 OFFCURVE",
"542 69 OFFCURVE",
"538 69 CURVE",
"517 52 OFFCURVE",
"503 46 OFFCURVE",
"489 46 CURVE SMOOTH",
"472 46 OFFCURVE",
"457 60 OFFCURVE",
"412 138 CURVE SMOOTH",
"340 262 OFFCURVE",
"243 479 OFFCURVE",
"189 581 CURVE SMOOTH",
"152 651 OFFCURVE",
"133 670 OFFCURVE",
"97 670 CURVE SMOOTH",
"66 670 OFFCURVE",
"23 643 OFFCURVE",
"-16 595 CURVE",
"-16 591 OFFCURVE",
"-5 578 OFFCURVE",
"-1 578 CURVE",
"21 601 OFFCURVE",
"38 611 OFFCURVE",
"53 611 CURVE SMOOTH",
"69 611 OFFCURVE",
"86 595 OFFCURVE",
"115 544 CURVE SMOOTH",
"182 426 OFFCURVE",
"278 224 OFFCURVE",
"357 76 CURVE SMOOTH",
"394 7 OFFCURVE",
"413 -12 OFFCURVE",
"444 -12 CURVE SMOOTH"
);
},
{
closed = 1;
nodes = (
"107 -12 OFFCURVE",
"137 6 OFFCURVE",
"177 73 CURVE SMOOTH",
"212 131 OFFCURVE",
"256 212 OFFCURVE",
"290 281 CURVE",
"285 332 LINE",
"242 247 OFFCURVE",
"204 181 OFFCURVE",
"172 134 CURVE SMOOTH",
"152 106 OFFCURVE",
"131 94 OFFCURVE",
"110 94 CURVE SMOOTH",
"95 94 OFFCURVE",
"78 103 OFFCURVE",
"60 119 CURVE",
"33 102 OFFCURVE",
"15 75 OFFCURVE",
"15 49 CURVE SMOOTH",
"15 10 OFFCURVE",
"37 -12 OFFCURVE",
"70 -12 CURVE SMOOTH"
);
}
);
width = 547;
},
{
anchors = (
{
name = bottom;
position = "{277, 0}";
},
{
name = bottomleft;
position = "{35, 0}";
},
{
name = top;
position = "{407, 450}";
}
);
background = {
paths = (
{
closed = 1;
nodes = (
"470 -12 OFFCURVE",
"509 10 OFFCURVE",
"548 50 CURVE",
"548 55 OFFCURVE",
"537 69 OFFCURVE",
"533 69 CURVE",
"512 52 OFFCURVE",
"498 46 OFFCURVE",
"484 46 CURVE SMOOTH",
"467 46 OFFCURVE",
"452 60 OFFCURVE",
"407 138 CURVE SMOOTH",
"335 262 OFFCURVE",
"238 479 OFFCURVE",
"184 581 CURVE SMOOTH",
"147 651 OFFCURVE",
"128 670 OFFCURVE",
"92 670 CURVE SMOOTH",
"61 670 OFFCURVE",
"18 643 OFFCURVE",
"-21 595 CURVE",
"-21 591 OFFCURVE",
"-10 578 OFFCURVE",
"-6 578 CURVE",
"16 601 OFFCURVE",
"33 611 OFFCURVE",
"48 611 CURVE SMOOTH",
"64 611 OFFCURVE",
"81 595 OFFCURVE",
"110 544 CURVE SMOOTH",
"177 426 OFFCURVE",
"273 224 OFFCURVE",
"352 76 CURVE SMOOTH",
"389 7 OFFCURVE",
"408 -12 OFFCURVE",
"439 -12 CURVE SMOOTH"
);
},
{
closed = 1;
nodes = (
"102 -12 OFFCURVE",
"132 6 OFFCURVE",
"172 73 CURVE SMOOTH",
"207 131 OFFCURVE",
"251 212 OFFCURVE",
"285 281 CURVE",
"280 332 LINE",
"237 247 OFFCURVE",
"199 181 OFFCURVE",
"167 134 CURVE SMOOTH",
"147 106 OFFCURVE",
"126 94 OFFCURVE",
"105 94 CURVE SMOOTH",
"90 94 OFFCURVE",
"73 103 OFFCURVE",
"55 119 CURVE",
"28 102 OFFCURVE",
"10 75 OFFCURVE",
"10 49 CURVE SMOOTH",
"10 10 OFFCURVE",
"32 -12 OFFCURVE",
"65 -12 CURVE SMOOTH"
);
}
);
};
layerId = "0ED38B93-C2B0-4B4A-9C6D-D7838A33C317";
paths = (
{
closed = 1;
nodes = (
"478 -12 OFFCURVE",
"527 19 OFFCURVE",
"576 74 CURVE",
"576 79 OFFCURVE",
"565 93 OFFCURVE",
"561 93 CURVE",
"540 76 OFFCURVE",
"526 70 OFFCURVE",
"512 70 CURVE SMOOTH",
"495 70 OFFCURVE",
"480 83 OFFCURVE",
"435 162 CURVE SMOOTH",
"368 279 OFFCURVE",
"275 485 OFFCURVE",
"224 581 CURVE SMOOTH",
"187 651 OFFCURVE",
"168 670 OFFCURVE",
"132 670 CURVE SMOOTH",
"93 670 OFFCURVE",
"40 634 OFFCURVE",
"-9 571 CURVE",
"-9 567 OFFCURVE",
"2 554 OFFCURVE",
"6 554 CURVE",
"28 577 OFFCURVE",
"45 587 OFFCURVE",
"60 587 CURVE SMOOTH",
"76 587 OFFCURVE",
"93 571 OFFCURVE",
"122 520 CURVE SMOOTH",
"186 408 OFFCURVE",
"277 216 OFFCURVE",
"352 76 CURVE SMOOTH",
"389 7 OFFCURVE",
"408 -12 OFFCURVE",
"439 -12 CURVE SMOOTH"
);
},
{
closed = 1;
nodes = (
"102 -12 OFFCURVE",
"132 6 OFFCURVE",
"172 73 CURVE SMOOTH",
"207 131 OFFCURVE",
"251 212 OFFCURVE",
"285 281 CURVE",
"280 332 LINE",
"242 257 OFFCURVE",
"210 199 OFFCURVE",
"182 157 CURVE SMOOTH",
"164 130 OFFCURVE",
"143 118 OFFCURVE",
"123 118 CURVE SMOOTH",
"109 118 OFFCURVE",
"92 127 OFFCURVE",
"75 143 CURVE",
"36 120 OFFCURVE",
"10 84 OFFCURVE",
"10 49 CURVE SMOOTH",
"10 10 OFFCURVE",
"32 -12 OFFCURVE",
"65 -12 CURVE SMOOTH"
);
}
);
width = 565;
}
);
leftKerningGroup = hyarmen;
widthMetricsKey = "hyarmen-teng";
rightKerningGroup = hyarmen;
rightMetricsKey = "hyarmen-teng";
},
{
glyphname = "sarincefina-teng.top";
lastChange = "2022-01-04 13:57:48 +0000";
layers = (
{
anchors = (
{
name = _jointbar;
position = "{0, 400}";
},
{
name = _sarince;
position = "{0, 330}";
},
{
name = bottom;
position = "{177, 33}";
},
{
name = top;
position = "{197, 400}";
}
);
background = {
paths = (
{
closed = 1;
nodes = (
"0 70 LINE SMOOTH",
"-28 70 OFFCURVE",
"-35 63 OFFCURVE",
"-35 35 CURVE SMOOTH",
"-35 7 OFFCURVE",
"-28 0 OFFCURVE",
"0 0 CURVE SMOOTH",
"191 0 LINE SMOOTH",
"251 0 OFFCURVE",
"272 -22 OFFCURVE",
"272 -60 CURVE SMOOTH",
"272 -109 OFFCURVE",
"238 -144 OFFCURVE",
"195 -144 CURVE SMOOTH",
"165 -144 OFFCURVE",
"151 -125 OFFCURVE",
"142 -77 CURVE",
"139 -76 OFFCURVE",
"135 -76 OFFCURVE",
"132 -76 CURVE SMOOTH",
"97 -76 OFFCURVE",
"59 -98 OFFCURVE",
"59 -140 CURVE SMOOTH",
"59 -172 OFFCURVE",
"81 -197 OFFCURVE",
"132 -197 CURVE SMOOTH",
"248 -197 OFFCURVE",
"359 -111 OFFCURVE",
"359 -23 CURVE SMOOTH",
"359 39 OFFCURVE",
"328 70 OFFCURVE",
"241 70 CURVE SMOOTH"
);
}
);
};
layerId = "4397B867-53E7-4964-BB9B-A578920F109C";
paths = (
{
closed = 1;
nodes = (
"278 113 OFFCURVE",
"389 204 OFFCURVE",
"389 297 CURVE SMOOTH",
"389 365 OFFCURVE",
"349 400 OFFCURVE",
"265 400 CURVE SMOOTH",
"0 400 LINE SMOOTH",
"-28 400 OFFCURVE",
"-35 393 OFFCURVE",
"-35 365 CURVE SMOOTH",
"-35 337 OFFCURVE",
"-28 330 OFFCURVE",
"0 330 CURVE SMOOTH",
"215 330 LINE SMOOTH",
"298 330 OFFCURVE",
"323 312 OFFCURVE",
"323 258 CURVE SMOOTH",
"323 202 OFFCURVE",
"279 166 OFFCURVE",
"227 166 CURVE SMOOTH",
"195 166 OFFCURVE",
"181 185 OFFCURVE",
"172 233 CURVE",
"169 234 OFFCURVE",
"165 234 OFFCURVE",
"162 234 CURVE SMOOTH",
"127 234 OFFCURVE",
"89 212 OFFCURVE",
"89 170 CURVE SMOOTH",
"89 138 OFFCURVE",
"111 113 OFFCURVE",
"162 113 CURVE SMOOTH"
);
}
);
width = 419;
},
{
anchors = (
{
name = _jointbar;
position = "{0, 420}";
},
{
name = _sarince;
position = "{0, 326}";
},
{
name = bottom;
position = "{177, 33}";
},
{
name = top;
position = "{217, 420}";
}
);
background = {
paths = (
{
closed = 1;
nodes = (
"278 113 OFFCURVE",
"389 204 OFFCURVE",
"389 297 CURVE SMOOTH",
"389 365 OFFCURVE",
"349 400 OFFCURVE",
"265 400 CURVE SMOOTH",
"0 400 LINE SMOOTH",
"-28 400 OFFCURVE",
"-35 393 OFFCURVE",
"-35 365 CURVE SMOOTH",
"-35 337 OFFCURVE",
"-28 330 OFFCURVE",
"0 330 CURVE SMOOTH",
"215 330 LINE SMOOTH",
"298 330 OFFCURVE",
"323 312 OFFCURVE",
"323 258 CURVE SMOOTH",
"323 202 OFFCURVE",
"279 166 OFFCURVE",
"227 166 CURVE SMOOTH",
"195 166 OFFCURVE",
"181 185 OFFCURVE",
"172 233 CURVE",
"169 234 OFFCURVE",
"165 234 OFFCURVE",
"162 234 CURVE SMOOTH",
"127 234 OFFCURVE",
"89 212 OFFCURVE",
"89 170 CURVE SMOOTH",
"89 138 OFFCURVE",
"111 113 OFFCURVE",
"162 113 CURVE SMOOTH"
);
}
);
};
layerId = "0ED38B93-C2B0-4B4A-9C6D-D7838A33C317";
paths = (
{
closed = 1;
nodes = (
"291 99 OFFCURVE",
"409 206 OFFCURVE",
"409 315 CURVE SMOOTH",
"409 384 OFFCURVE",
"376 420 OFFCURVE",
"285 420 CURVE SMOOTH",
"0 420 LINE SMOOTH",
"-28 420 OFFCURVE",
"-35 411 OFFCURVE",
"-35 373 CURVE SMOOTH",
"-35 335 OFFCURVE",
"-28 326 OFFCURVE",
"0 326 CURVE SMOOTH",
"220 326 LINE SMOOTH",
"305 326 OFFCURVE",
"328 307 OFFCURVE",
"328 251 CURVE SMOOTH",
"328 195 OFFCURVE",
"289 159 OFFCURVE",
"245 159 CURVE SMOOTH",
"213 159 OFFCURVE",
"200 179 OFFCURVE",
"192 231 CURVE",
"185 233 OFFCURVE",
"175 234 OFFCURVE",
"167 234 CURVE SMOOTH",
"127 234 OFFCURVE",
"84 209 OFFCURVE",
"84 160 CURVE SMOOTH",
"84 126 OFFCURVE",
"109 99 OFFCURVE",
"167 99 CURVE SMOOTH"
);
}
);
width = 434;
}
);
rightKerningGroup = sarinceTop;
rightMetricsKey = "sarincefina-teng.ss03";
},
{
glyphname = "sarincefina-teng.top.ss04";
lastChange = "2022-01-04 13:57:40 +0000";
layers = (
{
anchors = (
{
name = _jointbar;
position = "{0, 400}";
},
{
name = _sarince;
position = "{0, 330}";
},
{
name = bottom;
position = "{207, 27}";
},
{
name = top;
position = "{212, 500}";
}
);
background = {
paths = (
{
closed = 1;
nodes = (
"135 201 OFFCURVE",
"116 209 OFFCURVE",
"106 222 CURVE",
"90 213 OFFCURVE",
"81 192 OFFCURVE",
"81 168 CURVE SMOOTH",
"81 128 OFFCURVE",
"102 107 OFFCURVE",
"144 107 CURVE SMOOTH",
"232 107 OFFCURVE",
"258 192 OFFCURVE",
"286 333 CURVE SMOOTH",
"310 455 OFFCURVE",
"353 506 OFFCURVE",
"422 506 CURVE SMOOTH",
"457 506 OFFCURVE",
"474 490 OFFCURVE",
"474 467 CURVE SMOOTH",
"474 425 OFFCURVE",
"436 400 OFFCURVE",
"286 400 CURVE SMOOTH",
"0 400 LINE SMOOTH",
"-28 400 OFFCURVE",
"-35 393 OFFCURVE",
"-35 365 CURVE SMOOTH",
"-35 337 OFFCURVE",
"-28 330 OFFCURVE",
"0 330 CURVE SMOOTH",
"206 330 LINE SMOOTH",
"414 330 OFFCURVE",
"538 429 OFFCURVE",
"538 507 CURVE SMOOTH",
"538 548 OFFCURVE",
"509 578 OFFCURVE",
"453 578 CURVE SMOOTH",
"350 578 OFFCURVE",
"286 488 OFFCURVE",
"256 337 CURVE SMOOTH",
"236 237 OFFCURVE",
"214 201 OFFCURVE",
"154 201 CURVE SMOOTH"
);
}
);
};
components = (
{
alignment = -1;
name = "sarincefina-teng.ss04";
transform = "{1, 0, 0, 1, 0, 330}";
}
);
layerId = "4397B867-53E7-4964-BB9B-A578920F109C";
width = 568;
},
{
anchors = (
{
name = _jointbar;
position = "{0, 420}";
},
{
name = _sarince;
position = "{0, 326}";
},
{
name = bottom;
position = "{207, 27}";
},
{
name = top;
position = "{212, 548}";
}
);
background = {
paths = (
{
closed = 1;
nodes = (
"135 201 OFFCURVE",
"116 209 OFFCURVE",
"106 222 CURVE",
"90 213 OFFCURVE",
"81 192 OFFCURVE",
"81 168 CURVE SMOOTH",
"81 128 OFFCURVE",
"102 107 OFFCURVE",
"144 107 CURVE SMOOTH",
"232 107 OFFCURVE",
"258 192 OFFCURVE",
"286 333 CURVE SMOOTH",
"310 455 OFFCURVE",
"353 506 OFFCURVE",
"422 506 CURVE SMOOTH",
"457 506 OFFCURVE",
"474 490 OFFCURVE",
"474 467 CURVE SMOOTH",
"474 425 OFFCURVE",
"436 400 OFFCURVE",
"286 400 CURVE SMOOTH",
"0 400 LINE SMOOTH",
"-28 400 OFFCURVE",
"-35 393 OFFCURVE",
"-35 365 CURVE SMOOTH",
"-35 337 OFFCURVE",
"-28 330 OFFCURVE",
"0 330 CURVE SMOOTH",
"206 330 LINE SMOOTH",
"414 330 OFFCURVE",
"538 429 OFFCURVE",
"538 507 CURVE SMOOTH",
"538 548 OFFCURVE",
"509 578 OFFCURVE",
"453 578 CURVE SMOOTH",
"350 578 OFFCURVE",
"286 488 OFFCURVE",
"256 337 CURVE SMOOTH",
"236 237 OFFCURVE",
"214 201 OFFCURVE",
"154 201 CURVE SMOOTH"
);
}
);
};
components = (
{
alignment = -1;
name = "sarincefina-teng.ss04";
transform = "{1, 0, 0, 1, 0, 326}";
}
);
layerId = "0ED38B93-C2B0-4B4A-9C6D-D7838A33C317";
width = 593;
}
);
leftMetricsKey = "sarincefina-teng.ss04";
rightKerningGroup = sarinceTop;
rightMetricsKey = "sarincefina-teng.ss03";
},
{
color = 9;
glyphname = "tinco_thuule-teng";
lastChange = "2022-01-04 13:58:46 +0000";
layers = (
{
anchors = (
{
name = bottom_1;
position = "{382, 0}";
},
{
name = bottom_2;
position = "{382, 0}";
},
{
name = bottomleft_1;
position = "{228, -20}";
},
{
name = bottomleft_2;
position = "{228, -20}";
},
{
name = caret_1;
position = "{311, 0}";
},
{
name = top_1;
position = "{389, 450}";
},
{
name = top_2;
position = "{389, 450}";
}
);
components = (
{
name = instrokeleftascender;
transform = "{1, 0, 0, 1, 34, 0}";
},
{
name = descender;
transform = "{1, 0, 0, 1, 34, 0}";
}
);
layerId = "4397B867-53E7-4964-BB9B-A578920F109C";
paths = (
{
closed = 1;
nodes = (
"445 -40 OFFCURVE",
"563 42 OFFCURVE",
"563 150 CURVE SMOOTH",
"563 223 OFFCURVE",
"500 270 OFFCURVE",
"415 270 CURVE SMOOTH",
"317 270 OFFCURVE",
"237 208 OFFCURVE",
"176 114 CURVE",
"176 72 LINE",
"240 157 OFFCURVE",
"298 197 OFFCURVE",
"380 197 CURVE SMOOTH",
"442 197 OFFCURVE",
"485 162 OFFCURVE",
"485 100 CURVE SMOOTH",
"485 47 OFFCURVE",
"446 11 OFFCURVE",
"398 11 CURVE SMOOTH",
"373 11 OFFCURVE",
"352 28 OFFCURVE",
"340 72 CURVE",
"337 73 OFFCURVE",
"333 73 OFFCURVE",
"330 73 CURVE SMOOTH",
"304 73 OFFCURVE",
"269 57 OFFCURVE",
"269 16 CURVE SMOOTH",
"269 -16 OFFCURVE",
"289 -40 OFFCURVE",
"335 -40 CURVE SMOOTH"
);
},
{
closed = 1;
nodes = (
"184 111 LINE",
"184 126 LINE",
"172 128 LINE",
"172 111 LINE"
);
},
{
closed = 1;
nodes = (
"184 321 LINE",
"184 336 LINE",
"172 338 LINE",
"172 321 LINE"
);
},
{
closed = 1;
nodes = (
"435 247 LINE",
"487 276 OFFCURVE",
"523 319 OFFCURVE",
"523 370 CURVE SMOOTH",
"523 437 OFFCURVE",
"469 480 OFFCURVE",
"395 480 CURVE SMOOTH",
"305 480 OFFCURVE",
"235 418 OFFCURVE",
"176 324 CURVE",
"176 282 LINE",
"234 367 OFFCURVE",
"286 407 OFFCURVE",
"360 407 CURVE SMOOTH",
"410 407 OFFCURVE",
"445 380 OFFCURVE",
"445 330 CURVE SMOOTH",
"445 303 OFFCURVE",
"432 282 OFFCURVE",
"413 268 CURVE"
);
}
);
width = 613;
},
{
anchors = (
{
name = bottom_1;
position = "{407, 0}";
},
{
name = bottom_2;
position = "{407, 0}";
},
{
name = bottomleft_1;
position = "{260, -20}";
},
{
name = bottomleft_2;
position = "{260, -20}";
},
{
name = caret_1;
position = "{336, 0}";
},
{
name = top_1;
position = "{414, 462}";
},
{
name = top_2;
position = "{414, 462}";
}
);
background = {
paths = (
{
closed = 1;
nodes = (
"470 -40 OFFCURVE",
"588 42 OFFCURVE",
"588 150 CURVE SMOOTH",
"588 223 OFFCURVE",
"525 270 OFFCURVE",
"440 270 CURVE SMOOTH",
"342 270 OFFCURVE",
"262 208 OFFCURVE",
"201 114 CURVE",
"201 72 LINE",
"265 157 OFFCURVE",
"323 197 OFFCURVE",
"405 197 CURVE SMOOTH",
"467 197 OFFCURVE",
"510 162 OFFCURVE",
"510 100 CURVE SMOOTH",
"510 47 OFFCURVE",
"471 11 OFFCURVE",
"423 11 CURVE SMOOTH",
"391 11 OFFCURVE",
"374 40 OFFCURVE",
"365 72 CURVE",
"362 73 OFFCURVE",
"358 73 OFFCURVE",
"355 73 CURVE SMOOTH",
"329 73 OFFCURVE",
"294 57 OFFCURVE",
"294 16 CURVE SMOOTH",
"294 -16 OFFCURVE",
"314 -40 OFFCURVE",
"360 -40 CURVE SMOOTH"
);
},
{
closed = 1;
nodes = (
"209 111 LINE",
"209 126 LINE",
"197 128 LINE",
"197 111 LINE"
);
},
{
closed = 1;
nodes = (
"209 321 LINE",
"209 336 LINE",
"197 338 LINE",
"197 321 LINE"
);
},
{
closed = 1;
nodes = (
"460 247 LINE",
"512 276 OFFCURVE",
"548 319 OFFCURVE",
"548 370 CURVE SMOOTH",
"548 437 OFFCURVE",
"494 480 OFFCURVE",
"420 480 CURVE SMOOTH",
"330 480 OFFCURVE",
"260 418 OFFCURVE",
"201 324 CURVE",
"201 282 LINE",
"259 367 OFFCURVE",
"311 407 OFFCURVE",
"385 407 CURVE SMOOTH",
"435 407 OFFCURVE",
"470 380 OFFCURVE",
"470 330 CURVE SMOOTH",
"470 303 OFFCURVE",
"457 282 OFFCURVE",
"438 268 CURVE"
);
}
);
};
components = (
{
name = instrokeleftascender;
transform = "{1, 0, 0, 1, 29, 0}";
},
{
name = descender;
transform = "{1, 0, 0, 1, 29, 0}";
}
);
layerId = "0ED38B93-C2B0-4B4A-9C6D-D7838A33C317";
paths = (
{
closed = 1;
nodes = (
"480 -40 OFFCURVE",
"608 42 OFFCURVE",
"608 150 CURVE SMOOTH",
"608 230 OFFCURVE",
"541 282 OFFCURVE",
"450 282 CURVE SMOOTH",
"348 282 OFFCURVE",
"265 215 OFFCURVE",
"201 114 CURVE",
"201 72 LINE",
"262 149 OFFCURVE",
"317 185 OFFCURVE",
"395 185 CURVE SMOOTH",
"457 185 OFFCURVE",
"500 151 OFFCURVE",
"500 90 CURVE SMOOTH",
"500 43 OFFCURVE",
"465 11 OFFCURVE",
"423 11 CURVE SMOOTH",
"398 11 OFFCURVE",
"385 31 OFFCURVE",
"375 82 CURVE",
"367 85 OFFCURVE",
"355 87 OFFCURVE",
"345 87 CURVE SMOOTH",
"314 87 OFFCURVE",
"274 69 OFFCURVE",
"274 26 CURVE SMOOTH",
"274 -12 OFFCURVE",
"300 -40 OFFCURVE",
"360 -40 CURVE SMOOTH"
);
},
{
closed = 1;
nodes = (
"209 111 LINE",
"209 126 LINE",
"197 128 LINE",
"197 111 LINE"
);
},
{
closed = 1;
nodes = (
"209 321 LINE",
"209 336 LINE",
"197 338 LINE",
"197 321 LINE"
);
},
{
closed = 1;
nodes = (
"460 247 LINE",
"524 276 OFFCURVE",
"568 319 OFFCURVE",
"568 370 CURVE SMOOTH",
"568 444 OFFCURVE",
"510 492 OFFCURVE",
"430 492 CURVE SMOOTH",
"336 492 OFFCURVE",
"263 425 OFFCURVE",
"201 324 CURVE",
"201 282 LINE",
"256 359 OFFCURVE",
"305 395 OFFCURVE",
"375 395 CURVE SMOOTH",
"425 395 OFFCURVE",
"460 369 OFFCURVE",
"460 320 CURVE SMOOTH",
"460 297 OFFCURVE",
"451 280 OFFCURVE",
"438 268 CURVE"
);
}
);
width = 653;
}
);
leftMetricsKey = "tinco-teng";
rightMetricsKey = "thuule-teng";
},
{
color = 9;
glyphname = "parma_thuule-teng";
lastChange = "2022-01-04 13:58:54 +0000";
layers = (
{
anchors = (
{
name = bottom_1;
position = "{382, 0}";
},
{
name = bottom_2;
position = "{382, 0}";
},
{
name = bottomleft_1;
position = "{228, -20}";
},
{
name = bottomleft_2;
position = "{228, -20}";
},
{
name = caret_1;
position = "{311, 0}";
},
{
name = top_1;
position = "{389, 450}";
},
{
name = top_2;
position = "{389, 450}";
}
);
components = (
{
name = instrokeleftascender;
transform = "{1, 0, 0, 1, 34, 0}";
},
{
name = descender;
transform = "{1, 0, 0, 1, 34, 0}";
},
{
name = barout;
transform = "{1, 0, 0, 1, 406, 180}";
}
);
layerId = "4397B867-53E7-4964-BB9B-A578920F109C";
paths = (
{
closed = 1;
nodes = (
"435 247 LINE",
"487 276 OFFCURVE",
"523 319 OFFCURVE",
"523 370 CURVE SMOOTH",
"523 437 OFFCURVE",
"465 480 OFFCURVE",
"385 480 CURVE SMOOTH",
"299 480 OFFCURVE",
"232 426 OFFCURVE",
"176 344 CURVE",
"176 302 LINE",
"231 373 OFFCURVE",
"280 407 OFFCURVE",
"350 407 CURVE SMOOTH",
"406 407 OFFCURVE",
"445 380 OFFCURVE",
"445 330 CURVE SMOOTH",
"445 294 OFFCURVE",
"420 266 OFFCURVE",
"384 247 CURVE"
);
},
{
closed = 1;
nodes = (
"440 -40 OFFCURVE",
"553 33 OFFCURVE",
"553 130 CURVE SMOOTH",
"553 191 OFFCURVE",
"494 230 OFFCURVE",
"415 230 CURVE",
"358 180 LINE",
"433 180 OFFCURVE",
"485 147 OFFCURVE",
"485 90 CURVE SMOOTH",
"485 43 OFFCURVE",
"446 11 OFFCURVE",
"398 11 CURVE SMOOTH",
"366 11 OFFCURVE",
"349 40 OFFCURVE",
"340 72 CURVE",
"337 73 OFFCURVE",
"333 73 OFFCURVE",
"330 73 CURVE SMOOTH",
"304 73 OFFCURVE",
"269 57 OFFCURVE",
"269 16 CURVE SMOOTH",
"269 -16 OFFCURVE",
"289 -40 OFFCURVE",
"335 -40 CURVE SMOOTH"
);
},
{
closed = 1;
nodes = (
"461 180 LINE",
"461 250 LINE",
"154 250 LINE",
"154 180 LINE"
);
},
{
closed = 1;
nodes = (
"184 341 LINE",
"184 356 LINE",
"172 358 LINE",
"172 341 LINE"
);
}
);
width = 642;
},
{
anchors = (
{
name = bottom_1;
position = "{407, 0}";
},
{
name = bottom_2;
position = "{407, 0}";
},
{
name = bottomleft_1;
position = "{260, -20}";
},
{
name = bottomleft_2;
position = "{260, -20}";
},
{
name = caret_1;
position = "{336, 0}";
},
{
name = top_1;
position = "{414, 450}";
},
{
name = top_2;
position = "{414, 450}";
}
);
background = {
paths = (
{
closed = 1;
nodes = (
"465 -40 OFFCURVE",
"578 33 OFFCURVE",
"578 130 CURVE SMOOTH",
"578 191 OFFCURVE",
"519 230 OFFCURVE",
"440 230 CURVE",
"383 180 LINE",
"458 180 OFFCURVE",
"510 147 OFFCURVE",
"510 90 CURVE SMOOTH",
"510 43 OFFCURVE",
"471 11 OFFCURVE",
"423 11 CURVE SMOOTH",
"391 11 OFFCURVE",
"374 40 OFFCURVE",
"365 72 CURVE",
"362 73 OFFCURVE",
"358 73 OFFCURVE",
"355 73 CURVE SMOOTH",
"329 73 OFFCURVE",
"294 57 OFFCURVE",
"294 16 CURVE SMOOTH",
"294 -16 OFFCURVE",
"314 -40 OFFCURVE",
"360 -40 CURVE SMOOTH"
);
},
{
closed = 1;
nodes = (
"209 341 LINE",
"209 356 LINE",
"197 358 LINE",
"197 341 LINE"
);
},
{
closed = 1;
nodes = (
"460 247 LINE",
"512 276 OFFCURVE",
"548 319 OFFCURVE",
"548 370 CURVE SMOOTH",
"548 437 OFFCURVE",
"490 480 OFFCURVE",
"410 480 CURVE SMOOTH",
"324 480 OFFCURVE",
"257 426 OFFCURVE",
"201 344 CURVE",
"201 302 LINE",
"256 373 OFFCURVE",
"305 407 OFFCURVE",
"375 407 CURVE SMOOTH",
"431 407 OFFCURVE",
"470 380 OFFCURVE",
"470 330 CURVE SMOOTH",
"470 294 OFFCURVE",
"445 266 OFFCURVE",
"409 247 CURVE"
);
},
{
closed = 1;
nodes = (
"179 180 LINE",
"486 180 LINE",
"486 250 LINE",
"179 250 LINE"
);
}
);
};
components = (
{
name = instrokeleftascender;
transform = "{1, 0, 0, 1, 29, 0}";
},
{
name = descender;
transform = "{1, 0, 0, 1, 29, 0}";
},
{
name = barout;
transform = "{1, 0, 0, 1, 451, 180}";
}
);
layerId = "0ED38B93-C2B0-4B4A-9C6D-D7838A33C317";
paths = (
{
closed = 1;
nodes = (
"460 271 LINE",
"524 300 OFFCURVE",
"568 343 OFFCURVE",
"568 394 CURVE SMOOTH",
"568 461 OFFCURVE",
"510 504 OFFCURVE",
"430 504 CURVE SMOOTH",
"336 504 OFFCURVE",
"262 440 OFFCURVE",
"201 344 CURVE",
"201 302 LINE",
"256 373 OFFCURVE",
"305 407 OFFCURVE",
"375 407 CURVE SMOOTH",
"425 407 OFFCURVE",
"460 384 OFFCURVE",
"460 342 CURVE SMOOTH",
"460 311 OFFCURVE",
"439 287 OFFCURVE",
"409 271 CURVE"
);
},
{
closed = 1;
nodes = (
"475 -40 OFFCURVE",
"598 48 OFFCURVE",
"598 142 CURVE SMOOTH",
"598 203 OFFCURVE",
"539 242 OFFCURVE",
"460 242 CURVE",
"383 180 LINE",
"452 180 OFFCURVE",
"500 147 OFFCURVE",
"500 90 CURVE SMOOTH",
"500 43 OFFCURVE",
"465 11 OFFCURVE",
"423 11 CURVE SMOOTH",
"398 11 OFFCURVE",
"385 31 OFFCURVE",
"375 82 CURVE",
"367 85 OFFCURVE",
"355 87 OFFCURVE",
"345 87 CURVE SMOOTH",
"314 87 OFFCURVE",
"274 69 OFFCURVE",
"274 26 CURVE SMOOTH",
"274 -12 OFFCURVE",
"300 -40 OFFCURVE",
"360 -40 CURVE SMOOTH"
);
},
{
closed = 1;
nodes = (
"506 180 LINE",
"506 274 LINE",
"179 274 LINE",
"179 180 LINE"
);
},
{
closed = 1;
nodes = (
"209 341 LINE",
"209 356 LINE",
"197 358 LINE",
"197 341 LINE"
);
}
);
width = 702;
}
);
leftMetricsKey = "parma-teng";
rightMetricsKey = "parma-teng";
},
{
color = 9;
glyphname = "parma_formen-teng";
lastChange = "2022-01-04 13:59:03 +0000";
layers = (
{
anchors = (
{
name = bottom_1;
position = "{382, -30}";
},
{
name = bottom_2;
position = "{382, -30}";
},
{
name = bottomleft_1;
position = "{208, -20}";
},
{
name = bottomleft_2;
position = "{208, -20}";
},
{
name = caret_1;
position = "{311, 0}";
},
{
name = top_1;
position = "{389, 450}";
},
{
name = top_2;
position = "{389, 450}";
}
);
components = (
{
name = instrokeleftascender;
transform = "{1, 0, 0, 1, 34, 0}";
},
{
name = descender;
transform = "{1, 0, 0, 1, 34, 0}";
},
{
name = barout;
transform = "{1, 0, 0, 1, 399, -40}";
}
);
layerId = "4397B867-53E7-4964-BB9B-A578920F109C";
paths = (
{
closed = 1;
nodes = (
"184 111 LINE",
"184 126 LINE",
"172 128 LINE",
"172 111 LINE"
);
},
{
closed = 1;
nodes = (
"184 321 LINE",
"184 336 LINE",
"172 338 LINE",
"172 321 LINE"
);
},
{
closed = 1;
nodes = (
"435 247 LINE",
"487 276 OFFCURVE",
"523 319 OFFCURVE",
"523 370 CURVE SMOOTH",
"523 437 OFFCURVE",
"469 480 OFFCURVE",
"395 480 CURVE SMOOTH",
"305 480 OFFCURVE",
"235 418 OFFCURVE",
"176 324 CURVE",
"176 282 LINE",
"234 367 OFFCURVE",
"286 407 OFFCURVE",
"360 407 CURVE SMOOTH",
"410 407 OFFCURVE",
"445 380 OFFCURVE",
"445 330 CURVE SMOOTH",
"445 303 OFFCURVE",
"432 282 OFFCURVE",
"413 268 CURVE"
);
},
{
closed = 1;
nodes = (
"447 -7 LINE",
"514 26 OFFCURVE",
"563 83 OFFCURVE",
"563 150 CURVE SMOOTH",
"563 223 OFFCURVE",
"500 270 OFFCURVE",
"415 270 CURVE SMOOTH",
"317 270 OFFCURVE",
"237 208 OFFCURVE",
"176 114 CURVE",
"176 72 LINE",
"240 157 OFFCURVE",
"298 197 OFFCURVE",
"380 197 CURVE SMOOTH",
"442 197 OFFCURVE",
"485 162 OFFCURVE",
"485 100 CURVE SMOOTH",
"485 63 OFFCURVE",
"466 35 OFFCURVE",
"439 21 CURVE"
);
},
{
closed = 1;
nodes = (
"116 -40 LINE",
"454 -40 LINE",
"454 30 LINE",
"116 30 LINE"
);
}
);
width = 635;
},
{
anchors = (
{
name = bottom_1;
position = "{407, -30}";
},
{
name = bottom_2;
position = "{407, -30}";
},
{
name = bottomleft_1;
position = "{233, -20}";
},
{
name = bottomleft_2;
position = "{233, -20}";
},
{
name = caret_1;
position = "{336, 0}";
},
{
name = top_1;
position = "{414, 450}";
},
{
name = top_2;
position = "{414, 450}";
}
);
background = {
paths = (
{
closed = 1;
nodes = (
"209 111 LINE",
"209 126 LINE",
"197 128 LINE",
"197 111 LINE"
);
},
{
closed = 1;
nodes = (
"209 321 LINE",
"209 336 LINE",
"197 338 LINE",
"197 321 LINE"
);
},
{
closed = 1;
nodes = (
"460 247 LINE",
"512 276 OFFCURVE",
"548 319 OFFCURVE",
"548 370 CURVE SMOOTH",
"548 437 OFFCURVE",
"494 480 OFFCURVE",
"420 480 CURVE SMOOTH",
"330 480 OFFCURVE",
"260 418 OFFCURVE",
"201 324 CURVE",
"201 282 LINE",
"259 367 OFFCURVE",
"311 407 OFFCURVE",
"385 407 CURVE SMOOTH",
"435 407 OFFCURVE",
"470 380 OFFCURVE",
"470 330 CURVE SMOOTH",
"470 303 OFFCURVE",
"457 282 OFFCURVE",
"438 268 CURVE"
);
},
{
closed = 1;
nodes = (
"472 -7 LINE",
"539 26 OFFCURVE",
"588 83 OFFCURVE",
"588 150 CURVE SMOOTH",
"588 223 OFFCURVE",
"525 270 OFFCURVE",
"440 270 CURVE SMOOTH",
"342 270 OFFCURVE",
"262 208 OFFCURVE",
"201 114 CURVE",
"201 72 LINE",
"265 157 OFFCURVE",
"323 197 OFFCURVE",
"405 197 CURVE SMOOTH",
"467 197 OFFCURVE",
"510 162 OFFCURVE",
"510 100 CURVE SMOOTH",
"510 63 OFFCURVE",
"491 35 OFFCURVE",
"464 21 CURVE"
);
},
{
closed = 1;
nodes = (
"141 -40 LINE",
"479 -40 LINE",
"479 30 LINE",
"141 30 LINE"
);
}
);
};
components = (
{
name = instrokeleftascender;
transform = "{1, 0, 0, 1, 29, 0}";
},
{
name = descender;
transform = "{1, 0, 0, 1, 29, 0}";
},
{
name = barout;
transform = "{1, 0, 0, 1, 424, -40}";
}
);
layerId = "0ED38B93-C2B0-4B4A-9C6D-D7838A33C317";
paths = (
{
closed = 1;
nodes = (
"209 129 LINE",
"209 144 LINE",
"197 146 LINE",
"197 129 LINE"
);
},
{
closed = 1;
nodes = (
"209 321 LINE",
"209 336 LINE",
"197 338 LINE",
"197 321 LINE"
);
},
{
closed = 1;
nodes = (
"460 259 LINE",
"524 286 OFFCURVE",
"568 328 OFFCURVE",
"568 376 CURVE SMOOTH",
"568 447 OFFCURVE",
"510 492 OFFCURVE",
"430 492 CURVE SMOOTH",
"336 492 OFFCURVE",
"263 426 OFFCURVE",
"201 324 CURVE",
"201 282 LINE",
"259 359 OFFCURVE",
"311 395 OFFCURVE",
"385 395 CURVE SMOOTH",
"429 395 OFFCURVE",
"460 374 OFFCURVE",
"460 336 CURVE SMOOTH",
"460 312 OFFCURVE",
"451 293 OFFCURVE",
"438 280 CURVE"
);
},
{
closed = 1;
nodes = (
"472 17 LINE",
"551 48 OFFCURVE",
"608 103 OFFCURVE",
"608 168 CURVE SMOOTH",
"608 238 OFFCURVE",
"541 282 OFFCURVE",
"450 282 CURVE SMOOTH",
"348 282 OFFCURVE",
"265 224 OFFCURVE",
"201 133 CURVE",
"201 96 LINE",
"265 157 OFFCURVE",
"323 185 OFFCURVE",
"405 185 CURVE SMOOTH",
"461 185 OFFCURVE",
"500 156 OFFCURVE",
"500 106 CURVE SMOOTH",
"500 78 OFFCURVE",
"485 56 OFFCURVE",
"464 45 CURVE"
);
},
{
closed = 1;
nodes = (
"141 -40 LINE",
"479 -40 LINE",
"479 54 LINE",
"141 54 LINE"
);
}
);
width = 675;
}
);
leftMetricsKey = "parma-teng";
rightMetricsKey = "parma-teng";
},
{
color = 9;
glyphname = "calma_harma-teng";
lastChange = "2022-01-04 13:59:16 +0000";
layers = (
{
anchors = (
{
name = bottom_1;
position = "{212, -30}";
},
{
name = bottom_2;
position = "{212, -30}";
},
{
name = bottomleft_1;
position = "{70, -30}";
},
{
name = bottomleft_2;
position = "{70, -30}";
},
{
name = top_1;
position = "{219, 470}";
},
{
name = top_2;
position = "{219, 470}";
}
);
components = (
{
name = instrokeleftascender;
transform = "{1, 0, 0, 1, 371, 0}";
},
{
name = descender;
transform = "{1, 0, 0, 1, 371, 0}";
}
);
layerId = "4397B867-53E7-4964-BB9B-A578920F109C";
paths = (
{
closed = 1;
nodes = (
"296 170 OFFCURVE",
"376 232 OFFCURVE",
"437 326 CURVE",
"437 368 LINE",
"373 283 OFFCURVE",
"315 243 OFFCURVE",
"233 243 CURVE SMOOTH",
"171 243 OFFCURVE",
"128 278 OFFCURVE",
"128 340 CURVE SMOOTH",
"128 393 OFFCURVE",
"167 429 OFFCURVE",
"215 429 CURVE SMOOTH",
"247 429 OFFCURVE",
"264 400 OFFCURVE",
"273 368 CURVE",
"276 367 OFFCURVE",
"280 367 OFFCURVE",
"283 367 CURVE SMOOTH",
"309 367 OFFCURVE",
"344 383 OFFCURVE",
"344 424 CURVE SMOOTH",
"344 456 OFFCURVE",
"324 480 OFFCURVE",
"278 480 CURVE SMOOTH",
"168 480 OFFCURVE",
"50 398 OFFCURVE",
"50 290 CURVE SMOOTH",
"50 217 OFFCURVE",
"113 170 OFFCURVE",
"198 170 CURVE SMOOTH"
);
},
{
closed = 1;
nodes = (
"308 -40 OFFCURVE",
"378 22 OFFCURVE",
"437 116 CURVE",
"437 158 LINE",
"379 73 OFFCURVE",
"327 33 OFFCURVE",
"253 33 CURVE SMOOTH",
"203 33 OFFCURVE",
"168 60 OFFCURVE",
"168 110 CURVE SMOOTH",
"168 137 OFFCURVE",
"181 158 OFFCURVE",
"200 172 CURVE",
"178 193 LINE",
"126 164 OFFCURVE",
"90 121 OFFCURVE",
"90 70 CURVE SMOOTH",
"90 3 OFFCURVE",
"144 -40 OFFCURVE",
"218 -40 CURVE SMOOTH"
);
},
{
closed = 1;
nodes = (
"441 119 LINE",
"429 119 LINE",
"429 104 LINE",
"441 102 LINE"
);
},
{
closed = 1;
nodes = (
"441 329 LINE",
"429 329 LINE",
"429 314 LINE",
"441 312 LINE"
);
}
);
width = 595;
},
{
anchors = (
{
name = bottom_1;
position = "{207, -30}";
},
{
name = bottom_2;
position = "{207, -30}";
},
{
name = bottomleft_1;
position = "{65, -30}";
},
{
name = bottomleft_2;
position = "{65, -30}";
},
{
name = top_1;
position = "{214, 480}";
},
{
name = top_2;
position = "{214, 480}";
}
);
background = {
paths = (
{
closed = 1;
nodes = (
"183 480 OFFCURVE",
"65 398 OFFCURVE",
"65 290 CURVE SMOOTH",
"65 217 OFFCURVE",
"128 170 OFFCURVE",
"213 170 CURVE SMOOTH",
"311 170 OFFCURVE",
"391 232 OFFCURVE",
"452 326 CURVE",
"452 368 LINE",
"388 283 OFFCURVE",
"330 243 OFFCURVE",
"248 243 CURVE SMOOTH",
"186 243 OFFCURVE",
"143 278 OFFCURVE",
"143 340 CURVE SMOOTH",
"143 393 OFFCURVE",
"182 429 OFFCURVE",
"230 429 CURVE SMOOTH",
"262 429 OFFCURVE",
"279 400 OFFCURVE",
"288 368 CURVE",
"291 367 OFFCURVE",
"295 367 OFFCURVE",
"298 367 CURVE SMOOTH",
"324 367 OFFCURVE",
"359 383 OFFCURVE",
"359 424 CURVE SMOOTH",
"359 456 OFFCURVE",
"339 480 OFFCURVE",
"293 480 CURVE SMOOTH"
);
},
{
closed = 1;
nodes = (
"444 329 LINE",
"444 314 LINE",
"456 312 LINE",
"456 329 LINE"
);
},
{
closed = 1;
nodes = (
"444 119 LINE",
"444 104 LINE",
"456 102 LINE",
"456 119 LINE"
);
},
{
closed = 1;
nodes = (
"193 193 LINE",
"141 164 OFFCURVE",
"105 121 OFFCURVE",
"105 70 CURVE SMOOTH",
"105 3 OFFCURVE",
"159 -40 OFFCURVE",
"233 -40 CURVE SMOOTH",
"323 -40 OFFCURVE",
"393 22 OFFCURVE",
"452 116 CURVE",
"452 158 LINE",
"394 73 OFFCURVE",
"342 33 OFFCURVE",
"268 33 CURVE SMOOTH",
"218 33 OFFCURVE",
"183 60 OFFCURVE",
"183 110 CURVE SMOOTH",
"183 137 OFFCURVE",
"196 158 OFFCURVE",
"215 172 CURVE"
);
}
);
};
components = (
{
name = instrokeleftascender;
transform = "{1, 0, 0, 1, 386, 0}";
},
{
name = descender;
transform = "{1, 0, 0, 1, 386, 0}";
}
);
layerId = "0ED38B93-C2B0-4B4A-9C6D-D7838A33C317";
paths = (
{
closed = 1;
nodes = (
"305 170 OFFCURVE",
"388 236 OFFCURVE",
"452 338 CURVE",
"452 380 LINE",
"388 303 OFFCURVE",
"330 267 OFFCURVE",
"248 267 CURVE SMOOTH",
"192 267 OFFCURVE",
"153 300 OFFCURVE",
"153 358 CURVE SMOOTH",
"153 407 OFFCURVE",
"188 441 OFFCURVE",
"230 441 CURVE SMOOTH",
"255 441 OFFCURVE",
"268 421 OFFCURVE",
"278 370 CURVE",
"286 367 OFFCURVE",
"298 365 OFFCURVE",
"308 365 CURVE SMOOTH",
"339 365 OFFCURVE",
"379 383 OFFCURVE",
"379 426 CURVE SMOOTH",
"379 464 OFFCURVE",
"353 492 OFFCURVE",
"293 492 CURVE SMOOTH",
"173 492 OFFCURVE",
"45 407 OFFCURVE",
"45 296 CURVE SMOOTH",
"45 219 OFFCURVE",
"112 170 OFFCURVE",
"203 170 CURVE SMOOTH"
);
},
{
closed = 1;
nodes = (
"317 -40 OFFCURVE",
"390 26 OFFCURVE",
"452 128 CURVE",
"452 170 LINE",
"394 93 OFFCURVE",
"342 57 OFFCURVE",
"268 57 CURVE SMOOTH",
"224 57 OFFCURVE",
"193 80 OFFCURVE",
"193 122 CURVE SMOOTH",
"193 143 OFFCURVE",
"202 160 OFFCURVE",
"215 172 CURVE",
"193 193 LINE",
"129 164 OFFCURVE",
"85 121 OFFCURVE",
"85 70 CURVE SMOOTH",
"85 3 OFFCURVE",
"143 -40 OFFCURVE",
"223 -40 CURVE SMOOTH"
);
},
{
closed = 1;
nodes = (
"456 131 LINE",
"444 131 LINE",
"444 116 LINE",
"456 114 LINE"
);
},
{
closed = 1;
nodes = (
"456 341 LINE",
"444 341 LINE",
"444 326 LINE",
"456 324 LINE"
);
}
);
width = 635;
}
);
leftMetricsKey = "uure-teng";
rightKerningGroup = calmaascent;
rightMetricsKey = "calmaascent-teng";
},
{
color = 4;
glyphname = "roomen_sarincefina-teng.rlig";
lastChange = "2022-01-04 14:01:58 +0000";
layers = (
{
anchors = (
{
name = bottom_1;
position = "{158, -297}";
},
{
name = bottom_2;
position = "{631, -277}";
},
{
name = bottomleft_1;
position = "{-70, -240}";
},
{
name = top_1;
position = "{254, 400}";
},
{
name = top_2;
position = "{683, 64}";
}
);
background = {
paths = (
{
closed = 1;
nodes = (
"273 59 LINE",
"243 160 OFFCURVE",
"210 258 OFFCURVE",
"181 323 CURVE SMOOTH",
"149 395 OFFCURVE",
"126 414 OFFCURVE",
"95 414 CURVE SMOOTH",
"65 414 OFFCURVE",
"23 390 OFFCURVE",
"-15 348 CURVE",
"-15 344 OFFCURVE",
"-4 331 OFFCURVE",
"0 331 CURVE",
"18 348 OFFCURVE",
"31 355 OFFCURVE",
"43 355 CURVE SMOOTH",
"60 355 OFFCURVE",
"77 340 OFFCURVE",
"103 289 CURVE SMOOTH",
"136 224 OFFCURVE",
"180 110 OFFCURVE",
"213 0 CURVE"
);
},
{
closed = 1;
nodes = (
"524 -40 OFFCURVE",
"723 -40 CURVE SMOOTH",
"806 -40 OFFCURVE",
"831 -58 OFFCURVE",
"831 -112 CURVE SMOOTH",
"831 -168 OFFCURVE",
"787 -204 OFFCURVE",
"735 -204 CURVE SMOOTH",
"703 -204 OFFCURVE",
"689 -185 OFFCURVE",
"680 -137 CURVE",
"677 -136 OFFCURVE",
"673 -136 OFFCURVE",
"670 -136 CURVE SMOOTH",
"635 -136 OFFCURVE",
"597 -158 OFFCURVE",
"597 -200 CURVE SMOOTH",
"597 -232 OFFCURVE",
"619 -257 OFFCURVE",
"670 -257 CURVE SMOOTH",
"786 -257 OFFCURVE",
"897 -166 OFFCURVE",
"897 -73 CURVE SMOOTH",
"897 -5 OFFCURVE",
"857 30 OFFCURVE",
"773 30 CURVE SMOOTH",
"563 30 OFFCURVE",
"361 -249 OFFCURVE",
"225 -249 CURVE SMOOTH",
"172 -249 OFFCURVE",
"148 -223 OFFCURVE",
"148 -170 CURVE SMOOTH",
"148 2 OFFCURVE",
"478 138 OFFCURVE",
"478 316 CURVE SMOOTH",
"478 373 OFFCURVE",
"450 414 OFFCURVE",
"385 414 CURVE SMOOTH",
"338 414 OFFCURVE",
"294 391 OFFCURVE",
"263 362 CURVE",
"263 358 OFFCURVE",
"272 343 OFFCURVE",
"276 342 CURVE",
"296 358 OFFCURVE",
"319 366 OFFCURVE",
"338 366 CURVE SMOOTH",
"374 366 OFFCURVE",
"398 344 OFFCURVE",
"398 293 CURVE SMOOTH",
"398 100 OFFCURVE",
"68 -48 OFFCURVE",
"68 -198 CURVE SMOOTH",
"68 -268 OFFCURVE",
"104 -307 OFFCURVE",
"178 -307 CURVE SMOOTH",
"303 -307 OFFCURVE"
);
}
);
};
layerId = "4397B867-53E7-4964-BB9B-A578920F109C";
paths = (
{
closed = 1;
nodes = (
"322 -307 OFFCURVE",
"452 -29 OFFCURVE",
"639 -29 CURVE SMOOTH",
"723 -29 OFFCURVE",
"770 -73 OFFCURVE",
"770 -143 CURVE SMOOTH",
"770 -197 OFFCURVE",
"736 -227 OFFCURVE",
"696 -227 CURVE SMOOTH",
"664 -227 OFFCURVE",
"650 -207 OFFCURVE",
"641 -157 CURVE",
"638 -156 OFFCURVE",
"634 -156 OFFCURVE",
"631 -156 CURVE SMOOTH",
"596 -156 OFFCURVE",
"558 -178 OFFCURVE",
"558 -220 CURVE SMOOTH",
"558 -252 OFFCURVE",
"580 -277 OFFCURVE",
"631 -277 CURVE SMOOTH",
"735 -277 OFFCURVE",
"837 -200 OFFCURVE",
"837 -112 CURVE SMOOTH",
"837 -20 OFFCURVE",
"775 34 OFFCURVE",
"683 34 CURVE SMOOTH",
"470 34 OFFCURVE",
"337 -249 OFFCURVE",
"200 -249 CURVE SMOOTH",
"157 -249 OFFCURVE",
"138 -226 OFFCURVE",
"138 -180 CURVE SMOOTH",
"138 -7 OFFCURVE",
"478 131 OFFCURVE",
"478 316 CURVE SMOOTH",
"478 373 OFFCURVE",
"450 414 OFFCURVE",
"385 414 CURVE SMOOTH",
"338 414 OFFCURVE",
"294 391 OFFCURVE",
"263 362 CURVE",
"263 358 OFFCURVE",
"272 343 OFFCURVE",
"276 342 CURVE",
"296 358 OFFCURVE",
"319 366 OFFCURVE",
"338 366 CURVE SMOOTH",
"374 366 OFFCURVE",
"398 344 OFFCURVE",
"398 293 CURVE SMOOTH",
"398 96 OFFCURVE",
"58 -55 OFFCURVE",
"58 -208 CURVE SMOOTH",
"58 -272 OFFCURVE",
"91 -307 OFFCURVE",
"158 -307 CURVE SMOOTH"
);
},
{
closed = 1;
nodes = (
"273 59 LINE",
"243 160 OFFCURVE",
"210 258 OFFCURVE",
"181 323 CURVE SMOOTH",
"149 395 OFFCURVE",
"126 414 OFFCURVE",
"95 414 CURVE SMOOTH",
"65 414 OFFCURVE",
"23 390 OFFCURVE",
"-15 348 CURVE",
"-15 344 OFFCURVE",
"-4 331 OFFCURVE",
"0 331 CURVE",
"18 348 OFFCURVE",
"31 355 OFFCURVE",
"43 355 CURVE SMOOTH",
"60 355 OFFCURVE",
"77 340 OFFCURVE",
"103 289 CURVE SMOOTH",
"136 224 OFFCURVE",
"180 110 OFFCURVE",
"213 0 CURVE"
);
}
);
width = 852;
},
{
anchors = (
{
name = bottom_1;
position = "{164, -300}";
},
{
name = bottom_2;
position = "{619, -287}";
},
{
name = bottomleft_1;
position = "{-59, -240}";
},
{
name = top_1;
position = "{255, 420}";
},
{
name = top_2;
position = "{704, 74}";
}
);
background = {
paths = (
{
closed = 1;
nodes = (
"227 -312 OFFCURVE",
"279 -278 OFFCURVE",
"324 -225 CURVE",
"324 -221 OFFCURVE",
"315 -208 OFFCURVE",
"311 -208 CURVE",
"287 -225 OFFCURVE",
"261 -234 OFFCURVE",
"234 -234 CURVE SMOOTH",
"183 -234 OFFCURVE",
"160 -208 OFFCURVE",
"160 -155 CURVE SMOOTH",
"160 26 OFFCURVE",
"499 155 OFFCURVE",
"499 336 CURVE SMOOTH",
"499 393 OFFCURVE",
"471 434 OFFCURVE",
"406 434 CURVE SMOOTH",
"351 434 OFFCURVE",
"300 406 OFFCURVE",
"264 372 CURVE",
"264 368 OFFCURVE",
"273 353 OFFCURVE",
"277 352 CURVE",
"293 366 OFFCURVE",
"311 373 OFFCURVE",
"326 373 CURVE SMOOTH",
"366 373 OFFCURVE",
"393 349 OFFCURVE",
"393 293 CURVE SMOOTH",
"393 90 OFFCURVE",
"54 -51 OFFCURVE",
"54 -203 CURVE SMOOTH",
"54 -273 OFFCURVE",
"90 -312 OFFCURVE",
"164 -312 CURVE SMOOTH"
);
},
{
closed = 1;
nodes = (
"294 79 LINE",
"264 180 OFFCURVE",
"231 278 OFFCURVE",
"202 343 CURVE SMOOTH",
"170 415 OFFCURVE",
"147 434 OFFCURVE",
"116 434 CURVE SMOOTH",
"78 434 OFFCURVE",
"26 403 OFFCURVE",
"-20 348 CURVE",
"-20 344 OFFCURVE",
"-9 331 OFFCURVE",
"-5 331 CURVE",
"13 348 OFFCURVE",
"25 355 OFFCURVE",
"35 355 CURVE SMOOTH",
"52 355 OFFCURVE",
"69 338 OFFCURVE",
"98 281 CURVE SMOOTH",
"131 216 OFFCURVE",
"175 102 OFFCURVE",
"208 -8 CURVE"
);
},
{
closed = 0;
nodes = (
"153 -287 LINE SMOOTH",
"395 -287 OFFCURVE",
"457 -39 OFFCURVE",
"640 -39 CURVE SMOOTH",
"722 -39 OFFCURVE",
"761 -81 OFFCURVE",
"761 -148 CURVE SMOOTH",
"761 -206 OFFCURVE",
"730 -237 OFFCURVE",
"692 -237 CURVE SMOOTH",
"660 -237 OFFCURVE",
"647 -215 OFFCURVE",
"639 -155 CURVE",
"633 -153 OFFCURVE",
"625 -152 OFFCURVE",
"619 -152 CURVE SMOOTH",
"579 -152 OFFCURVE",
"536 -175 OFFCURVE",
"536 -220 CURVE SMOOTH",
"536 -257 OFFCURVE",
"561 -287 OFFCURVE",
"619 -287 CURVE SMOOTH",
"740 -287 OFFCURVE",
"858 -196 OFFCURVE",
"858 -92 CURVE SMOOTH",
"858 -6 OFFCURVE",
"796 44 OFFCURVE",
"704 44 CURVE SMOOTH",
"493 44 OFFCURVE",
"426 -212 OFFCURVE",
"231 -212 CURVE SMOOTH"
);
}
);
};
layerId = "0ED38B93-C2B0-4B4A-9C6D-D7838A33C317";
paths = (
{
closed = 1;
nodes = (
"361 -312 OFFCURVE",
"455 -39 OFFCURVE",
"640 -39 CURVE SMOOTH",
"722 -39 OFFCURVE",
"761 -81 OFFCURVE",
"761 -148 CURVE SMOOTH",
"761 -206 OFFCURVE",
"730 -237 OFFCURVE",
"692 -237 CURVE SMOOTH",
"660 -237 OFFCURVE",
"647 -215 OFFCURVE",
"639 -155 CURVE",
"633 -153 OFFCURVE",
"625 -152 OFFCURVE",
"619 -152 CURVE SMOOTH",
"579 -152 OFFCURVE",
"536 -175 OFFCURVE",
"536 -220 CURVE SMOOTH",
"536 -257 OFFCURVE",
"561 -287 OFFCURVE",
"619 -287 CURVE SMOOTH",
"740 -287 OFFCURVE",
"858 -196 OFFCURVE",
"858 -92 CURVE SMOOTH",
"858 -6 OFFCURVE",
"796 44 OFFCURVE",
"704 44 CURVE SMOOTH",
"498 44 OFFCURVE",
"388 -234 OFFCURVE",
"234 -234 CURVE SMOOTH",
"183 -234 OFFCURVE",
"160 -208 OFFCURVE",
"160 -155 CURVE SMOOTH",
"160 26 OFFCURVE",
"499 155 OFFCURVE",
"499 336 CURVE SMOOTH",
"499 393 OFFCURVE",
"471 434 OFFCURVE",
"406 434 CURVE SMOOTH",
"351 434 OFFCURVE",
"300 406 OFFCURVE",
"264 372 CURVE",
"264 368 OFFCURVE",
"273 353 OFFCURVE",
"277 352 CURVE",
"293 366 OFFCURVE",
"311 373 OFFCURVE",
"326 373 CURVE SMOOTH",
"366 373 OFFCURVE",
"393 349 OFFCURVE",
"393 293 CURVE SMOOTH",
"393 90 OFFCURVE",
"54 -51 OFFCURVE",
"54 -203 CURVE SMOOTH",
"54 -273 OFFCURVE",
"90 -312 OFFCURVE",
"164 -312 CURVE SMOOTH"
);
},
{
closed = 1;
nodes = (
"294 79 LINE",
"264 180 OFFCURVE",
"231 278 OFFCURVE",
"202 343 CURVE SMOOTH",
"170 415 OFFCURVE",
"147 434 OFFCURVE",
"116 434 CURVE SMOOTH",
"78 434 OFFCURVE",
"26 403 OFFCURVE",
"-20 348 CURVE",
"-20 344 OFFCURVE",
"-9 331 OFFCURVE",
"-5 331 CURVE",
"13 348 OFFCURVE",
"25 355 OFFCURVE",
"35 355 CURVE SMOOTH",
"52 355 OFFCURVE",
"69 338 OFFCURVE",
"98 281 CURVE SMOOTH",
"131 216 OFFCURVE",
"175 102 OFFCURVE",
"208 -8 CURVE"
);
}
);
width = 868;
}
);
leftKerningGroup = roomen;
leftMetricsKey = "roomen-teng";
rightKerningGroup = sarinceBottom;
rightMetricsKey = "sarincefina-teng";
},
{
color = 4;
glyphname = "arda_sarincefina-teng.rlig";
lastChange = "2022-01-04 14:02:05 +0000";
layers = (
{
anchors = (
{
name = bottom_1;
position = "{209, -297}";
},
{
name = bottom_2;
position = "{682, -277}";
},
{
name = bottomleft_1;
position = "{-20, -240}";
},
{
name = top_1;
position = "{285, 400}";
},
{
name = top_2;
position = "{734, 64}";
}
);
components = (
{
name = "roomen_sarincefina-teng.rlig";
transform = "{1, 0, 0, 1, 51, 0}";
}
);
layerId = "4397B867-53E7-4964-BB9B-A578920F109C";
paths = (
{
closed = 1;
nodes = (
"103 4 OFFCURVE",
"128 15 OFFCURVE",
"141 33 CURVE",
"121 54 OFFCURVE",
"109 73 OFFCURVE",
"109 92 CURVE SMOOTH",
"109 129 OFFCURVE",
"137 159 OFFCURVE",
"216 216 CURVE",
"206 242 LINE",
"167 214 OFFCURVE",
"127 182 OFFCURVE",
"94 153 CURVE SMOOTH",
"47 111 OFFCURVE",
"30 82 OFFCURVE",
"30 52 CURVE SMOOTH",
"30 28 OFFCURVE",
"46 4 OFFCURVE",
"79 4 CURVE SMOOTH"
);
}
);
width = 903;
},
{
anchors = (
{
name = bottom_1;
position = "{215, -302}";
},
{
name = bottom_2;
position = "{670, -287}";
},
{
name = bottomleft_1;
position = "{-5, -240}";
},
{
name = top_1;
position = "{306, 420}";
},
{
name = top_2;
position = "{755, 74}";
}
);
components = (
{
name = "roomen_sarincefina-teng.rlig";
transform = "{1, 0, 0, 1, 46, 0}";
}
);
layerId = "0ED38B93-C2B0-4B4A-9C6D-D7838A33C317";
paths = (
{
closed = 1;
nodes = (
"106 4 OFFCURVE",
"139 23 OFFCURVE",
"156 53 CURVE",
"136 74 OFFCURVE",
"124 93 OFFCURVE",
"124 112 CURVE SMOOTH",
"124 143 OFFCURVE",
"147 168 OFFCURVE",
"211 216 CURVE",
"201 242 LINE",
"162 214 OFFCURVE",
"122 182 OFFCURVE",
"89 153 CURVE SMOOTH",
"42 111 OFFCURVE",
"25 82 OFFCURVE",
"25 52 CURVE SMOOTH",
"25 28 OFFCURVE",
"41 4 OFFCURVE",
"74 4 CURVE SMOOTH"
);
}
);
width = 914;
}
);
leftMetricsKey = "arda-teng";
rightKerningGroup = sarinceBottom;
rightMetricsKey = "sarincefina-teng";
},
{
color = 4;
glyphname = "lambe_sarincefina-teng.rlig";
lastChange = "2022-01-04 14:02:11 +0000";
layers = (
{
anchors = (
{
name = bottom_1;
position = "{373, 253}";
},
{
name = bottom_2;
position = "{761, -185}";
},
{
name = bottomleft_1;
position = "{-20, -100}";
},
{
name = top_1;
position = "{315, 400}";
},
{
name = top_2;
position = "{813, 156}";
}
);
background = {
paths = (
{
closed = 1;
nodes = (
"471 -185 OFFCURVE",
"615 -44 OFFCURVE",
"615 70 CURVE SMOOTH",
"615 125 OFFCURVE",
"592 150 OFFCURVE",
"554 150 CURVE SMOOTH",
"527 150 OFFCURVE",
"502 133 OFFCURVE",
"492 113 CURVE",
"522 84 OFFCURVE",
"534 59 OFFCURVE",
"534 24 CURVE SMOOTH",
"534 -66 OFFCURVE",
"462 -136 OFFCURVE",
"338 -136 CURVE SMOOTH",
"213 -136 OFFCURVE",
"129 -54 OFFCURVE",
"129 70 CURVE SMOOTH",
"129 172 OFFCURVE",
"186 253 OFFCURVE",
"328 330 CURVE",
"283 336 LINE",
"125 261 OFFCURVE",
"51 168 OFFCURVE",
"51 42 CURVE SMOOTH",
"51 -87 OFFCURVE",
"137 -185 OFFCURVE",
"288 -185 CURVE SMOOTH"
);
},
{
closed = 1;
nodes = (
"290 319 LINE",
"290 342 LINE",
"263 342 LINE",
"263 319 LINE"
);
},
{
closed = 1;
nodes = (
"78 324 OFFCURVE",
"97 330 OFFCURVE",
"175 330 CURVE SMOOTH",
"466 330 LINE SMOOTH",
"523 330 OFFCURVE",
"570 352 OFFCURVE",
"626 401 CURVE",
"627 404 LINE",
"627 408 OFFCURVE",
"621 420 OFFCURVE",
"616 421 CURVE",
"589 406 OFFCURVE",
"570 400 OFFCURVE",
"492 400 CURVE SMOOTH",
"201 400 LINE SMOOTH",
"144 400 OFFCURVE",
"97 378 OFFCURVE",
"41 329 CURVE",
"40 326 LINE",
"40 322 OFFCURVE",
"46 310 OFFCURVE",
"51 309 CURVE"
);
},
{
closed = 1;
nodes = (
"928 -217 OFFCURVE",
"1039 -126 OFFCURVE",
"1039 -33 CURVE SMOOTH",
"1039 35 OFFCURVE",
"999 70 OFFCURVE",
"915 70 CURVE SMOOTH",
"650 70 LINE SMOOTH",
"622 70 OFFCURVE",
"615 63 OFFCURVE",
"615 35 CURVE SMOOTH",
"615 7 OFFCURVE",
"622 0 OFFCURVE",
"650 0 CURVE SMOOTH",
"865 0 LINE SMOOTH",
"948 0 OFFCURVE",
"973 -18 OFFCURVE",
"973 -72 CURVE SMOOTH",
"973 -128 OFFCURVE",
"929 -164 OFFCURVE",
"877 -164 CURVE SMOOTH",
"845 -164 OFFCURVE",
"831 -145 OFFCURVE",
"822 -97 CURVE",
"819 -96 OFFCURVE",
"815 -96 OFFCURVE",
"812 -96 CURVE SMOOTH",
"777 -96 OFFCURVE",
"739 -118 OFFCURVE",
"739 -160 CURVE SMOOTH",
"739 -192 OFFCURVE",
"761 -217 OFFCURVE",
"812 -217 CURVE SMOOTH"
);
}
);
};
layerId = "4397B867-53E7-4964-BB9B-A578920F109C";
paths = (
{
closed = 1;
nodes = (
"522 -185 OFFCURVE",
"582 63 OFFCURVE",
"769 63 CURVE SMOOTH",
"853 63 OFFCURVE",
"900 19 OFFCURVE",
"900 -51 CURVE SMOOTH",
"900 -105 OFFCURVE",
"866 -135 OFFCURVE",
"826 -135 CURVE SMOOTH",
"794 -135 OFFCURVE",
"780 -115 OFFCURVE",
"771 -65 CURVE",
"768 -64 OFFCURVE",
"764 -64 OFFCURVE",
"761 -64 CURVE SMOOTH",
"726 -64 OFFCURVE",
"688 -86 OFFCURVE",
"688 -128 CURVE SMOOTH",
"688 -160 OFFCURVE",
"710 -185 OFFCURVE",
"761 -185 CURVE SMOOTH",
"865 -185 OFFCURVE",
"967 -108 OFFCURVE",
"967 -20 CURVE SMOOTH",
"967 72 OFFCURVE",
"905 126 OFFCURVE",
"813 126 CURVE SMOOTH",
"600 126 OFFCURVE",
"527 -132 OFFCURVE",
"328 -132 CURVE SMOOTH",
"209 -132 OFFCURVE",
"129 -52 OFFCURVE",
"129 70 CURVE SMOOTH",
"129 172 OFFCURVE",
"186 253 OFFCURVE",
"328 330 CURVE",
"283 336 LINE",
"125 261 OFFCURVE",
"51 168 OFFCURVE",
"51 42 CURVE SMOOTH",
"51 -87 OFFCURVE",
"137 -185 OFFCURVE",
"288 -185 CURVE SMOOTH"
);
},
{
closed = 1;
nodes = (
"290 319 LINE",
"290 342 LINE",
"263 342 LINE",
"263 319 LINE"
);
},
{
closed = 1;
nodes = (
"78 324 OFFCURVE",
"97 330 OFFCURVE",
"175 330 CURVE SMOOTH",
"466 330 LINE SMOOTH",
"523 330 OFFCURVE",
"570 352 OFFCURVE",
"626 401 CURVE",
"627 404 LINE",
"627 408 OFFCURVE",
"621 420 OFFCURVE",
"616 421 CURVE",
"589 406 OFFCURVE",
"570 400 OFFCURVE",
"492 400 CURVE SMOOTH",
"201 400 LINE SMOOTH",
"144 400 OFFCURVE",
"97 378 OFFCURVE",
"41 329 CURVE",
"40 326 LINE",
"40 322 OFFCURVE",
"46 310 OFFCURVE",
"51 309 CURVE"
);
}
);
width = 982;
},
{
anchors = (
{
name = bottom_1;
position = "{386, 249}";
},
{
name = bottom_2;
position = "{749, -205}";
},
{
name = bottomleft_1;
position = "{-27, -100}";
},
{
name = top_1;
position = "{361, 420}";
},
{
name = top_2;
position = "{834, 156}";
}
);
background = {
paths = (
{
closed = 1;
nodes = (
"303 315 LINE",
"303 338 LINE",
"276 338 LINE",
"276 315 LINE"
);
},
{
closed = 1;
nodes = (
"73 320 OFFCURVE",
"92 326 OFFCURVE",
"170 326 CURVE SMOOTH",
"471 326 LINE SMOOTH",
"539 326 OFFCURVE",
"595 355 OFFCURVE",
"661 421 CURVE",
"662 424 LINE",
"662 428 OFFCURVE",
"656 440 OFFCURVE",
"651 441 CURVE",
"624 426 OFFCURVE",
"605 420 OFFCURVE",
"527 420 CURVE SMOOTH",
"226 420 LINE SMOOTH",
"158 420 OFFCURVE",
"103 391 OFFCURVE",
"36 325 CURVE",
"35 322 LINE",
"35 318 OFFCURVE",
"41 306 OFFCURVE",
"46 305 CURVE"
);
},
{
closed = 0;
nodes = (
"361 -130 LINE",
"236 -130 OFFCURVE",
"152 -48 OFFCURVE",
"152 76 CURVE SMOOTH",
"152 174 OFFCURVE",
"206 252 OFFCURVE",
"341 326 CURVE",
"296 332 LINE",
"126 252 OFFCURVE",
"46 155 OFFCURVE",
"46 22 CURVE SMOOTH",
"46 -107 OFFCURVE",
"132 -205 OFFCURVE",
"283 -205 CURVE",
"525 -205 OFFCURVE",
"587 43 OFFCURVE",
"770 43 CURVE SMOOTH",
"852 43 OFFCURVE",
"891 1 OFFCURVE",
"891 -66 CURVE SMOOTH",
"891 -124 OFFCURVE",
"860 -155 OFFCURVE",
"822 -155 CURVE SMOOTH",
"790 -155 OFFCURVE",
"777 -133 OFFCURVE",
"769 -73 CURVE",
"763 -71 OFFCURVE",
"755 -70 OFFCURVE",
"749 -70 CURVE SMOOTH",
"709 -70 OFFCURVE",
"666 -93 OFFCURVE",
"666 -138 CURVE SMOOTH",
"666 -175 OFFCURVE",
"691 -205 OFFCURVE",
"749 -205 CURVE SMOOTH",
"870 -205 OFFCURVE",
"988 -114 OFFCURVE",
"988 -10 CURVE SMOOTH",
"988 76 OFFCURVE",
"926 126 OFFCURVE",
"834 126 CURVE SMOOTH",
"623 126 OFFCURVE",
"550 -134 OFFCURVE",
"362 -134 CURVE SMOOTH"
);
}
);
};
layerId = "0ED38B93-C2B0-4B4A-9C6D-D7838A33C317";
paths = (
{
closed = 1;
nodes = (
"525 -205 OFFCURVE",
"587 43 OFFCURVE",
"770 43 CURVE SMOOTH",
"852 43 OFFCURVE",
"891 1 OFFCURVE",
"891 -66 CURVE SMOOTH",
"891 -124 OFFCURVE",
"860 -155 OFFCURVE",
"822 -155 CURVE SMOOTH",
"790 -155 OFFCURVE",
"777 -133 OFFCURVE",
"769 -73 CURVE",
"763 -71 OFFCURVE",
"755 -70 OFFCURVE",
"749 -70 CURVE SMOOTH",
"709 -70 OFFCURVE",
"666 -93 OFFCURVE",
"666 -138 CURVE SMOOTH",
"666 -175 OFFCURVE",
"691 -205 OFFCURVE",
"749 -205 CURVE SMOOTH",
"870 -205 OFFCURVE",
"988 -114 OFFCURVE",
"988 -10 CURVE SMOOTH",
"988 76 OFFCURVE",
"926 126 OFFCURVE",
"834 126 CURVE SMOOTH",
"623 126 OFFCURVE",
"556 -130 OFFCURVE",
"361 -130 CURVE SMOOTH",
"236 -130 OFFCURVE",
"152 -48 OFFCURVE",
"152 76 CURVE SMOOTH",
"152 174 OFFCURVE",
"206 252 OFFCURVE",
"341 326 CURVE",
"296 332 LINE",
"126 252 OFFCURVE",
"46 155 OFFCURVE",
"46 22 CURVE SMOOTH",
"46 -107 OFFCURVE",
"132 -205 OFFCURVE",
"283 -205 CURVE SMOOTH"
);
},
{
closed = 1;
nodes = (
"303 315 LINE",
"303 338 LINE",
"276 338 LINE",
"276 315 LINE"
);
},
{
closed = 1;
nodes = (
"73 320 OFFCURVE",
"92 326 OFFCURVE",
"170 326 CURVE SMOOTH",
"471 326 LINE SMOOTH",
"539 326 OFFCURVE",
"595 355 OFFCURVE",
"661 421 CURVE",
"662 424 LINE",
"662 428 OFFCURVE",
"656 440 OFFCURVE",
"651 441 CURVE",
"624 426 OFFCURVE",
"605 420 OFFCURVE",
"527 420 CURVE SMOOTH",
"226 420 LINE SMOOTH",
"158 420 OFFCURVE",
"103 391 OFFCURVE",
"36 325 CURVE",
"35 322 LINE",
"35 318 OFFCURVE",
"41 306 OFFCURVE",
"46 305 CURVE"
);
}
);
width = 998;
}
);
leftMetricsKey = "lambe-teng";
rightKerningGroup = sarinceBottom;
rightMetricsKey = "sarincefina-teng";
},
